<mxfile host="app.diagrams.net" agent="Mozilla/5.0 (Macintosh; Intel Mac OS X 10_15_7) AppleWebKit/537.36 (KHTML, like Gecko) Chrome/135.0.0.0 Safari/537.36" version="26.2.14">
  <diagram name="Trang-1" id="1_ULK1Tn_v7dPNNz9p1d">
    <mxGraphModel dx="2071" dy="2269" grid="0" gridSize="10" guides="1" tooltips="1" connect="1" arrows="1" fold="1" page="0" pageScale="1" pageWidth="827" pageHeight="1169" math="0" shadow="0">
      <root>
        <mxCell id="0" />
        <mxCell id="1" parent="0" />
        <mxCell id="O2yFdtKVDfJv69alRwpb-2" value="Admin" style="shape=umlActor;verticalLabelPosition=bottom;verticalAlign=top;html=1;outlineConnect=0;" parent="1" vertex="1">
          <mxGeometry x="2350" y="249" width="30" height="60" as="geometry" />
        </mxCell>
        <mxCell id="O2yFdtKVDfJv69alRwpb-4" value="&lt;font style=&quot;font-size: 19px;&quot;&gt;Quản lý khoá học&lt;/font&gt;" style="shape=umlFrame;whiteSpace=wrap;html=1;pointerEvents=0;recursiveResize=0;container=1;collapsible=0;width=243;height=54;" parent="1" vertex="1">
          <mxGeometry x="2539" y="64" width="1420" height="1218" as="geometry" />
        </mxCell>
        <mxCell id="O2yFdtKVDfJv69alRwpb-6" value="Đăng nhập admin" style="ellipse;whiteSpace=wrap;html=1;" parent="O2yFdtKVDfJv69alRwpb-4" vertex="1">
          <mxGeometry x="34" y="231.5" width="166" height="51" as="geometry" />
        </mxCell>
        <mxCell id="O2yFdtKVDfJv69alRwpb-11" value="Quản lý khoá học" style="ellipse;whiteSpace=wrap;html=1;" parent="O2yFdtKVDfJv69alRwpb-4" vertex="1">
          <mxGeometry x="369" y="231.5" width="166" height="51" as="geometry" />
        </mxCell>
        <mxCell id="O2yFdtKVDfJv69alRwpb-12" value="Quản lý học viên" style="ellipse;whiteSpace=wrap;html=1;" parent="O2yFdtKVDfJv69alRwpb-4" vertex="1">
          <mxGeometry x="303" y="514" width="166" height="51" as="geometry" />
        </mxCell>
        <mxCell id="O2yFdtKVDfJv69alRwpb-13" value="Quản lý đăng ký khoá học" style="ellipse;whiteSpace=wrap;html=1;" parent="O2yFdtKVDfJv69alRwpb-4" vertex="1">
          <mxGeometry x="293" y="737" width="166" height="51" as="geometry" />
        </mxCell>
        <mxCell id="O2yFdtKVDfJv69alRwpb-15" value="Thống kê học viên theo khoá học" style="ellipse;whiteSpace=wrap;html=1;" parent="O2yFdtKVDfJv69alRwpb-4" vertex="1">
          <mxGeometry x="293" y="1003" width="182" height="72" as="geometry" />
        </mxCell>
        <mxCell id="O2yFdtKVDfJv69alRwpb-16" value="Hiển thị danh sách khoá học" style="ellipse;whiteSpace=wrap;html=1;" parent="O2yFdtKVDfJv69alRwpb-4" vertex="1">
          <mxGeometry x="146" y="142" width="166" height="51" as="geometry" />
        </mxCell>
        <mxCell id="O2yFdtKVDfJv69alRwpb-17" value="Thêm mới khoá học" style="ellipse;whiteSpace=wrap;html=1;" parent="O2yFdtKVDfJv69alRwpb-4" vertex="1">
          <mxGeometry x="260" y="52" width="166" height="51" as="geometry" />
        </mxCell>
        <mxCell id="O2yFdtKVDfJv69alRwpb-18" value="Chỉnh sửa thông tin khoá học" style="ellipse;whiteSpace=wrap;html=1;" parent="O2yFdtKVDfJv69alRwpb-4" vertex="1">
          <mxGeometry x="459" y="52" width="166" height="51" as="geometry" />
        </mxCell>
        <mxCell id="O2yFdtKVDfJv69alRwpb-19" value="Xoá khoá học" style="ellipse;whiteSpace=wrap;html=1;" parent="O2yFdtKVDfJv69alRwpb-4" vertex="1">
          <mxGeometry x="599" y="103" width="166" height="56" as="geometry" />
        </mxCell>
        <mxCell id="O2yFdtKVDfJv69alRwpb-21" value="Tìm kiếm theo tên" style="ellipse;whiteSpace=wrap;html=1;" parent="O2yFdtKVDfJv69alRwpb-4" vertex="1">
          <mxGeometry x="602" y="186" width="166" height="56" as="geometry" />
        </mxCell>
        <mxCell id="O2yFdtKVDfJv69alRwpb-22" value="Sắp xếp theo tên hoặc id" style="ellipse;whiteSpace=wrap;html=1;" parent="O2yFdtKVDfJv69alRwpb-4" vertex="1">
          <mxGeometry x="599" y="274" width="166" height="56" as="geometry" />
        </mxCell>
        <mxCell id="O2yFdtKVDfJv69alRwpb-24" value="Hiển thị danh sách học viên" style="ellipse;whiteSpace=wrap;html=1;" parent="O2yFdtKVDfJv69alRwpb-4" vertex="1">
          <mxGeometry x="284" y="370" width="166" height="56" as="geometry" />
        </mxCell>
        <mxCell id="O2yFdtKVDfJv69alRwpb-25" value="Thêm mới học viên" style="ellipse;whiteSpace=wrap;html=1;" parent="O2yFdtKVDfJv69alRwpb-4" vertex="1">
          <mxGeometry x="462" y="360" width="166" height="56" as="geometry" />
        </mxCell>
        <mxCell id="O2yFdtKVDfJv69alRwpb-26" value="Chỉnh sửa thông tin học viên" style="ellipse;whiteSpace=wrap;html=1;" parent="O2yFdtKVDfJv69alRwpb-4" vertex="1">
          <mxGeometry x="590" y="426" width="166" height="56" as="geometry" />
        </mxCell>
        <mxCell id="O2yFdtKVDfJv69alRwpb-27" value="Xoá học viên" style="ellipse;whiteSpace=wrap;html=1;" parent="O2yFdtKVDfJv69alRwpb-4" vertex="1">
          <mxGeometry x="595" y="500" width="166" height="62.5" as="geometry" />
        </mxCell>
        <mxCell id="O2yFdtKVDfJv69alRwpb-29" value="Tìm kiếm theo tên" style="ellipse;whiteSpace=wrap;html=1;" parent="O2yFdtKVDfJv69alRwpb-4" vertex="1">
          <mxGeometry x="590" y="581" width="166" height="62.5" as="geometry" />
        </mxCell>
        <mxCell id="O2yFdtKVDfJv69alRwpb-30" style="edgeStyle=orthogonalEdgeStyle;rounded=0;orthogonalLoop=1;jettySize=auto;html=1;exitX=0.5;exitY=1;exitDx=0;exitDy=0;" parent="O2yFdtKVDfJv69alRwpb-4" source="O2yFdtKVDfJv69alRwpb-26" target="O2yFdtKVDfJv69alRwpb-26" edge="1">
          <mxGeometry relative="1" as="geometry" />
        </mxCell>
        <mxCell id="O2yFdtKVDfJv69alRwpb-31" value="Sắp xếp&amp;nbsp;" style="ellipse;whiteSpace=wrap;html=1;" parent="O2yFdtKVDfJv69alRwpb-4" vertex="1">
          <mxGeometry x="419" y="625" width="166" height="62.5" as="geometry" />
        </mxCell>
        <mxCell id="O2yFdtKVDfJv69alRwpb-32" style="edgeStyle=orthogonalEdgeStyle;rounded=0;orthogonalLoop=1;jettySize=auto;html=1;exitX=0.5;exitY=1;exitDx=0;exitDy=0;" parent="O2yFdtKVDfJv69alRwpb-4" source="O2yFdtKVDfJv69alRwpb-24" target="O2yFdtKVDfJv69alRwpb-24" edge="1">
          <mxGeometry relative="1" as="geometry" />
        </mxCell>
        <mxCell id="O2yFdtKVDfJv69alRwpb-34" value="Hiển thị học viên theo từng khoá học" style="ellipse;whiteSpace=wrap;html=1;" parent="O2yFdtKVDfJv69alRwpb-4" vertex="1">
          <mxGeometry x="572" y="693" width="166" height="62.5" as="geometry" />
        </mxCell>
        <mxCell id="O2yFdtKVDfJv69alRwpb-36" value="Xoá học viên khỏi khoá học" style="ellipse;whiteSpace=wrap;html=1;" parent="O2yFdtKVDfJv69alRwpb-4" vertex="1">
          <mxGeometry x="386" y="850" width="166" height="62.5" as="geometry" />
        </mxCell>
        <mxCell id="O2yFdtKVDfJv69alRwpb-38" value="Thống kê tổng số lượng khoá học và học viên" style="ellipse;whiteSpace=wrap;html=1;" parent="O2yFdtKVDfJv69alRwpb-4" vertex="1">
          <mxGeometry x="499" y="927" width="166" height="62.5" as="geometry" />
        </mxCell>
        <mxCell id="O2yFdtKVDfJv69alRwpb-39" value="Thống kê học viên theo từng khoá học" style="ellipse;whiteSpace=wrap;html=1;" parent="O2yFdtKVDfJv69alRwpb-4" vertex="1">
          <mxGeometry x="579" y="1022" width="166" height="62.5" as="geometry" />
        </mxCell>
        <mxCell id="O2yFdtKVDfJv69alRwpb-40" value="Top 5 khoá học đông học viên nhất" style="ellipse;whiteSpace=wrap;html=1;" parent="O2yFdtKVDfJv69alRwpb-4" vertex="1">
          <mxGeometry x="459" y="1116" width="166" height="62.5" as="geometry" />
        </mxCell>
        <mxCell id="O2yFdtKVDfJv69alRwpb-41" value="Liệt kê khoá học có trên 10 học viên" style="ellipse;whiteSpace=wrap;html=1;" parent="O2yFdtKVDfJv69alRwpb-4" vertex="1">
          <mxGeometry x="260" y="1138" width="166" height="62.5" as="geometry" />
        </mxCell>
        <mxCell id="O2yFdtKVDfJv69alRwpb-42" value="Đăng xuất admin" style="ellipse;whiteSpace=wrap;html=1;" parent="O2yFdtKVDfJv69alRwpb-4" vertex="1">
          <mxGeometry x="34" y="940.5" width="166" height="62.5" as="geometry" />
        </mxCell>
        <mxCell id="O2yFdtKVDfJv69alRwpb-43" value="&amp;lt;&amp;lt;include&amp;gt;&amp;gt;" style="html=1;verticalAlign=bottom;labelBackgroundColor=none;endArrow=open;endFill=0;dashed=1;rounded=0;exitX=1;exitY=0.5;exitDx=0;exitDy=0;entryX=0;entryY=0.5;entryDx=0;entryDy=0;" parent="O2yFdtKVDfJv69alRwpb-4" source="O2yFdtKVDfJv69alRwpb-6" target="O2yFdtKVDfJv69alRwpb-11" edge="1">
          <mxGeometry width="160" relative="1" as="geometry">
            <mxPoint x="132" y="357" as="sourcePoint" />
            <mxPoint x="292" y="357" as="targetPoint" />
          </mxGeometry>
        </mxCell>
        <mxCell id="O2yFdtKVDfJv69alRwpb-44" value="&amp;lt;&amp;lt;include&amp;gt;&amp;gt;" style="html=1;verticalAlign=bottom;labelBackgroundColor=none;endArrow=open;endFill=0;dashed=1;rounded=0;exitX=1;exitY=1;exitDx=0;exitDy=0;entryX=0;entryY=0.5;entryDx=0;entryDy=0;" parent="O2yFdtKVDfJv69alRwpb-4" source="O2yFdtKVDfJv69alRwpb-6" target="O2yFdtKVDfJv69alRwpb-12" edge="1">
          <mxGeometry width="160" relative="1" as="geometry">
            <mxPoint x="210" y="267" as="sourcePoint" />
            <mxPoint x="379" y="267" as="targetPoint" />
          </mxGeometry>
        </mxCell>
        <mxCell id="O2yFdtKVDfJv69alRwpb-45" value="&amp;lt;&amp;lt;include&amp;gt;&amp;gt;" style="html=1;verticalAlign=bottom;labelBackgroundColor=none;endArrow=open;endFill=0;dashed=1;rounded=0;exitX=0.5;exitY=1;exitDx=0;exitDy=0;entryX=0;entryY=0.5;entryDx=0;entryDy=0;" parent="O2yFdtKVDfJv69alRwpb-4" source="O2yFdtKVDfJv69alRwpb-6" target="O2yFdtKVDfJv69alRwpb-13" edge="1">
          <mxGeometry width="160" relative="1" as="geometry">
            <mxPoint x="187" y="285" as="sourcePoint" />
            <mxPoint x="313" y="550" as="targetPoint" />
          </mxGeometry>
        </mxCell>
        <mxCell id="O2yFdtKVDfJv69alRwpb-46" value="&amp;lt;&amp;lt;include&amp;gt;&amp;gt;" style="html=1;verticalAlign=bottom;labelBackgroundColor=none;endArrow=open;endFill=0;dashed=1;rounded=0;exitX=0.5;exitY=1;exitDx=0;exitDy=0;entryX=0;entryY=0.5;entryDx=0;entryDy=0;" parent="O2yFdtKVDfJv69alRwpb-4" source="O2yFdtKVDfJv69alRwpb-6" target="O2yFdtKVDfJv69alRwpb-15" edge="1">
          <mxGeometry width="160" relative="1" as="geometry">
            <mxPoint x="127" y="292" as="sourcePoint" />
            <mxPoint x="303" y="773" as="targetPoint" />
          </mxGeometry>
        </mxCell>
        <mxCell id="O2yFdtKVDfJv69alRwpb-48" value="&amp;lt;&amp;lt;extend&amp;gt;&amp;gt;" style="html=1;verticalAlign=bottom;labelBackgroundColor=none;endArrow=open;endFill=0;dashed=1;rounded=0;entryX=0;entryY=1;entryDx=0;entryDy=0;exitX=0;exitY=0;exitDx=0;exitDy=0;" parent="O2yFdtKVDfJv69alRwpb-4" source="O2yFdtKVDfJv69alRwpb-42" target="O2yFdtKVDfJv69alRwpb-6" edge="1">
          <mxGeometry width="160" relative="1" as="geometry">
            <mxPoint x="69" y="1015" as="sourcePoint" />
            <mxPoint x="229" y="1015" as="targetPoint" />
          </mxGeometry>
        </mxCell>
        <mxCell id="O2yFdtKVDfJv69alRwpb-49" value="&amp;lt;&amp;lt;extend&amp;gt;&amp;gt;" style="html=1;verticalAlign=bottom;labelBackgroundColor=none;endArrow=open;endFill=0;dashed=1;rounded=0;entryX=0;entryY=0;entryDx=0;entryDy=0;exitX=1;exitY=0.5;exitDx=0;exitDy=0;" parent="O2yFdtKVDfJv69alRwpb-4" source="O2yFdtKVDfJv69alRwpb-16" target="O2yFdtKVDfJv69alRwpb-11" edge="1">
          <mxGeometry width="160" relative="1" as="geometry">
            <mxPoint x="383" y="172" as="sourcePoint" />
            <mxPoint x="543" y="172" as="targetPoint" />
          </mxGeometry>
        </mxCell>
        <mxCell id="O2yFdtKVDfJv69alRwpb-50" value="&amp;lt;&amp;lt;extend&amp;gt;&amp;gt;" style="html=1;verticalAlign=bottom;labelBackgroundColor=none;endArrow=open;endFill=0;dashed=1;rounded=0;entryX=0.5;entryY=0;entryDx=0;entryDy=0;exitX=0.5;exitY=1;exitDx=0;exitDy=0;" parent="O2yFdtKVDfJv69alRwpb-4" source="O2yFdtKVDfJv69alRwpb-17" target="O2yFdtKVDfJv69alRwpb-11" edge="1">
          <mxGeometry width="160" relative="1" as="geometry">
            <mxPoint x="322" y="178" as="sourcePoint" />
            <mxPoint x="402" y="249" as="targetPoint" />
          </mxGeometry>
        </mxCell>
        <mxCell id="O2yFdtKVDfJv69alRwpb-51" value="&amp;lt;&amp;lt;extend&amp;gt;&amp;gt;" style="html=1;verticalAlign=bottom;labelBackgroundColor=none;endArrow=open;endFill=0;dashed=1;rounded=0;entryX=0.5;entryY=0;entryDx=0;entryDy=0;exitX=0;exitY=1;exitDx=0;exitDy=0;" parent="O2yFdtKVDfJv69alRwpb-4" source="O2yFdtKVDfJv69alRwpb-18" target="O2yFdtKVDfJv69alRwpb-11" edge="1">
          <mxGeometry width="160" relative="1" as="geometry">
            <mxPoint x="332" y="188" as="sourcePoint" />
            <mxPoint x="412" y="259" as="targetPoint" />
          </mxGeometry>
        </mxCell>
        <mxCell id="O2yFdtKVDfJv69alRwpb-52" value="&amp;lt;&amp;lt;extend&amp;gt;&amp;gt;" style="html=1;verticalAlign=bottom;labelBackgroundColor=none;endArrow=open;endFill=0;dashed=1;rounded=0;entryX=1;entryY=0;entryDx=0;entryDy=0;exitX=0;exitY=0.5;exitDx=0;exitDy=0;" parent="O2yFdtKVDfJv69alRwpb-4" source="O2yFdtKVDfJv69alRwpb-19" target="O2yFdtKVDfJv69alRwpb-11" edge="1">
          <mxGeometry width="160" relative="1" as="geometry">
            <mxPoint x="342" y="198" as="sourcePoint" />
            <mxPoint x="422" y="269" as="targetPoint" />
          </mxGeometry>
        </mxCell>
        <mxCell id="O2yFdtKVDfJv69alRwpb-53" value="&amp;lt;&amp;lt;extend&amp;gt;&amp;gt;" style="html=1;verticalAlign=bottom;labelBackgroundColor=none;endArrow=open;endFill=0;dashed=1;rounded=0;entryX=1;entryY=0.5;entryDx=0;entryDy=0;exitX=0;exitY=0.5;exitDx=0;exitDy=0;" parent="O2yFdtKVDfJv69alRwpb-4" source="O2yFdtKVDfJv69alRwpb-21" target="O2yFdtKVDfJv69alRwpb-11" edge="1">
          <mxGeometry width="160" relative="1" as="geometry">
            <mxPoint x="352" y="208" as="sourcePoint" />
            <mxPoint x="432" y="279" as="targetPoint" />
          </mxGeometry>
        </mxCell>
        <mxCell id="O2yFdtKVDfJv69alRwpb-54" value="&amp;lt;&amp;lt;extend&amp;gt;&amp;gt;" style="html=1;verticalAlign=bottom;labelBackgroundColor=none;endArrow=open;endFill=0;dashed=1;rounded=0;entryX=1;entryY=1;entryDx=0;entryDy=0;exitX=0;exitY=0.5;exitDx=0;exitDy=0;" parent="O2yFdtKVDfJv69alRwpb-4" source="O2yFdtKVDfJv69alRwpb-22" target="O2yFdtKVDfJv69alRwpb-11" edge="1">
          <mxGeometry width="160" relative="1" as="geometry">
            <mxPoint x="362" y="218" as="sourcePoint" />
            <mxPoint x="442" y="289" as="targetPoint" />
          </mxGeometry>
        </mxCell>
        <mxCell id="O2yFdtKVDfJv69alRwpb-55" value="&amp;lt;&amp;lt;extend&amp;gt;&amp;gt;" style="html=1;verticalAlign=bottom;labelBackgroundColor=none;endArrow=open;endFill=0;dashed=1;rounded=0;entryX=0.5;entryY=0;entryDx=0;entryDy=0;exitX=0.5;exitY=1;exitDx=0;exitDy=0;" parent="O2yFdtKVDfJv69alRwpb-4" source="O2yFdtKVDfJv69alRwpb-24" target="O2yFdtKVDfJv69alRwpb-12" edge="1">
          <mxGeometry width="160" relative="1" as="geometry">
            <mxPoint x="609" y="312" as="sourcePoint" />
            <mxPoint x="522" y="285" as="targetPoint" />
          </mxGeometry>
        </mxCell>
        <mxCell id="O2yFdtKVDfJv69alRwpb-56" value="&amp;lt;&amp;lt;extend&amp;gt;&amp;gt;" style="html=1;verticalAlign=bottom;labelBackgroundColor=none;endArrow=open;endFill=0;dashed=1;rounded=0;entryX=0.5;entryY=0;entryDx=0;entryDy=0;exitX=0;exitY=1;exitDx=0;exitDy=0;" parent="O2yFdtKVDfJv69alRwpb-4" source="O2yFdtKVDfJv69alRwpb-25" target="O2yFdtKVDfJv69alRwpb-12" edge="1">
          <mxGeometry width="160" relative="1" as="geometry">
            <mxPoint x="377" y="436" as="sourcePoint" />
            <mxPoint x="396" y="524" as="targetPoint" />
          </mxGeometry>
        </mxCell>
        <mxCell id="O2yFdtKVDfJv69alRwpb-57" value="&amp;lt;&amp;lt;extend&amp;gt;&amp;gt;" style="html=1;verticalAlign=bottom;labelBackgroundColor=none;endArrow=open;endFill=0;dashed=1;rounded=0;entryX=1;entryY=0;entryDx=0;entryDy=0;exitX=0;exitY=0.5;exitDx=0;exitDy=0;" parent="O2yFdtKVDfJv69alRwpb-4" source="O2yFdtKVDfJv69alRwpb-26" target="O2yFdtKVDfJv69alRwpb-12" edge="1">
          <mxGeometry width="160" relative="1" as="geometry">
            <mxPoint x="387" y="446" as="sourcePoint" />
            <mxPoint x="406" y="534" as="targetPoint" />
          </mxGeometry>
        </mxCell>
        <mxCell id="O2yFdtKVDfJv69alRwpb-58" value="&amp;lt;&amp;lt;extend&amp;gt;&amp;gt;" style="html=1;verticalAlign=bottom;labelBackgroundColor=none;endArrow=open;endFill=0;dashed=1;rounded=0;entryX=1;entryY=0.5;entryDx=0;entryDy=0;exitX=0;exitY=0.5;exitDx=0;exitDy=0;" parent="O2yFdtKVDfJv69alRwpb-4" source="O2yFdtKVDfJv69alRwpb-27" target="O2yFdtKVDfJv69alRwpb-12" edge="1">
          <mxGeometry width="160" relative="1" as="geometry">
            <mxPoint x="397" y="456" as="sourcePoint" />
            <mxPoint x="416" y="544" as="targetPoint" />
          </mxGeometry>
        </mxCell>
        <mxCell id="O2yFdtKVDfJv69alRwpb-59" value="&amp;lt;&amp;lt;extend&amp;gt;&amp;gt;" style="html=1;verticalAlign=bottom;labelBackgroundColor=none;endArrow=open;endFill=0;dashed=1;rounded=0;entryX=1;entryY=1;entryDx=0;entryDy=0;exitX=0;exitY=0.5;exitDx=0;exitDy=0;" parent="O2yFdtKVDfJv69alRwpb-4" source="O2yFdtKVDfJv69alRwpb-29" target="O2yFdtKVDfJv69alRwpb-12" edge="1">
          <mxGeometry width="160" relative="1" as="geometry">
            <mxPoint x="407" y="466" as="sourcePoint" />
            <mxPoint x="426" y="554" as="targetPoint" />
          </mxGeometry>
        </mxCell>
        <mxCell id="O2yFdtKVDfJv69alRwpb-60" value="&amp;lt;&amp;lt;extend&amp;gt;&amp;gt;" style="html=1;verticalAlign=bottom;labelBackgroundColor=none;endArrow=open;endFill=0;dashed=1;rounded=0;entryX=0.5;entryY=1;entryDx=0;entryDy=0;exitX=0;exitY=0.5;exitDx=0;exitDy=0;" parent="O2yFdtKVDfJv69alRwpb-4" source="O2yFdtKVDfJv69alRwpb-31" target="O2yFdtKVDfJv69alRwpb-12" edge="1">
          <mxGeometry width="160" relative="1" as="geometry">
            <mxPoint x="417" y="476" as="sourcePoint" />
            <mxPoint x="436" y="564" as="targetPoint" />
          </mxGeometry>
        </mxCell>
        <mxCell id="O2yFdtKVDfJv69alRwpb-61" value="&amp;lt;&amp;lt;extend&amp;gt;&amp;gt;" style="html=1;verticalAlign=bottom;labelBackgroundColor=none;endArrow=open;endFill=0;dashed=1;rounded=0;entryX=1;entryY=0;entryDx=0;entryDy=0;exitX=0;exitY=0.5;exitDx=0;exitDy=0;" parent="O2yFdtKVDfJv69alRwpb-4" source="O2yFdtKVDfJv69alRwpb-34" target="O2yFdtKVDfJv69alRwpb-13" edge="1">
          <mxGeometry width="160" relative="1" as="geometry">
            <mxPoint x="377" y="436" as="sourcePoint" />
            <mxPoint x="396" y="524" as="targetPoint" />
          </mxGeometry>
        </mxCell>
        <mxCell id="O2yFdtKVDfJv69alRwpb-63" value="&amp;lt;&amp;lt;extend&amp;gt;&amp;gt;" style="html=1;verticalAlign=bottom;labelBackgroundColor=none;endArrow=open;endFill=0;dashed=1;rounded=0;entryX=0.5;entryY=1;entryDx=0;entryDy=0;exitX=0;exitY=0.5;exitDx=0;exitDy=0;" parent="O2yFdtKVDfJv69alRwpb-4" source="O2yFdtKVDfJv69alRwpb-36" target="O2yFdtKVDfJv69alRwpb-13" edge="1">
          <mxGeometry width="160" relative="1" as="geometry">
            <mxPoint x="592" y="744" as="sourcePoint" />
            <mxPoint x="456" y="765" as="targetPoint" />
          </mxGeometry>
        </mxCell>
        <mxCell id="O2yFdtKVDfJv69alRwpb-64" value="&amp;lt;&amp;lt;extend&amp;gt;&amp;gt;" style="html=1;verticalAlign=bottom;labelBackgroundColor=none;endArrow=open;endFill=0;dashed=1;rounded=0;entryX=0.5;entryY=0;entryDx=0;entryDy=0;exitX=0;exitY=0.5;exitDx=0;exitDy=0;" parent="O2yFdtKVDfJv69alRwpb-4" source="O2yFdtKVDfJv69alRwpb-38" target="O2yFdtKVDfJv69alRwpb-15" edge="1">
          <mxGeometry width="160" relative="1" as="geometry">
            <mxPoint x="605" y="838" as="sourcePoint" />
            <mxPoint x="446" y="790" as="targetPoint" />
          </mxGeometry>
        </mxCell>
        <mxCell id="O2yFdtKVDfJv69alRwpb-65" value="&amp;lt;&amp;lt;extend&amp;gt;&amp;gt;" style="html=1;verticalAlign=bottom;labelBackgroundColor=none;endArrow=open;endFill=0;dashed=1;rounded=0;entryX=1;entryY=0;entryDx=0;entryDy=0;exitX=0;exitY=1;exitDx=0;exitDy=0;" parent="O2yFdtKVDfJv69alRwpb-4" source="O2yFdtKVDfJv69alRwpb-38" target="O2yFdtKVDfJv69alRwpb-15" edge="1">
          <mxGeometry width="160" relative="1" as="geometry">
            <mxPoint x="615" y="848" as="sourcePoint" />
            <mxPoint x="456" y="800" as="targetPoint" />
          </mxGeometry>
        </mxCell>
        <mxCell id="O2yFdtKVDfJv69alRwpb-67" value="&amp;lt;&amp;lt;extend&amp;gt;&amp;gt;" style="html=1;verticalAlign=bottom;labelBackgroundColor=none;endArrow=open;endFill=0;dashed=1;rounded=0;entryX=1;entryY=0.5;entryDx=0;entryDy=0;exitX=0;exitY=0.5;exitDx=0;exitDy=0;" parent="O2yFdtKVDfJv69alRwpb-4" source="O2yFdtKVDfJv69alRwpb-39" target="O2yFdtKVDfJv69alRwpb-15" edge="1">
          <mxGeometry width="160" relative="1" as="geometry">
            <mxPoint x="625" y="858" as="sourcePoint" />
            <mxPoint x="466" y="810" as="targetPoint" />
          </mxGeometry>
        </mxCell>
        <mxCell id="O2yFdtKVDfJv69alRwpb-68" value="&amp;lt;&amp;lt;extend&amp;gt;&amp;gt;" style="html=1;verticalAlign=bottom;labelBackgroundColor=none;endArrow=open;endFill=0;dashed=1;rounded=0;entryX=0;entryY=1;entryDx=0;entryDy=0;exitX=0;exitY=0;exitDx=0;exitDy=0;" parent="O2yFdtKVDfJv69alRwpb-4" source="O2yFdtKVDfJv69alRwpb-41" target="O2yFdtKVDfJv69alRwpb-15" edge="1">
          <mxGeometry width="160" relative="1" as="geometry">
            <mxPoint x="635" y="868" as="sourcePoint" />
            <mxPoint x="476" y="820" as="targetPoint" />
          </mxGeometry>
        </mxCell>
        <mxCell id="O2yFdtKVDfJv69alRwpb-69" value="&amp;lt;&amp;lt;extend&amp;gt;&amp;gt;" style="html=1;verticalAlign=bottom;labelBackgroundColor=none;endArrow=open;endFill=0;dashed=1;rounded=0;entryX=0.5;entryY=1;entryDx=0;entryDy=0;exitX=0;exitY=0;exitDx=0;exitDy=0;" parent="O2yFdtKVDfJv69alRwpb-4" source="O2yFdtKVDfJv69alRwpb-40" target="O2yFdtKVDfJv69alRwpb-15" edge="1">
          <mxGeometry width="160" relative="1" as="geometry">
            <mxPoint x="645" y="878" as="sourcePoint" />
            <mxPoint x="486" y="830" as="targetPoint" />
          </mxGeometry>
        </mxCell>
        <mxCell id="O2yFdtKVDfJv69alRwpb-71" value="Đăng nhập Học viên" style="ellipse;whiteSpace=wrap;html=1;" parent="O2yFdtKVDfJv69alRwpb-4" vertex="1">
          <mxGeometry x="1224" y="488" width="120" height="80" as="geometry" />
        </mxCell>
        <mxCell id="O2yFdtKVDfJv69alRwpb-72" value="Đăng xuất Học viên" style="ellipse;whiteSpace=wrap;html=1;" parent="O2yFdtKVDfJv69alRwpb-4" vertex="1">
          <mxGeometry x="1224" y="729" width="120" height="80" as="geometry" />
        </mxCell>
        <mxCell id="O2yFdtKVDfJv69alRwpb-73" value="&amp;lt;&amp;lt;extend&amp;gt;&amp;gt;" style="html=1;verticalAlign=bottom;labelBackgroundColor=none;endArrow=open;endFill=0;dashed=1;rounded=0;entryX=0.5;entryY=1;entryDx=0;entryDy=0;exitX=0.5;exitY=0;exitDx=0;exitDy=0;" parent="O2yFdtKVDfJv69alRwpb-4" source="O2yFdtKVDfJv69alRwpb-72" target="O2yFdtKVDfJv69alRwpb-71" edge="1">
          <mxGeometry width="160" relative="1" as="geometry">
            <mxPoint x="1065" y="699" as="sourcePoint" />
            <mxPoint x="1225" y="699" as="targetPoint" />
          </mxGeometry>
        </mxCell>
        <mxCell id="O2yFdtKVDfJv69alRwpb-74" value="Xem danh sách khoá học" style="ellipse;whiteSpace=wrap;html=1;" parent="O2yFdtKVDfJv69alRwpb-4" vertex="1">
          <mxGeometry x="875" y="218" width="180" height="80" as="geometry" />
        </mxCell>
        <mxCell id="O2yFdtKVDfJv69alRwpb-130" value="Đăng ký khoá học" style="ellipse;whiteSpace=wrap;html=1;" parent="O2yFdtKVDfJv69alRwpb-4" vertex="1">
          <mxGeometry x="875" y="347" width="180" height="80" as="geometry" />
        </mxCell>
        <mxCell id="O2yFdtKVDfJv69alRwpb-131" value="Xem khoá học đã đăng ký" style="ellipse;whiteSpace=wrap;html=1;" parent="O2yFdtKVDfJv69alRwpb-4" vertex="1">
          <mxGeometry x="875" y="471" width="180" height="80" as="geometry" />
        </mxCell>
        <mxCell id="O2yFdtKVDfJv69alRwpb-132" value="Huỷ đăng ký" style="ellipse;whiteSpace=wrap;html=1;" parent="O2yFdtKVDfJv69alRwpb-4" vertex="1">
          <mxGeometry x="872" y="594.5" width="180" height="80" as="geometry" />
        </mxCell>
        <mxCell id="O2yFdtKVDfJv69alRwpb-133" value="Đổi mật khẩu" style="ellipse;whiteSpace=wrap;html=1;" parent="O2yFdtKVDfJv69alRwpb-4" vertex="1">
          <mxGeometry x="872" y="719.5" width="180" height="80" as="geometry" />
        </mxCell>
        <mxCell id="O2yFdtKVDfJv69alRwpb-134" value="&amp;lt;&amp;lt;include&amp;gt;&amp;gt;" style="html=1;verticalAlign=bottom;labelBackgroundColor=none;endArrow=open;endFill=0;dashed=1;rounded=0;entryX=1;entryY=0.5;entryDx=0;entryDy=0;exitX=0.5;exitY=0;exitDx=0;exitDy=0;" parent="O2yFdtKVDfJv69alRwpb-4" source="O2yFdtKVDfJv69alRwpb-71" target="O2yFdtKVDfJv69alRwpb-74" edge="1">
          <mxGeometry width="160" relative="1" as="geometry">
            <mxPoint x="1068" y="333" as="sourcePoint" />
            <mxPoint x="1228" y="333" as="targetPoint" />
          </mxGeometry>
        </mxCell>
        <mxCell id="O2yFdtKVDfJv69alRwpb-135" value="&amp;lt;&amp;lt;include&amp;gt;&amp;gt;" style="html=1;verticalAlign=bottom;labelBackgroundColor=none;endArrow=open;endFill=0;dashed=1;rounded=0;entryX=1;entryY=0.5;entryDx=0;entryDy=0;exitX=0;exitY=0.5;exitDx=0;exitDy=0;" parent="O2yFdtKVDfJv69alRwpb-4" source="O2yFdtKVDfJv69alRwpb-71" target="O2yFdtKVDfJv69alRwpb-130" edge="1">
          <mxGeometry width="160" relative="1" as="geometry">
            <mxPoint x="1294" y="498" as="sourcePoint" />
            <mxPoint x="1065" y="268" as="targetPoint" />
          </mxGeometry>
        </mxCell>
        <mxCell id="O2yFdtKVDfJv69alRwpb-136" value="&amp;lt;&amp;lt;include&amp;gt;&amp;gt;" style="html=1;verticalAlign=bottom;labelBackgroundColor=none;endArrow=open;endFill=0;dashed=1;rounded=0;entryX=1;entryY=0.5;entryDx=0;entryDy=0;exitX=0;exitY=0.5;exitDx=0;exitDy=0;" parent="O2yFdtKVDfJv69alRwpb-4" source="O2yFdtKVDfJv69alRwpb-71" target="O2yFdtKVDfJv69alRwpb-131" edge="1">
          <mxGeometry width="160" relative="1" as="geometry">
            <mxPoint x="1304" y="508" as="sourcePoint" />
            <mxPoint x="1075" y="278" as="targetPoint" />
          </mxGeometry>
        </mxCell>
        <mxCell id="O2yFdtKVDfJv69alRwpb-137" value="&amp;lt;&amp;lt;include&amp;gt;&amp;gt;" style="html=1;verticalAlign=bottom;labelBackgroundColor=none;endArrow=open;endFill=0;dashed=1;rounded=0;entryX=1;entryY=0.5;entryDx=0;entryDy=0;exitX=0;exitY=1;exitDx=0;exitDy=0;" parent="O2yFdtKVDfJv69alRwpb-4" source="O2yFdtKVDfJv69alRwpb-71" target="O2yFdtKVDfJv69alRwpb-132" edge="1">
          <mxGeometry width="160" relative="1" as="geometry">
            <mxPoint x="1314" y="518" as="sourcePoint" />
            <mxPoint x="1085" y="288" as="targetPoint" />
          </mxGeometry>
        </mxCell>
        <mxCell id="O2yFdtKVDfJv69alRwpb-138" value="&amp;lt;&amp;lt;include&amp;gt;&amp;gt;" style="html=1;verticalAlign=bottom;labelBackgroundColor=none;endArrow=open;endFill=0;dashed=1;rounded=0;entryX=1;entryY=0;entryDx=0;entryDy=0;exitX=0;exitY=1;exitDx=0;exitDy=0;" parent="O2yFdtKVDfJv69alRwpb-4" source="O2yFdtKVDfJv69alRwpb-71" target="O2yFdtKVDfJv69alRwpb-133" edge="1">
          <mxGeometry width="160" relative="1" as="geometry">
            <mxPoint x="1324" y="528" as="sourcePoint" />
            <mxPoint x="1095" y="298" as="targetPoint" />
          </mxGeometry>
        </mxCell>
        <mxCell id="M9w1dwyrhwupKzDS5G9y-191" value="Đăng ký Học viên" style="ellipse;whiteSpace=wrap;html=1;" vertex="1" parent="O2yFdtKVDfJv69alRwpb-4">
          <mxGeometry x="1207" y="228" width="120" height="80" as="geometry" />
        </mxCell>
        <mxCell id="O2yFdtKVDfJv69alRwpb-8" value="" style="endArrow=none;html=1;rounded=0;entryX=0;entryY=0.5;entryDx=0;entryDy=0;" parent="1" target="O2yFdtKVDfJv69alRwpb-6" edge="1">
          <mxGeometry width="50" height="50" relative="1" as="geometry">
            <mxPoint x="2394" y="278" as="sourcePoint" />
            <mxPoint x="2479" y="278" as="targetPoint" />
          </mxGeometry>
        </mxCell>
        <mxCell id="O2yFdtKVDfJv69alRwpb-35" value="Duyệt đơn đăng ký khoá học" style="ellipse;whiteSpace=wrap;html=1;" parent="1" vertex="1">
          <mxGeometry x="3134" y="858.5" width="166" height="67.5" as="geometry" />
        </mxCell>
        <mxCell id="O2yFdtKVDfJv69alRwpb-62" value="&amp;lt;&amp;lt;extend&amp;gt;&amp;gt;" style="html=1;verticalAlign=bottom;labelBackgroundColor=none;endArrow=open;endFill=0;dashed=1;rounded=0;entryX=1;entryY=1;entryDx=0;entryDy=0;exitX=0;exitY=0.5;exitDx=0;exitDy=0;" parent="1" source="O2yFdtKVDfJv69alRwpb-35" target="O2yFdtKVDfJv69alRwpb-13" edge="1">
          <mxGeometry width="160" relative="1" as="geometry">
            <mxPoint x="3121" y="798" as="sourcePoint" />
            <mxPoint x="2985" y="819" as="targetPoint" />
          </mxGeometry>
        </mxCell>
        <mxCell id="O2yFdtKVDfJv69alRwpb-70" value="Học viên" style="shape=umlActor;verticalLabelPosition=bottom;verticalAlign=top;html=1;outlineConnect=0;" parent="1" vertex="1">
          <mxGeometry x="4011" y="560" width="30" height="60" as="geometry" />
        </mxCell>
        <mxCell id="O2yFdtKVDfJv69alRwpb-139" value="" style="endArrow=none;html=1;rounded=0;exitX=1;exitY=0.5;exitDx=0;exitDy=0;" parent="1" source="O2yFdtKVDfJv69alRwpb-71" edge="1">
          <mxGeometry width="50" height="50" relative="1" as="geometry">
            <mxPoint x="4236" y="705" as="sourcePoint" />
            <mxPoint x="4003" y="592" as="targetPoint" />
          </mxGeometry>
        </mxCell>
        <mxCell id="O2yFdtKVDfJv69alRwpb-280" value="Admin" style="rounded=0;whiteSpace=wrap;html=1;" parent="1" vertex="1">
          <mxGeometry x="4392" y="384.6700000000001" width="120" height="60" as="geometry" />
        </mxCell>
        <mxCell id="O2yFdtKVDfJv69alRwpb-281" value="Student" style="rounded=0;whiteSpace=wrap;html=1;" parent="1" vertex="1">
          <mxGeometry x="4797" y="722" width="120" height="60" as="geometry" />
        </mxCell>
        <mxCell id="O2yFdtKVDfJv69alRwpb-282" value="Course" style="rounded=0;whiteSpace=wrap;html=1;" parent="1" vertex="1">
          <mxGeometry x="4699" y="384.6700000000001" width="120" height="60" as="geometry" />
        </mxCell>
        <mxCell id="O2yFdtKVDfJv69alRwpb-285" value="&lt;u&gt;id&lt;/u&gt;" style="ellipse;whiteSpace=wrap;html=1;" parent="1" vertex="1">
          <mxGeometry x="4218" y="334.6700000000001" width="120" height="80" as="geometry" />
        </mxCell>
        <mxCell id="O2yFdtKVDfJv69alRwpb-286" value="&lt;u&gt;course_id&lt;/u&gt;" style="ellipse;whiteSpace=wrap;html=1;" parent="1" vertex="1">
          <mxGeometry x="4591" y="242" width="120" height="80" as="geometry" />
        </mxCell>
        <mxCell id="O2yFdtKVDfJv69alRwpb-287" value="&lt;u&gt;id&lt;/u&gt;" style="ellipse;whiteSpace=wrap;html=1;" parent="1" vertex="1">
          <mxGeometry x="4392" y="514" width="120" height="80" as="geometry" />
        </mxCell>
        <mxCell id="O2yFdtKVDfJv69alRwpb-288" value="&lt;u&gt;student_id&lt;/u&gt;" style="ellipse;whiteSpace=wrap;html=1;" parent="1" vertex="1">
          <mxGeometry x="4836" y="510" width="120" height="80" as="geometry" />
        </mxCell>
        <mxCell id="O2yFdtKVDfJv69alRwpb-289" value="student_id" style="ellipse;whiteSpace=wrap;html=1;" parent="1" vertex="1">
          <mxGeometry x="4264" y="560.0000000000001" width="120" height="80" as="geometry" />
        </mxCell>
        <mxCell id="O2yFdtKVDfJv69alRwpb-290" value="course_id" style="ellipse;whiteSpace=wrap;html=1;" parent="1" vertex="1">
          <mxGeometry x="4209" y="648" width="120" height="80" as="geometry" />
        </mxCell>
        <mxCell id="O2yFdtKVDfJv69alRwpb-291" value="status" style="ellipse;whiteSpace=wrap;html=1;" parent="1" vertex="1">
          <mxGeometry x="4235" y="894" width="120" height="80" as="geometry" />
        </mxCell>
        <mxCell id="O2yFdtKVDfJv69alRwpb-307" style="edgeStyle=orthogonalEdgeStyle;rounded=0;orthogonalLoop=1;jettySize=auto;html=1;entryX=0.5;entryY=1;entryDx=0;entryDy=0;" parent="1" source="O2yFdtKVDfJv69alRwpb-303" target="O2yFdtKVDfJv69alRwpb-324" edge="1">
          <mxGeometry relative="1" as="geometry" />
        </mxCell>
        <mxCell id="O2yFdtKVDfJv69alRwpb-315" value="n" style="edgeLabel;html=1;align=center;verticalAlign=middle;resizable=0;points=[];" parent="O2yFdtKVDfJv69alRwpb-307" vertex="1" connectable="0">
          <mxGeometry x="-0.1668" relative="1" as="geometry">
            <mxPoint as="offset" />
          </mxGeometry>
        </mxCell>
        <mxCell id="O2yFdtKVDfJv69alRwpb-303" value="có" style="rhombus;whiteSpace=wrap;html=1;" parent="1" vertex="1">
          <mxGeometry x="4530" y="773" width="80" height="80" as="geometry" />
        </mxCell>
        <mxCell id="O2yFdtKVDfJv69alRwpb-308" style="edgeStyle=orthogonalEdgeStyle;rounded=0;orthogonalLoop=1;jettySize=auto;html=1;entryX=1;entryY=0.5;entryDx=0;entryDy=0;" parent="1" source="O2yFdtKVDfJv69alRwpb-306" edge="1">
          <mxGeometry relative="1" as="geometry">
            <mxPoint x="4512" y="709" as="targetPoint" />
            <Array as="points">
              <mxPoint x="4607" y="709" />
            </Array>
          </mxGeometry>
        </mxCell>
        <mxCell id="O2yFdtKVDfJv69alRwpb-314" value="n" style="edgeLabel;html=1;align=center;verticalAlign=middle;resizable=0;points=[];" parent="O2yFdtKVDfJv69alRwpb-308" vertex="1" connectable="0">
          <mxGeometry x="-0.5786" y="2" relative="1" as="geometry">
            <mxPoint as="offset" />
          </mxGeometry>
        </mxCell>
        <mxCell id="O2yFdtKVDfJv69alRwpb-306" value="có" style="rhombus;whiteSpace=wrap;html=1;" parent="1" vertex="1">
          <mxGeometry x="4567" y="522" width="80" height="80" as="geometry" />
        </mxCell>
        <mxCell id="O2yFdtKVDfJv69alRwpb-309" value="" style="endArrow=none;html=1;rounded=0;entryX=0;entryY=1;entryDx=0;entryDy=0;exitX=0.5;exitY=0;exitDx=0;exitDy=0;" parent="1" source="O2yFdtKVDfJv69alRwpb-306" target="O2yFdtKVDfJv69alRwpb-282" edge="1">
          <mxGeometry width="50" height="50" relative="1" as="geometry">
            <mxPoint x="4520" y="556" as="sourcePoint" />
            <mxPoint x="4570" y="506" as="targetPoint" />
          </mxGeometry>
        </mxCell>
        <mxCell id="O2yFdtKVDfJv69alRwpb-311" value="1" style="edgeLabel;html=1;align=center;verticalAlign=middle;resizable=0;points=[];" parent="O2yFdtKVDfJv69alRwpb-309" vertex="1" connectable="0">
          <mxGeometry x="-0.0967" y="2" relative="1" as="geometry">
            <mxPoint as="offset" />
          </mxGeometry>
        </mxCell>
        <mxCell id="O2yFdtKVDfJv69alRwpb-310" value="" style="endArrow=none;html=1;rounded=0;entryX=1;entryY=0.5;entryDx=0;entryDy=0;exitX=0.5;exitY=1;exitDx=0;exitDy=0;" parent="1" source="O2yFdtKVDfJv69alRwpb-281" target="O2yFdtKVDfJv69alRwpb-303" edge="1">
          <mxGeometry width="50" height="50" relative="1" as="geometry">
            <mxPoint x="4624" y="667" as="sourcePoint" />
            <mxPoint x="4674" y="617" as="targetPoint" />
          </mxGeometry>
        </mxCell>
        <mxCell id="O2yFdtKVDfJv69alRwpb-316" value="1" style="edgeLabel;html=1;align=center;verticalAlign=middle;resizable=0;points=[];" parent="O2yFdtKVDfJv69alRwpb-310" vertex="1" connectable="0">
          <mxGeometry x="0.0977" y="-1" relative="1" as="geometry">
            <mxPoint as="offset" />
          </mxGeometry>
        </mxCell>
        <mxCell id="O2yFdtKVDfJv69alRwpb-317" value="" style="endArrow=none;html=1;rounded=0;entryX=1;entryY=0.5;entryDx=0;entryDy=0;exitX=0;exitY=0.5;exitDx=0;exitDy=0;" parent="1" source="O2yFdtKVDfJv69alRwpb-280" target="O2yFdtKVDfJv69alRwpb-285" edge="1">
          <mxGeometry width="50" height="50" relative="1" as="geometry">
            <mxPoint x="4261" y="564" as="sourcePoint" />
            <mxPoint x="4311" y="514" as="targetPoint" />
          </mxGeometry>
        </mxCell>
        <mxCell id="O2yFdtKVDfJv69alRwpb-318" value="" style="endArrow=none;html=1;rounded=0;entryX=0.5;entryY=1;entryDx=0;entryDy=0;exitX=0;exitY=0.25;exitDx=0;exitDy=0;" parent="1" target="O2yFdtKVDfJv69alRwpb-287" edge="1">
          <mxGeometry width="50" height="50" relative="1" as="geometry">
            <mxPoint x="4392" y="694" as="sourcePoint" />
            <mxPoint x="4348" y="385" as="targetPoint" />
          </mxGeometry>
        </mxCell>
        <mxCell id="O2yFdtKVDfJv69alRwpb-319" value="" style="endArrow=none;html=1;rounded=0;exitX=1;exitY=0.5;exitDx=0;exitDy=0;entryX=0;entryY=0.5;entryDx=0;entryDy=0;" parent="1" source="O2yFdtKVDfJv69alRwpb-289" target="O2yFdtKVDfJv69alRwpb-324" edge="1">
          <mxGeometry width="50" height="50" relative="1" as="geometry">
            <mxPoint x="4385" y="821" as="sourcePoint" />
            <mxPoint x="4392" y="739" as="targetPoint" />
          </mxGeometry>
        </mxCell>
        <mxCell id="O2yFdtKVDfJv69alRwpb-320" value="" style="endArrow=none;html=1;rounded=0;exitX=1;exitY=1;exitDx=0;exitDy=0;entryX=0;entryY=0.75;entryDx=0;entryDy=0;" parent="1" source="O2yFdtKVDfJv69alRwpb-290" target="O2yFdtKVDfJv69alRwpb-324" edge="1">
          <mxGeometry width="50" height="50" relative="1" as="geometry">
            <mxPoint x="4375" y="795" as="sourcePoint" />
            <mxPoint x="4452" y="739" as="targetPoint" />
          </mxGeometry>
        </mxCell>
        <mxCell id="O2yFdtKVDfJv69alRwpb-321" value="" style="endArrow=none;html=1;rounded=0;exitX=0.5;exitY=0;exitDx=0;exitDy=0;entryX=0;entryY=1;entryDx=0;entryDy=0;" parent="1" source="O2yFdtKVDfJv69alRwpb-291" target="O2yFdtKVDfJv69alRwpb-324" edge="1">
          <mxGeometry width="50" height="50" relative="1" as="geometry">
            <mxPoint x="4385" y="805" as="sourcePoint" />
            <mxPoint x="4482" y="739" as="targetPoint" />
          </mxGeometry>
        </mxCell>
        <mxCell id="O2yFdtKVDfJv69alRwpb-322" value="" style="endArrow=none;html=1;rounded=0;exitX=0.5;exitY=1;exitDx=0;exitDy=0;entryX=1;entryY=0;entryDx=0;entryDy=0;" parent="1" source="O2yFdtKVDfJv69alRwpb-288" target="O2yFdtKVDfJv69alRwpb-281" edge="1">
          <mxGeometry width="50" height="50" relative="1" as="geometry">
            <mxPoint x="4395" y="815" as="sourcePoint" />
            <mxPoint x="4422" y="769" as="targetPoint" />
          </mxGeometry>
        </mxCell>
        <mxCell id="O2yFdtKVDfJv69alRwpb-323" value="" style="endArrow=none;html=1;rounded=0;entryX=0.5;entryY=1;entryDx=0;entryDy=0;exitX=0.5;exitY=0;exitDx=0;exitDy=0;" parent="1" source="O2yFdtKVDfJv69alRwpb-282" target="O2yFdtKVDfJv69alRwpb-286" edge="1">
          <mxGeometry width="50" height="50" relative="1" as="geometry">
            <mxPoint x="4820" y="539" as="sourcePoint" />
            <mxPoint x="4870" y="489" as="targetPoint" />
          </mxGeometry>
        </mxCell>
        <mxCell id="O2yFdtKVDfJv69alRwpb-324" value="" style="rounded=0;whiteSpace=wrap;html=1;" parent="1" vertex="1">
          <mxGeometry x="4392" y="681" width="120" height="60" as="geometry" />
        </mxCell>
        <mxCell id="O2yFdtKVDfJv69alRwpb-325" value="Enrollment" style="rounded=0;whiteSpace=wrap;html=1;" parent="1" vertex="1">
          <mxGeometry x="4401.5" y="686.5" width="101" height="49" as="geometry" />
        </mxCell>
        <mxCell id="M9w1dwyrhwupKzDS5G9y-1" value="&lt;b&gt;presentation&lt;/b&gt;" style="html=1;whiteSpace=wrap;verticalAlign=top;" vertex="1" parent="1">
          <mxGeometry x="2704" y="2189" width="609" height="937" as="geometry" />
        </mxCell>
        <mxCell id="M9w1dwyrhwupKzDS5G9y-2" value="AdminUI" style="swimlane;fontStyle=1;align=center;verticalAlign=top;childLayout=stackLayout;horizontal=1;startSize=26;horizontalStack=0;resizeParent=1;resizeParentMax=0;resizeLast=0;collapsible=1;marginBottom=0;whiteSpace=wrap;html=1;" vertex="1" parent="1">
          <mxGeometry x="2754" y="2234" width="160" height="60" as="geometry" />
        </mxCell>
        <mxCell id="M9w1dwyrhwupKzDS5G9y-3" value="" style="line;strokeWidth=1;fillColor=none;align=left;verticalAlign=middle;spacingTop=-1;spacingLeft=3;spacingRight=3;rotatable=0;labelPosition=right;points=[];portConstraint=eastwest;strokeColor=inherit;" vertex="1" parent="M9w1dwyrhwupKzDS5G9y-2">
          <mxGeometry y="26" width="160" height="8" as="geometry" />
        </mxCell>
        <mxCell id="M9w1dwyrhwupKzDS5G9y-4" value="+ displayMenuAdmin(): void" style="text;strokeColor=none;fillColor=none;align=left;verticalAlign=top;spacingLeft=4;spacingRight=4;overflow=hidden;rotatable=0;points=[[0,0.5],[1,0.5]];portConstraint=eastwest;whiteSpace=wrap;html=1;" vertex="1" parent="M9w1dwyrhwupKzDS5G9y-2">
          <mxGeometry y="34" width="160" height="26" as="geometry" />
        </mxCell>
        <mxCell id="M9w1dwyrhwupKzDS5G9y-5" style="edgeStyle=orthogonalEdgeStyle;rounded=0;orthogonalLoop=1;jettySize=auto;html=1;entryX=0.5;entryY=0;entryDx=0;entryDy=0;" edge="1" parent="1" source="M9w1dwyrhwupKzDS5G9y-6" target="M9w1dwyrhwupKzDS5G9y-114">
          <mxGeometry relative="1" as="geometry">
            <Array as="points">
              <mxPoint x="3098" y="2099" />
              <mxPoint x="2377" y="2099" />
              <mxPoint x="2377" y="3418" />
              <mxPoint x="2759" y="3418" />
            </Array>
          </mxGeometry>
        </mxCell>
        <mxCell id="M9w1dwyrhwupKzDS5G9y-6" value="LoginUI" style="swimlane;fontStyle=1;align=center;verticalAlign=top;childLayout=stackLayout;horizontal=1;startSize=26;horizontalStack=0;resizeParent=1;resizeParentMax=0;resizeLast=0;collapsible=1;marginBottom=0;whiteSpace=wrap;html=1;" vertex="1" parent="1">
          <mxGeometry x="3018" y="2237" width="160" height="70" as="geometry" />
        </mxCell>
        <mxCell id="M9w1dwyrhwupKzDS5G9y-7" value="" style="line;strokeWidth=1;fillColor=none;align=left;verticalAlign=middle;spacingTop=-1;spacingLeft=3;spacingRight=3;rotatable=0;labelPosition=right;points=[];portConstraint=eastwest;strokeColor=inherit;" vertex="1" parent="M9w1dwyrhwupKzDS5G9y-6">
          <mxGeometry y="26" width="160" height="8" as="geometry" />
        </mxCell>
        <mxCell id="M9w1dwyrhwupKzDS5G9y-8" value="+ login(role: int): void" style="text;strokeColor=none;fillColor=none;align=left;verticalAlign=top;spacingLeft=4;spacingRight=4;overflow=hidden;rotatable=0;points=[[0,0.5],[1,0.5]];portConstraint=eastwest;whiteSpace=wrap;html=1;" vertex="1" parent="M9w1dwyrhwupKzDS5G9y-6">
          <mxGeometry y="34" width="160" height="36" as="geometry" />
        </mxCell>
        <mxCell id="M9w1dwyrhwupKzDS5G9y-9" value="&lt;b&gt;business&lt;/b&gt;" style="html=1;whiteSpace=wrap;verticalAlign=top;" vertex="1" parent="1">
          <mxGeometry x="3544" y="1797" width="2527" height="1990" as="geometry" />
        </mxCell>
        <mxCell id="M9w1dwyrhwupKzDS5G9y-10" value="&lt;b&gt;service&lt;/b&gt;" style="html=1;whiteSpace=wrap;verticalAlign=top;" vertex="1" parent="1">
          <mxGeometry x="3581" y="1909" width="870" height="1799" as="geometry" />
        </mxCell>
        <mxCell id="M9w1dwyrhwupKzDS5G9y-11" value="IAuthService" style="swimlane;fontStyle=1;align=center;verticalAlign=top;childLayout=stackLayout;horizontal=1;startSize=26;horizontalStack=0;resizeParent=1;resizeParentMax=0;resizeLast=0;collapsible=1;marginBottom=0;whiteSpace=wrap;html=1;" vertex="1" parent="1">
          <mxGeometry x="3601" y="1939" width="350" height="100" as="geometry" />
        </mxCell>
        <mxCell id="M9w1dwyrhwupKzDS5G9y-12" value="" style="line;strokeWidth=1;fillColor=none;align=left;verticalAlign=middle;spacingTop=-1;spacingLeft=3;spacingRight=3;rotatable=0;labelPosition=right;points=[];portConstraint=eastwest;strokeColor=inherit;" vertex="1" parent="M9w1dwyrhwupKzDS5G9y-11">
          <mxGeometry y="26" width="350" height="8" as="geometry" />
        </mxCell>
        <mxCell id="M9w1dwyrhwupKzDS5G9y-13" value="&lt;div&gt;+ login(username: String, password: String): Object&lt;/div&gt;&lt;div&gt;+ registerStudent(student: Student): boolean&lt;/div&gt;&lt;div&gt;+ isStudentDeactivated(email: String): boolean&lt;/div&gt;" style="text;strokeColor=none;fillColor=none;align=left;verticalAlign=top;spacingLeft=4;spacingRight=4;overflow=hidden;rotatable=0;points=[[0,0.5],[1,0.5]];portConstraint=eastwest;whiteSpace=wrap;html=1;" vertex="1" parent="M9w1dwyrhwupKzDS5G9y-11">
          <mxGeometry y="34" width="350" height="66" as="geometry" />
        </mxCell>
        <mxCell id="M9w1dwyrhwupKzDS5G9y-14" value="&lt;i&gt;ICourseService&lt;/i&gt;" style="swimlane;fontStyle=1;align=center;verticalAlign=top;childLayout=stackLayout;horizontal=1;startSize=26;horizontalStack=0;resizeParent=1;resizeParentMax=0;resizeLast=0;collapsible=1;marginBottom=0;whiteSpace=wrap;html=1;" vertex="1" parent="1">
          <mxGeometry x="3598" y="2075.5" width="350" height="216" as="geometry" />
        </mxCell>
        <mxCell id="M9w1dwyrhwupKzDS5G9y-15" value="" style="line;strokeWidth=1;fillColor=none;align=left;verticalAlign=middle;spacingTop=-1;spacingLeft=3;spacingRight=3;rotatable=0;labelPosition=right;points=[];portConstraint=eastwest;strokeColor=inherit;" vertex="1" parent="M9w1dwyrhwupKzDS5G9y-14">
          <mxGeometry y="26" width="350" height="8" as="geometry" />
        </mxCell>
        <mxCell id="M9w1dwyrhwupKzDS5G9y-16" value="&lt;div&gt;+ getCoursesByPage(page: int): List&amp;lt;Course&amp;gt;&lt;/div&gt;&lt;div&gt;+ addCourse(course: Course): boolean&lt;/div&gt;&lt;div&gt;+ updateCourse(course: Course): boolean&lt;/div&gt;&lt;div&gt;+ findCourseById(id: int): Course&lt;/div&gt;&lt;div&gt;+ deleteCourseById(id: int): boolean&lt;/div&gt;&lt;div&gt;+ searchByName(name: String, page: int): List&amp;lt;Course&amp;gt;&lt;/div&gt;&lt;div&gt;+ sortByField(field: String, order: String, page: int): List&amp;lt;Course&amp;gt;&lt;/div&gt;&lt;div&gt;+ countCourses(): int&lt;/div&gt;&lt;div&gt;+ countCoursesByName(name: String): int&lt;/div&gt;&lt;div&gt;+ existsByName(name: String): boolean&lt;/div&gt;&lt;div&gt;+ existsByNameExceptId(name: String, courseId: int): boolean&lt;/div&gt;" style="text;strokeColor=none;fillColor=none;align=left;verticalAlign=top;spacingLeft=4;spacingRight=4;overflow=hidden;rotatable=0;points=[[0,0.5],[1,0.5]];portConstraint=eastwest;whiteSpace=wrap;html=1;" vertex="1" parent="M9w1dwyrhwupKzDS5G9y-14">
          <mxGeometry y="34" width="350" height="182" as="geometry" />
        </mxCell>
        <mxCell id="M9w1dwyrhwupKzDS5G9y-17" value="&lt;i&gt;IEnrollmentService&lt;/i&gt;" style="swimlane;fontStyle=1;align=center;verticalAlign=top;childLayout=stackLayout;horizontal=1;startSize=26;horizontalStack=0;resizeParent=1;resizeParentMax=0;resizeLast=0;collapsible=1;marginBottom=0;whiteSpace=wrap;html=1;" vertex="1" parent="1">
          <mxGeometry x="3594" y="2302" width="350" height="178" as="geometry" />
        </mxCell>
        <mxCell id="M9w1dwyrhwupKzDS5G9y-18" value="" style="line;strokeWidth=1;fillColor=none;align=left;verticalAlign=middle;spacingTop=-1;spacingLeft=3;spacingRight=3;rotatable=0;labelPosition=right;points=[];portConstraint=eastwest;strokeColor=inherit;" vertex="1" parent="M9w1dwyrhwupKzDS5G9y-17">
          <mxGeometry y="26" width="350" height="8" as="geometry" />
        </mxCell>
        <mxCell id="M9w1dwyrhwupKzDS5G9y-19" value="&lt;div&gt;+ getConfirmedEnrollmentsByCourse(courseId: int, page: int): List&amp;lt;Enrollment&amp;gt;&lt;/div&gt;&lt;div&gt;+ countConfirmedEnrollmentsByCourse(courseId: int): int&lt;/div&gt;&lt;div&gt;+ getDeniedCancelEnrollmentsByCourse(courseId: int, page: int): List&amp;lt;Enrollment&amp;gt;&lt;/div&gt;&lt;div&gt;+ countDeniedCancelEnrollmentsByCourse(courseId: int): int&lt;/div&gt;&lt;div&gt;+ getPendingEnrollments(): List&amp;lt;Enrollment&amp;gt;&lt;/div&gt;&lt;div&gt;+ approveEnrollment(enrollmentId: int, action: String): boolean&lt;/div&gt;&lt;div&gt;+ deleteEnrollment(courseId: int, studentId: int): boolean&lt;/div&gt;" style="text;strokeColor=none;fillColor=none;align=left;verticalAlign=top;spacingLeft=4;spacingRight=4;overflow=hidden;rotatable=0;points=[[0,0.5],[1,0.5]];portConstraint=eastwest;whiteSpace=wrap;html=1;" vertex="1" parent="M9w1dwyrhwupKzDS5G9y-17">
          <mxGeometry y="34" width="350" height="144" as="geometry" />
        </mxCell>
        <mxCell id="M9w1dwyrhwupKzDS5G9y-20" value="&lt;i&gt;IS&lt;/i&gt;tatisticService" style="swimlane;fontStyle=1;align=center;verticalAlign=top;childLayout=stackLayout;horizontal=1;startSize=26;horizontalStack=0;resizeParent=1;resizeParentMax=0;resizeLast=0;collapsible=1;marginBottom=0;whiteSpace=wrap;html=1;" vertex="1" parent="1">
          <mxGeometry x="3594" y="2541" width="350" height="114" as="geometry" />
        </mxCell>
        <mxCell id="M9w1dwyrhwupKzDS5G9y-21" value="" style="line;strokeWidth=1;fillColor=none;align=left;verticalAlign=middle;spacingTop=-1;spacingLeft=3;spacingRight=3;rotatable=0;labelPosition=right;points=[];portConstraint=eastwest;strokeColor=inherit;" vertex="1" parent="M9w1dwyrhwupKzDS5G9y-20">
          <mxGeometry y="26" width="350" height="8" as="geometry" />
        </mxCell>
        <mxCell id="M9w1dwyrhwupKzDS5G9y-22" value="&lt;div&gt;+ getTotalCoursesAndStudents(): Map&amp;lt;String, Integer&amp;gt;&lt;/div&gt;&lt;div&gt;+ getStudentsPerCourse(): List&amp;lt;Map&amp;lt;String, Object&amp;gt;&amp;gt;&lt;/div&gt;&lt;div&gt;+ getTop5CoursesByStudents(): List&amp;lt;Map&amp;lt;String, Object&amp;gt;&amp;gt;&lt;/div&gt;&lt;div&gt;+ getCoursesWithMoreThan10Students(): List&amp;lt;Map&amp;lt;String, Object&amp;gt;&amp;gt;&lt;/div&gt;" style="text;strokeColor=none;fillColor=none;align=left;verticalAlign=top;spacingLeft=4;spacingRight=4;overflow=hidden;rotatable=0;points=[[0,0.5],[1,0.5]];portConstraint=eastwest;whiteSpace=wrap;html=1;" vertex="1" parent="M9w1dwyrhwupKzDS5G9y-20">
          <mxGeometry y="34" width="350" height="80" as="geometry" />
        </mxCell>
        <mxCell id="M9w1dwyrhwupKzDS5G9y-23" value="&lt;i&gt;IStudentService&lt;/i&gt;" style="swimlane;fontStyle=1;align=center;verticalAlign=top;childLayout=stackLayout;horizontal=1;startSize=26;horizontalStack=0;resizeParent=1;resizeParentMax=0;resizeLast=0;collapsible=1;marginBottom=0;whiteSpace=wrap;html=1;" vertex="1" parent="1">
          <mxGeometry x="3594" y="2693" width="350" height="218" as="geometry" />
        </mxCell>
        <mxCell id="M9w1dwyrhwupKzDS5G9y-24" value="" style="line;strokeWidth=1;fillColor=none;align=left;verticalAlign=middle;spacingTop=-1;spacingLeft=3;spacingRight=3;rotatable=0;labelPosition=right;points=[];portConstraint=eastwest;strokeColor=inherit;" vertex="1" parent="M9w1dwyrhwupKzDS5G9y-23">
          <mxGeometry y="26" width="350" height="8" as="geometry" />
        </mxCell>
        <mxCell id="M9w1dwyrhwupKzDS5G9y-25" value="&lt;div&gt;+ getStudentsByPage(page: int): List&amp;lt;Student&amp;gt;&lt;/div&gt;&lt;div&gt;+ findStudentById(id: int): Student&lt;/div&gt;&lt;div&gt;+ disableStudentById(id: int): boolean&lt;/div&gt;&lt;div&gt;+ searchByNameEmailId(searchValue: String, page: int): List&amp;lt;Student&amp;gt;&lt;/div&gt;&lt;div&gt;+ sortByField(field: String, order: String, page: int): List&amp;lt;Student&amp;gt;&lt;/div&gt;&lt;div&gt;+ countStudents(): int&lt;/div&gt;&lt;div&gt;+ countStudentsByNameEmailId(searchValue: String): int&lt;/div&gt;&lt;div&gt;+ updatePassword(studentId: int, newPassword: String): boolean&lt;/div&gt;&lt;div&gt;+ checkEmailExists(email: String, studentId: int): boolean&lt;/div&gt;" style="text;strokeColor=none;fillColor=none;align=left;verticalAlign=top;spacingLeft=4;spacingRight=4;overflow=hidden;rotatable=0;points=[[0,0.5],[1,0.5]];portConstraint=eastwest;whiteSpace=wrap;html=1;" vertex="1" parent="M9w1dwyrhwupKzDS5G9y-23">
          <mxGeometry y="34" width="350" height="184" as="geometry" />
        </mxCell>
        <mxCell id="M9w1dwyrhwupKzDS5G9y-26" value="AuthServiceImp" style="swimlane;fontStyle=1;align=center;verticalAlign=top;childLayout=stackLayout;horizontal=1;startSize=26;horizontalStack=0;resizeParent=1;resizeParentMax=0;resizeLast=0;collapsible=1;marginBottom=0;whiteSpace=wrap;html=1;" vertex="1" parent="1">
          <mxGeometry x="4071" y="1939" width="370" height="114" as="geometry" />
        </mxCell>
        <mxCell id="M9w1dwyrhwupKzDS5G9y-27" value="&lt;div&gt;- authDAO: AuthDao&lt;/div&gt;&lt;div&gt;&lt;br&gt;&lt;/div&gt;" style="text;strokeColor=none;fillColor=none;align=left;verticalAlign=top;spacingLeft=4;spacingRight=4;overflow=hidden;rotatable=0;points=[[0,0.5],[1,0.5]];portConstraint=eastwest;whiteSpace=wrap;html=1;" vertex="1" parent="M9w1dwyrhwupKzDS5G9y-26">
          <mxGeometry y="26" width="370" height="25" as="geometry" />
        </mxCell>
        <mxCell id="M9w1dwyrhwupKzDS5G9y-28" value="" style="line;strokeWidth=1;fillColor=none;align=left;verticalAlign=middle;spacingTop=-1;spacingLeft=3;spacingRight=3;rotatable=0;labelPosition=right;points=[];portConstraint=eastwest;strokeColor=inherit;" vertex="1" parent="M9w1dwyrhwupKzDS5G9y-26">
          <mxGeometry y="51" width="370" height="8" as="geometry" />
        </mxCell>
        <mxCell id="M9w1dwyrhwupKzDS5G9y-29" value="&lt;div&gt;+ login(username: String, password: String): Object&lt;/div&gt;&lt;div&gt;+ registerStudent(student: Student): boolean&lt;/div&gt;&lt;div&gt;+ isStudentDeactivated(email: String): boolean&lt;/div&gt;" style="text;strokeColor=none;fillColor=none;align=left;verticalAlign=top;spacingLeft=4;spacingRight=4;overflow=hidden;rotatable=0;points=[[0,0.5],[1,0.5]];portConstraint=eastwest;whiteSpace=wrap;html=1;" vertex="1" parent="M9w1dwyrhwupKzDS5G9y-26">
          <mxGeometry y="59" width="370" height="55" as="geometry" />
        </mxCell>
        <mxCell id="M9w1dwyrhwupKzDS5G9y-30" value="CourseServiceImp" style="swimlane;fontStyle=1;align=center;verticalAlign=top;childLayout=stackLayout;horizontal=1;startSize=26;horizontalStack=0;resizeParent=1;resizeParentMax=0;resizeLast=0;collapsible=1;marginBottom=0;whiteSpace=wrap;html=1;" vertex="1" parent="1">
          <mxGeometry x="4071" y="2066" width="370" height="227" as="geometry" />
        </mxCell>
        <mxCell id="M9w1dwyrhwupKzDS5G9y-31" value="- courseDao: CourseDao" style="text;strokeColor=none;fillColor=none;align=left;verticalAlign=top;spacingLeft=4;spacingRight=4;overflow=hidden;rotatable=0;points=[[0,0.5],[1,0.5]];portConstraint=eastwest;whiteSpace=wrap;html=1;" vertex="1" parent="M9w1dwyrhwupKzDS5G9y-30">
          <mxGeometry y="26" width="370" height="26" as="geometry" />
        </mxCell>
        <mxCell id="M9w1dwyrhwupKzDS5G9y-32" value="" style="line;strokeWidth=1;fillColor=none;align=left;verticalAlign=middle;spacingTop=-1;spacingLeft=3;spacingRight=3;rotatable=0;labelPosition=right;points=[];portConstraint=eastwest;strokeColor=inherit;" vertex="1" parent="M9w1dwyrhwupKzDS5G9y-30">
          <mxGeometry y="52" width="370" height="8" as="geometry" />
        </mxCell>
        <mxCell id="M9w1dwyrhwupKzDS5G9y-33" value="&lt;div&gt;+ getCoursesByPage(page: int): List&amp;lt;Course&amp;gt;&lt;/div&gt;&lt;div&gt;+ addCourse(course: Course): boolean&lt;/div&gt;&lt;div&gt;+ updateCourse(course: Course): boolean&lt;/div&gt;&lt;div&gt;+ findCourseById(id: int): Course&lt;/div&gt;&lt;div&gt;+ deleteCourseById(id: int): boolean&lt;/div&gt;&lt;div&gt;+ searchByName(name: String, page: int): List&amp;lt;Course&amp;gt;&lt;/div&gt;&lt;div&gt;+ sortByField(field: String, order: String, page: int): List&amp;lt;Course&amp;gt;&lt;/div&gt;&lt;div&gt;+ countCourses(): int&lt;/div&gt;&lt;div&gt;+ countCoursesByName(name: String): int&lt;/div&gt;&lt;div&gt;+ existsByName(name: String): boolean&lt;/div&gt;&lt;div&gt;+ existsByNameExceptId(name: String, courseId: int): boolean&lt;/div&gt;" style="text;strokeColor=none;fillColor=none;align=left;verticalAlign=top;spacingLeft=4;spacingRight=4;overflow=hidden;rotatable=0;points=[[0,0.5],[1,0.5]];portConstraint=eastwest;whiteSpace=wrap;html=1;" vertex="1" parent="M9w1dwyrhwupKzDS5G9y-30">
          <mxGeometry y="60" width="370" height="167" as="geometry" />
        </mxCell>
        <mxCell id="M9w1dwyrhwupKzDS5G9y-34" value="StudentServiceImp&amp;nbsp;" style="swimlane;fontStyle=1;align=center;verticalAlign=top;childLayout=stackLayout;horizontal=1;startSize=26;horizontalStack=0;resizeParent=1;resizeParentMax=0;resizeLast=0;collapsible=1;marginBottom=0;whiteSpace=wrap;html=1;" vertex="1" parent="1">
          <mxGeometry x="4071" y="2734" width="370" height="273" as="geometry" />
        </mxCell>
        <mxCell id="M9w1dwyrhwupKzDS5G9y-35" value="- studentDao: StudentDao" style="text;strokeColor=none;fillColor=none;align=left;verticalAlign=top;spacingLeft=4;spacingRight=4;overflow=hidden;rotatable=0;points=[[0,0.5],[1,0.5]];portConstraint=eastwest;whiteSpace=wrap;html=1;" vertex="1" parent="M9w1dwyrhwupKzDS5G9y-34">
          <mxGeometry y="26" width="370" height="26" as="geometry" />
        </mxCell>
        <mxCell id="M9w1dwyrhwupKzDS5G9y-36" value="" style="line;strokeWidth=1;fillColor=none;align=left;verticalAlign=middle;spacingTop=-1;spacingLeft=3;spacingRight=3;rotatable=0;labelPosition=right;points=[];portConstraint=eastwest;strokeColor=inherit;" vertex="1" parent="M9w1dwyrhwupKzDS5G9y-34">
          <mxGeometry y="52" width="370" height="8" as="geometry" />
        </mxCell>
        <mxCell id="M9w1dwyrhwupKzDS5G9y-37" value="&lt;div&gt;+ findAll(): List&amp;lt;Student&amp;gt;&lt;/div&gt;&lt;div&gt;+ save(student: Student): boolean&lt;/div&gt;&lt;div&gt;+ update(student: Student): boolean&lt;/div&gt;&lt;div&gt;+ delete(student: Student): boolean&lt;/div&gt;&lt;div&gt;+ getStudentsByPage(page: int): List&amp;lt;Student&amp;gt;&lt;/div&gt;&lt;div&gt;+ findStudentById(id: int): Student&lt;/div&gt;&lt;div&gt;+ disableStudentById(id: int): boolean&lt;/div&gt;&lt;div&gt;+ searchByNameEmailId(searchValue: String, page: int): List&amp;lt;Student&amp;gt;&lt;/div&gt;&lt;div&gt;+ sortByField(field: String, order: String, page: int): List&amp;lt;Student&amp;gt;&lt;/div&gt;&lt;div&gt;+ countStudents(): int&lt;/div&gt;&lt;div&gt;+ countStudentsByNameEmailId(searchValue: String): int&lt;/div&gt;&lt;div&gt;+ updatePassword(studentId: int, newPassword: String): boolean&lt;/div&gt;&lt;div&gt;+ checkEmailExists(email: String, studentId: int): boolean&lt;/div&gt;" style="text;strokeColor=none;fillColor=none;align=left;verticalAlign=top;spacingLeft=4;spacingRight=4;overflow=hidden;rotatable=0;points=[[0,0.5],[1,0.5]];portConstraint=eastwest;whiteSpace=wrap;html=1;" vertex="1" parent="M9w1dwyrhwupKzDS5G9y-34">
          <mxGeometry y="60" width="370" height="213" as="geometry" />
        </mxCell>
        <mxCell id="M9w1dwyrhwupKzDS5G9y-38" value="EnrollmentServiceImp" style="swimlane;fontStyle=1;align=center;verticalAlign=top;childLayout=stackLayout;horizontal=1;startSize=26;horizontalStack=0;resizeParent=1;resizeParentMax=0;resizeLast=0;collapsible=1;marginBottom=0;whiteSpace=wrap;html=1;" vertex="1" parent="1">
          <mxGeometry x="4071" y="2302" width="370" height="259" as="geometry" />
        </mxCell>
        <mxCell id="M9w1dwyrhwupKzDS5G9y-39" value="- enrollmentDao: EnrollmentDAO" style="text;strokeColor=none;fillColor=none;align=left;verticalAlign=top;spacingLeft=4;spacingRight=4;overflow=hidden;rotatable=0;points=[[0,0.5],[1,0.5]];portConstraint=eastwest;whiteSpace=wrap;html=1;" vertex="1" parent="M9w1dwyrhwupKzDS5G9y-38">
          <mxGeometry y="26" width="370" height="26" as="geometry" />
        </mxCell>
        <mxCell id="M9w1dwyrhwupKzDS5G9y-40" value="" style="line;strokeWidth=1;fillColor=none;align=left;verticalAlign=middle;spacingTop=-1;spacingLeft=3;spacingRight=3;rotatable=0;labelPosition=right;points=[];portConstraint=eastwest;strokeColor=inherit;" vertex="1" parent="M9w1dwyrhwupKzDS5G9y-38">
          <mxGeometry y="52" width="370" height="8" as="geometry" />
        </mxCell>
        <mxCell id="M9w1dwyrhwupKzDS5G9y-41" value="&lt;div&gt;+ findAll(): List&amp;lt;Enrollment&amp;gt;&lt;/div&gt;&lt;div&gt;+ save(enrollment: Enrollment): boolean&lt;/div&gt;&lt;div&gt;+ update(enrollment: Enrollment): boolean&lt;/div&gt;&lt;div&gt;+ delete(enrollment: Enrollment): boolean&lt;/div&gt;&lt;div&gt;+ getConfirmedEnrollmentsByCourse(courseId: int, page: int): List&amp;lt;Enrollment&amp;gt;&lt;/div&gt;&lt;div&gt;+ countConfirmedEnrollmentsByCourse(courseId: int): int&lt;/div&gt;&lt;div&gt;+ getDeniedCancelEnrollmentsByCourse(courseId: int, page: int): List&amp;lt;Enrollment&amp;gt;&lt;/div&gt;&lt;div&gt;+ countDeniedCancelEnrollmentsByCourse(courseId: int): int&lt;/div&gt;&lt;div&gt;+ getPendingEnrollments(): List&amp;lt;Enrollment&amp;gt;&lt;/div&gt;&lt;div&gt;+ approveEnrollment(enrollmentId: int, action: String): boolean&lt;/div&gt;&lt;div&gt;+ deleteEnrollment(courseId: int, studentId: int): boolean&lt;/div&gt;" style="text;strokeColor=none;fillColor=none;align=left;verticalAlign=top;spacingLeft=4;spacingRight=4;overflow=hidden;rotatable=0;points=[[0,0.5],[1,0.5]];portConstraint=eastwest;whiteSpace=wrap;html=1;" vertex="1" parent="M9w1dwyrhwupKzDS5G9y-38">
          <mxGeometry y="60" width="370" height="199" as="geometry" />
        </mxCell>
        <mxCell id="M9w1dwyrhwupKzDS5G9y-42" value="StatisticServiceImp" style="swimlane;fontStyle=1;align=center;verticalAlign=top;childLayout=stackLayout;horizontal=1;startSize=26;horizontalStack=0;resizeParent=1;resizeParentMax=0;resizeLast=0;collapsible=1;marginBottom=0;whiteSpace=wrap;html=1;" vertex="1" parent="1">
          <mxGeometry x="4071" y="2580" width="370" height="143" as="geometry" />
        </mxCell>
        <mxCell id="M9w1dwyrhwupKzDS5G9y-43" value="- statisticDao: StatisticDao" style="text;strokeColor=none;fillColor=none;align=left;verticalAlign=top;spacingLeft=4;spacingRight=4;overflow=hidden;rotatable=0;points=[[0,0.5],[1,0.5]];portConstraint=eastwest;whiteSpace=wrap;html=1;" vertex="1" parent="M9w1dwyrhwupKzDS5G9y-42">
          <mxGeometry y="26" width="370" height="26" as="geometry" />
        </mxCell>
        <mxCell id="M9w1dwyrhwupKzDS5G9y-44" value="" style="line;strokeWidth=1;fillColor=none;align=left;verticalAlign=middle;spacingTop=-1;spacingLeft=3;spacingRight=3;rotatable=0;labelPosition=right;points=[];portConstraint=eastwest;strokeColor=inherit;" vertex="1" parent="M9w1dwyrhwupKzDS5G9y-42">
          <mxGeometry y="52" width="370" height="8" as="geometry" />
        </mxCell>
        <mxCell id="M9w1dwyrhwupKzDS5G9y-45" value="&lt;div&gt;+ getTotalCoursesAndStudents(): Map&amp;lt;String, Integer&amp;gt;&lt;/div&gt;&lt;div&gt;+ getStudentsPerCourse(): List&amp;lt;Map&amp;lt;String, Object&amp;gt;&amp;gt;&lt;/div&gt;&lt;div&gt;+ getTop5CoursesByStudents(): List&amp;lt;Map&amp;lt;String, Object&amp;gt;&amp;gt;&lt;/div&gt;&lt;div&gt;+ getCoursesWithMoreThan10Students(): List&amp;lt;Map&amp;lt;String, Object&amp;gt;&amp;gt;&lt;/div&gt;" style="text;strokeColor=none;fillColor=none;align=left;verticalAlign=top;spacingLeft=4;spacingRight=4;overflow=hidden;rotatable=0;points=[[0,0.5],[1,0.5]];portConstraint=eastwest;whiteSpace=wrap;html=1;" vertex="1" parent="M9w1dwyrhwupKzDS5G9y-42">
          <mxGeometry y="60" width="370" height="83" as="geometry" />
        </mxCell>
        <mxCell id="M9w1dwyrhwupKzDS5G9y-46" value="" style="endArrow=block;dashed=1;endFill=0;endSize=12;html=1;rounded=0;" edge="1" parent="1" source="M9w1dwyrhwupKzDS5G9y-26" target="M9w1dwyrhwupKzDS5G9y-11">
          <mxGeometry width="160" relative="1" as="geometry">
            <mxPoint x="3821" y="2139" as="sourcePoint" />
            <mxPoint x="3981" y="2139" as="targetPoint" />
          </mxGeometry>
        </mxCell>
        <mxCell id="M9w1dwyrhwupKzDS5G9y-47" value="" style="endArrow=block;dashed=1;endFill=0;endSize=12;html=1;rounded=0;" edge="1" parent="1" source="M9w1dwyrhwupKzDS5G9y-30" target="M9w1dwyrhwupKzDS5G9y-14">
          <mxGeometry width="160" relative="1" as="geometry">
            <mxPoint x="4081" y="2017" as="sourcePoint" />
            <mxPoint x="3961" y="2010" as="targetPoint" />
          </mxGeometry>
        </mxCell>
        <mxCell id="M9w1dwyrhwupKzDS5G9y-48" value="" style="endArrow=block;dashed=1;endFill=0;endSize=12;html=1;rounded=0;" edge="1" parent="1" source="M9w1dwyrhwupKzDS5G9y-38" target="M9w1dwyrhwupKzDS5G9y-17">
          <mxGeometry width="160" relative="1" as="geometry">
            <mxPoint x="4091" y="2027" as="sourcePoint" />
            <mxPoint x="3971" y="2020" as="targetPoint" />
          </mxGeometry>
        </mxCell>
        <mxCell id="M9w1dwyrhwupKzDS5G9y-49" value="" style="endArrow=block;dashed=1;endFill=0;endSize=12;html=1;rounded=0;" edge="1" parent="1" source="M9w1dwyrhwupKzDS5G9y-42" target="M9w1dwyrhwupKzDS5G9y-20">
          <mxGeometry width="160" relative="1" as="geometry">
            <mxPoint x="4081" y="2297" as="sourcePoint" />
            <mxPoint x="3961" y="2296" as="targetPoint" />
          </mxGeometry>
        </mxCell>
        <mxCell id="M9w1dwyrhwupKzDS5G9y-50" value="" style="endArrow=block;dashed=1;endFill=0;endSize=12;html=1;rounded=0;" edge="1" parent="1" source="M9w1dwyrhwupKzDS5G9y-34" target="M9w1dwyrhwupKzDS5G9y-23">
          <mxGeometry width="160" relative="1" as="geometry">
            <mxPoint x="4091" y="2307" as="sourcePoint" />
            <mxPoint x="3971" y="2306" as="targetPoint" />
          </mxGeometry>
        </mxCell>
        <mxCell id="M9w1dwyrhwupKzDS5G9y-51" value="&lt;b&gt;model&lt;/b&gt;" style="html=1;whiteSpace=wrap;verticalAlign=top;" vertex="1" parent="1">
          <mxGeometry x="4686" y="1821.5" width="520" height="583" as="geometry" />
        </mxCell>
        <mxCell id="M9w1dwyrhwupKzDS5G9y-52" value="Enrollment" style="swimlane;fontStyle=1;align=center;verticalAlign=top;childLayout=stackLayout;horizontal=1;startSize=26;horizontalStack=0;resizeParent=1;resizeParentMax=0;resizeLast=0;collapsible=1;marginBottom=0;whiteSpace=wrap;html=1;" vertex="1" parent="1">
          <mxGeometry x="4736" y="2106" width="170" height="172" as="geometry" />
        </mxCell>
        <mxCell id="M9w1dwyrhwupKzDS5G9y-53" value="&lt;div&gt;- id: int&lt;/div&gt;&lt;div&gt;- studentId: int&lt;/div&gt;&lt;div&gt;- courseId: int&lt;/div&gt;&lt;div&gt;-&amp;nbsp;&lt;span style=&quot;color: rgb(135, 16, 148); font-family: &amp;quot;JetBrains Mono&amp;quot;, monospace; background-color: rgb(255, 255, 255);&quot;&gt;registeredAt&lt;/span&gt;&lt;span style=&quot;background-color: transparent; color: light-dark(rgb(0, 0, 0), rgb(255, 255, 255));&quot;&gt;: Date&lt;/span&gt;&lt;br&gt;&lt;/div&gt;&lt;div&gt;- status: String&lt;/div&gt;&lt;div&gt;- courseName: String&lt;/div&gt;" style="text;strokeColor=none;fillColor=none;align=left;verticalAlign=top;spacingLeft=4;spacingRight=4;overflow=hidden;rotatable=0;points=[[0,0.5],[1,0.5]];portConstraint=eastwest;whiteSpace=wrap;html=1;" vertex="1" parent="M9w1dwyrhwupKzDS5G9y-52">
          <mxGeometry y="26" width="170" height="112" as="geometry" />
        </mxCell>
        <mxCell id="M9w1dwyrhwupKzDS5G9y-54" value="" style="line;strokeWidth=1;fillColor=none;align=left;verticalAlign=middle;spacingTop=-1;spacingLeft=3;spacingRight=3;rotatable=0;labelPosition=right;points=[];portConstraint=eastwest;strokeColor=inherit;" vertex="1" parent="M9w1dwyrhwupKzDS5G9y-52">
          <mxGeometry y="138" width="170" height="8" as="geometry" />
        </mxCell>
        <mxCell id="M9w1dwyrhwupKzDS5G9y-55" value="+ getters/setters()" style="text;strokeColor=none;fillColor=none;align=left;verticalAlign=top;spacingLeft=4;spacingRight=4;overflow=hidden;rotatable=0;points=[[0,0.5],[1,0.5]];portConstraint=eastwest;whiteSpace=wrap;html=1;" vertex="1" parent="M9w1dwyrhwupKzDS5G9y-52">
          <mxGeometry y="146" width="170" height="26" as="geometry" />
        </mxCell>
        <mxCell id="M9w1dwyrhwupKzDS5G9y-56" value="Student" style="swimlane;fontStyle=1;align=center;verticalAlign=top;childLayout=stackLayout;horizontal=1;startSize=26;horizontalStack=0;resizeParent=1;resizeParentMax=0;resizeLast=0;collapsible=1;marginBottom=0;whiteSpace=wrap;html=1;" vertex="1" parent="1">
          <mxGeometry x="4998" y="1889" width="130" height="194" as="geometry" />
        </mxCell>
        <mxCell id="M9w1dwyrhwupKzDS5G9y-57" value="&lt;div&gt;- studentId: String&lt;/div&gt;&lt;div&gt;- name: String&lt;/div&gt;&lt;div&gt;-dob: LocalDate&lt;/div&gt;&lt;div&gt;- email: String&lt;/div&gt;&lt;div&gt;- sex: boolean&lt;/div&gt;&lt;div&gt;- phone: String&lt;/div&gt;&lt;div&gt;- password: String&lt;/div&gt;&lt;div&gt;&lt;span style=&quot;background-color: transparent; color: light-dark(rgb(0, 0, 0), rgb(255, 255, 255));&quot;&gt;- createdAt: Date&lt;/span&gt;&lt;/div&gt;&lt;div&gt;&lt;span style=&quot;background-color: transparent; color: light-dark(rgb(0, 0, 0), rgb(255, 255, 255));&quot;&gt;- isAcitved: boolean&lt;/span&gt;&lt;/div&gt;" style="text;strokeColor=none;fillColor=none;align=left;verticalAlign=top;spacingLeft=4;spacingRight=4;overflow=hidden;rotatable=0;points=[[0,0.5],[1,0.5]];portConstraint=eastwest;whiteSpace=wrap;html=1;" vertex="1" parent="M9w1dwyrhwupKzDS5G9y-56">
          <mxGeometry y="26" width="130" height="134" as="geometry" />
        </mxCell>
        <mxCell id="M9w1dwyrhwupKzDS5G9y-58" value="" style="line;strokeWidth=1;fillColor=none;align=left;verticalAlign=middle;spacingTop=-1;spacingLeft=3;spacingRight=3;rotatable=0;labelPosition=right;points=[];portConstraint=eastwest;strokeColor=inherit;" vertex="1" parent="M9w1dwyrhwupKzDS5G9y-56">
          <mxGeometry y="160" width="130" height="8" as="geometry" />
        </mxCell>
        <mxCell id="M9w1dwyrhwupKzDS5G9y-59" value="+ getters/setters()" style="text;strokeColor=none;fillColor=none;align=left;verticalAlign=top;spacingLeft=4;spacingRight=4;overflow=hidden;rotatable=0;points=[[0,0.5],[1,0.5]];portConstraint=eastwest;whiteSpace=wrap;html=1;" vertex="1" parent="M9w1dwyrhwupKzDS5G9y-56">
          <mxGeometry y="168" width="130" height="26" as="geometry" />
        </mxCell>
        <mxCell id="M9w1dwyrhwupKzDS5G9y-60" value="Admin" style="swimlane;fontStyle=1;align=center;verticalAlign=top;childLayout=stackLayout;horizontal=1;startSize=26;horizontalStack=0;resizeParent=1;resizeParentMax=0;resizeLast=0;collapsible=1;marginBottom=0;whiteSpace=wrap;html=1;" vertex="1" parent="1">
          <mxGeometry x="5003" y="2090" width="130" height="129" as="geometry" />
        </mxCell>
        <mxCell id="M9w1dwyrhwupKzDS5G9y-61" value="&lt;div&gt;- id: int&lt;/div&gt;&lt;div&gt;- username: String&lt;/div&gt;&lt;div&gt;- password: String&lt;/div&gt;&lt;div&gt;&lt;br&gt;&lt;/div&gt;" style="text;strokeColor=none;fillColor=none;align=left;verticalAlign=top;spacingLeft=4;spacingRight=4;overflow=hidden;rotatable=0;points=[[0,0.5],[1,0.5]];portConstraint=eastwest;whiteSpace=wrap;html=1;" vertex="1" parent="M9w1dwyrhwupKzDS5G9y-60">
          <mxGeometry y="26" width="130" height="69" as="geometry" />
        </mxCell>
        <mxCell id="M9w1dwyrhwupKzDS5G9y-62" value="" style="line;strokeWidth=1;fillColor=none;align=left;verticalAlign=middle;spacingTop=-1;spacingLeft=3;spacingRight=3;rotatable=0;labelPosition=right;points=[];portConstraint=eastwest;strokeColor=inherit;" vertex="1" parent="M9w1dwyrhwupKzDS5G9y-60">
          <mxGeometry y="95" width="130" height="8" as="geometry" />
        </mxCell>
        <mxCell id="M9w1dwyrhwupKzDS5G9y-63" value="+ getters/setters()" style="text;strokeColor=none;fillColor=none;align=left;verticalAlign=top;spacingLeft=4;spacingRight=4;overflow=hidden;rotatable=0;points=[[0,0.5],[1,0.5]];portConstraint=eastwest;whiteSpace=wrap;html=1;" vertex="1" parent="M9w1dwyrhwupKzDS5G9y-60">
          <mxGeometry y="103" width="130" height="26" as="geometry" />
        </mxCell>
        <mxCell id="M9w1dwyrhwupKzDS5G9y-64" value="Course&amp;nbsp;" style="swimlane;fontStyle=1;align=center;verticalAlign=top;childLayout=stackLayout;horizontal=1;startSize=26;horizontalStack=0;resizeParent=1;resizeParentMax=0;resizeLast=0;collapsible=1;marginBottom=0;whiteSpace=wrap;html=1;" vertex="1" parent="1">
          <mxGeometry x="5003" y="2241" width="130" height="156" as="geometry" />
        </mxCell>
        <mxCell id="M9w1dwyrhwupKzDS5G9y-65" value="&lt;div&gt;- courseId: String&lt;/div&gt;&lt;div&gt;- name: String&lt;/div&gt;&lt;div&gt;- duration: int&lt;/div&gt;&lt;div&gt;- instructor: String&lt;/div&gt;&lt;div&gt;- createdAt: LocalDate&lt;/div&gt;&lt;div&gt;&lt;br&gt;&lt;/div&gt;" style="text;strokeColor=none;fillColor=none;align=left;verticalAlign=top;spacingLeft=4;spacingRight=4;overflow=hidden;rotatable=0;points=[[0,0.5],[1,0.5]];portConstraint=eastwest;whiteSpace=wrap;html=1;" vertex="1" parent="M9w1dwyrhwupKzDS5G9y-64">
          <mxGeometry y="26" width="130" height="96" as="geometry" />
        </mxCell>
        <mxCell id="M9w1dwyrhwupKzDS5G9y-66" value="" style="line;strokeWidth=1;fillColor=none;align=left;verticalAlign=middle;spacingTop=-1;spacingLeft=3;spacingRight=3;rotatable=0;labelPosition=right;points=[];portConstraint=eastwest;strokeColor=inherit;" vertex="1" parent="M9w1dwyrhwupKzDS5G9y-64">
          <mxGeometry y="122" width="130" height="8" as="geometry" />
        </mxCell>
        <mxCell id="M9w1dwyrhwupKzDS5G9y-67" value="+ getters/setters()" style="text;strokeColor=none;fillColor=none;align=left;verticalAlign=top;spacingLeft=4;spacingRight=4;overflow=hidden;rotatable=0;points=[[0,0.5],[1,0.5]];portConstraint=eastwest;whiteSpace=wrap;html=1;" vertex="1" parent="M9w1dwyrhwupKzDS5G9y-64">
          <mxGeometry y="130" width="130" height="26" as="geometry" />
        </mxCell>
        <mxCell id="M9w1dwyrhwupKzDS5G9y-68" value="" style="endArrow=diamondThin;endFill=1;endSize=24;html=1;rounded=0;" edge="1" parent="1" source="M9w1dwyrhwupKzDS5G9y-56" target="M9w1dwyrhwupKzDS5G9y-52">
          <mxGeometry width="160" relative="1" as="geometry">
            <mxPoint x="4441" y="2139" as="sourcePoint" />
            <mxPoint x="4601" y="2139" as="targetPoint" />
          </mxGeometry>
        </mxCell>
        <mxCell id="M9w1dwyrhwupKzDS5G9y-69" value="1" style="edgeLabel;html=1;align=center;verticalAlign=middle;resizable=0;points=[];" vertex="1" connectable="0" parent="M9w1dwyrhwupKzDS5G9y-68">
          <mxGeometry x="-0.7604" y="2" relative="1" as="geometry">
            <mxPoint as="offset" />
          </mxGeometry>
        </mxCell>
        <mxCell id="M9w1dwyrhwupKzDS5G9y-70" value="n" style="edgeLabel;html=1;align=center;verticalAlign=middle;resizable=0;points=[];" vertex="1" connectable="0" parent="M9w1dwyrhwupKzDS5G9y-68">
          <mxGeometry x="0.4308" y="-1" relative="1" as="geometry">
            <mxPoint x="1" as="offset" />
          </mxGeometry>
        </mxCell>
        <mxCell id="M9w1dwyrhwupKzDS5G9y-71" value="" style="endArrow=diamondThin;endFill=1;endSize=24;html=1;rounded=0;" edge="1" parent="1" source="M9w1dwyrhwupKzDS5G9y-64" target="M9w1dwyrhwupKzDS5G9y-52">
          <mxGeometry width="160" relative="1" as="geometry">
            <mxPoint x="4441" y="2139" as="sourcePoint" />
            <mxPoint x="4601" y="2139" as="targetPoint" />
          </mxGeometry>
        </mxCell>
        <mxCell id="M9w1dwyrhwupKzDS5G9y-72" value="1" style="edgeLabel;html=1;align=center;verticalAlign=middle;resizable=0;points=[];" vertex="1" connectable="0" parent="M9w1dwyrhwupKzDS5G9y-71">
          <mxGeometry x="-0.6211" y="-1" relative="1" as="geometry">
            <mxPoint x="1" as="offset" />
          </mxGeometry>
        </mxCell>
        <mxCell id="M9w1dwyrhwupKzDS5G9y-73" value="n" style="edgeLabel;html=1;align=center;verticalAlign=middle;resizable=0;points=[];" vertex="1" connectable="0" parent="M9w1dwyrhwupKzDS5G9y-71">
          <mxGeometry x="0.4568" y="-3" relative="1" as="geometry">
            <mxPoint as="offset" />
          </mxGeometry>
        </mxCell>
        <mxCell id="M9w1dwyrhwupKzDS5G9y-74" value="" style="html=1;verticalAlign=bottom;endArrow=block;curved=0;rounded=0;" edge="1" parent="1" source="M9w1dwyrhwupKzDS5G9y-52" target="M9w1dwyrhwupKzDS5G9y-60">
          <mxGeometry width="80" relative="1" as="geometry">
            <mxPoint x="4481" y="2139" as="sourcePoint" />
            <mxPoint x="4561" y="2139" as="targetPoint" />
          </mxGeometry>
        </mxCell>
        <mxCell id="M9w1dwyrhwupKzDS5G9y-75" value="&lt;b&gt;dao&lt;/b&gt;" style="html=1;whiteSpace=wrap;verticalAlign=top;" vertex="1" parent="1">
          <mxGeometry x="4561" y="2429" width="1033" height="1339" as="geometry" />
        </mxCell>
        <mxCell id="M9w1dwyrhwupKzDS5G9y-76" value="&lt;i&gt;IEnrollmentDao&lt;/i&gt;" style="swimlane;fontStyle=1;align=center;verticalAlign=top;childLayout=stackLayout;horizontal=1;startSize=26;horizontalStack=0;resizeParent=1;resizeParentMax=0;resizeLast=0;collapsible=1;marginBottom=0;whiteSpace=wrap;html=1;" vertex="1" parent="1">
          <mxGeometry x="4599" y="2462" width="450" height="225" as="geometry" />
        </mxCell>
        <mxCell id="M9w1dwyrhwupKzDS5G9y-77" value="" style="line;strokeWidth=1;fillColor=none;align=left;verticalAlign=middle;spacingTop=-1;spacingLeft=3;spacingRight=3;rotatable=0;labelPosition=right;points=[];portConstraint=eastwest;strokeColor=inherit;" vertex="1" parent="M9w1dwyrhwupKzDS5G9y-76">
          <mxGeometry y="26" width="450" height="8" as="geometry" />
        </mxCell>
        <mxCell id="M9w1dwyrhwupKzDS5G9y-78" value="&lt;div&gt;+ findAll(): List&amp;lt;Enrollment&amp;gt;&lt;/div&gt;&lt;div&gt;+ save(enrollment: Enrollment): boolean&lt;/div&gt;&lt;div&gt;+ update(enrollment: Enrollment): boolean&lt;/div&gt;&lt;div&gt;+ delete(enrollment: Enrollment): boolean&lt;/div&gt;&lt;div&gt;+ getConfirmedEnrollmentsByCourse(courseId: int, page: int): List&amp;lt;Enrollment&amp;gt;&lt;/div&gt;&lt;div&gt;+ countConfirmedEnrollmentsByCourse(courseId: int): int&lt;/div&gt;&lt;div&gt;+ getDeniedCancelEnrollmentsByCourse(courseId: int, page: int): List&amp;lt;Enrollment&amp;gt;&lt;/div&gt;&lt;div&gt;+ countDeniedCancelEnrollmentsByCourse(courseId: int): int&lt;/div&gt;&lt;div&gt;+ getPendingEnrollments(): List&amp;lt;Enrollment&amp;gt;&lt;/div&gt;&lt;div&gt;+ approveEnrollment(enrollmentId: int, action: String): boolean&lt;/div&gt;&lt;div&gt;+ deleteEnrollment(courseId: int, studentId: int): boolean&lt;/div&gt;&lt;div&gt;&lt;br&gt;&lt;/div&gt;" style="text;strokeColor=none;fillColor=none;align=left;verticalAlign=top;spacingLeft=4;spacingRight=4;overflow=hidden;rotatable=0;points=[[0,0.5],[1,0.5]];portConstraint=eastwest;whiteSpace=wrap;html=1;" vertex="1" parent="M9w1dwyrhwupKzDS5G9y-76">
          <mxGeometry y="34" width="450" height="191" as="geometry" />
        </mxCell>
        <mxCell id="M9w1dwyrhwupKzDS5G9y-79" value="&lt;i&gt;IStaticsDao&lt;/i&gt;" style="swimlane;fontStyle=1;align=center;verticalAlign=top;childLayout=stackLayout;horizontal=1;startSize=26;horizontalStack=0;resizeParent=1;resizeParentMax=0;resizeLast=0;collapsible=1;marginBottom=0;whiteSpace=wrap;html=1;" vertex="1" parent="1">
          <mxGeometry x="4603" y="2731" width="450" height="111" as="geometry" />
        </mxCell>
        <mxCell id="M9w1dwyrhwupKzDS5G9y-80" value="" style="line;strokeWidth=1;fillColor=none;align=left;verticalAlign=middle;spacingTop=-1;spacingLeft=3;spacingRight=3;rotatable=0;labelPosition=right;points=[];portConstraint=eastwest;strokeColor=inherit;" vertex="1" parent="M9w1dwyrhwupKzDS5G9y-79">
          <mxGeometry y="26" width="450" height="8" as="geometry" />
        </mxCell>
        <mxCell id="M9w1dwyrhwupKzDS5G9y-81" value="&lt;div&gt;+ getTotalCoursesAndStudents(): Map&amp;lt;String, Integer&amp;gt;&lt;/div&gt;&lt;div&gt;+ getStudentsPerCourse(): List&amp;lt;Map&amp;lt;String, Object&amp;gt;&amp;gt;&lt;/div&gt;&lt;div&gt;+ getTop5CoursesByStudents(): List&amp;lt;Map&amp;lt;String, Object&amp;gt;&amp;gt;&lt;/div&gt;&lt;div&gt;+ getCoursesWithMoreThan10Students(): List&amp;lt;Map&amp;lt;String, Object&amp;gt;&amp;gt;&lt;/div&gt;&lt;div&gt;&lt;br&gt;&lt;/div&gt;" style="text;strokeColor=none;fillColor=none;align=left;verticalAlign=top;spacingLeft=4;spacingRight=4;overflow=hidden;rotatable=0;points=[[0,0.5],[1,0.5]];portConstraint=eastwest;whiteSpace=wrap;html=1;" vertex="1" parent="M9w1dwyrhwupKzDS5G9y-79">
          <mxGeometry y="34" width="450" height="77" as="geometry" />
        </mxCell>
        <mxCell id="M9w1dwyrhwupKzDS5G9y-82" value="&lt;i&gt;IStudentDAO&lt;/i&gt;" style="swimlane;fontStyle=1;align=center;verticalAlign=top;childLayout=stackLayout;horizontal=1;startSize=26;horizontalStack=0;resizeParent=1;resizeParentMax=0;resizeLast=0;collapsible=1;marginBottom=0;whiteSpace=wrap;html=1;" vertex="1" parent="1">
          <mxGeometry x="4603" y="2875" width="450" height="157" as="geometry" />
        </mxCell>
        <mxCell id="M9w1dwyrhwupKzDS5G9y-83" value="" style="line;strokeWidth=1;fillColor=none;align=left;verticalAlign=middle;spacingTop=-1;spacingLeft=3;spacingRight=3;rotatable=0;labelPosition=right;points=[];portConstraint=eastwest;strokeColor=inherit;" vertex="1" parent="M9w1dwyrhwupKzDS5G9y-82">
          <mxGeometry y="26" width="450" height="8" as="geometry" />
        </mxCell>
        <mxCell id="M9w1dwyrhwupKzDS5G9y-84" value="&lt;div&gt;&lt;div&gt;+ pagination(page: int): List&amp;lt;Student&amp;gt;&lt;/div&gt;&lt;div&gt;+ findStudentById(id: int): Student&lt;/div&gt;&lt;div&gt;+ updatePassword(studentId: int, newPassword: String): boolean&lt;/div&gt;&lt;div&gt;+ searchByNameEmailId(searchValue: String, page: int): List&amp;lt;Student&amp;gt;&lt;/div&gt;&lt;div&gt;+ sort(field: String, order: String, page: int): List&amp;lt;Student&amp;gt;&lt;/div&gt;&lt;div&gt;+ countStudents(): int&lt;/div&gt;&lt;div&gt;+ countStudentsByNameEmailId(searchValue: String): int&lt;/div&gt;&lt;div&gt;+ checkEmailExists(email: String, studentId: int): boolean&lt;/div&gt;&lt;div&gt;&lt;br&gt;&lt;/div&gt;&lt;/div&gt;" style="text;strokeColor=none;fillColor=none;align=left;verticalAlign=top;spacingLeft=4;spacingRight=4;overflow=hidden;rotatable=0;points=[[0,0.5],[1,0.5]];portConstraint=eastwest;whiteSpace=wrap;html=1;" vertex="1" parent="M9w1dwyrhwupKzDS5G9y-82">
          <mxGeometry y="34" width="450" height="123" as="geometry" />
        </mxCell>
        <mxCell id="M9w1dwyrhwupKzDS5G9y-85" value="&lt;i&gt;ICourseDAO&lt;/i&gt;" style="swimlane;fontStyle=1;align=center;verticalAlign=top;childLayout=stackLayout;horizontal=1;startSize=26;horizontalStack=0;resizeParent=1;resizeParentMax=0;resizeLast=0;collapsible=1;marginBottom=0;whiteSpace=wrap;html=1;" vertex="1" parent="1">
          <mxGeometry x="4603" y="3045" width="450" height="157" as="geometry" />
        </mxCell>
        <mxCell id="M9w1dwyrhwupKzDS5G9y-86" value="" style="line;strokeWidth=1;fillColor=none;align=left;verticalAlign=middle;spacingTop=-1;spacingLeft=3;spacingRight=3;rotatable=0;labelPosition=right;points=[];portConstraint=eastwest;strokeColor=inherit;" vertex="1" parent="M9w1dwyrhwupKzDS5G9y-85">
          <mxGeometry y="26" width="450" height="8" as="geometry" />
        </mxCell>
        <mxCell id="M9w1dwyrhwupKzDS5G9y-87" value="&lt;div&gt;+ searchByName(name: String, page: int): List&amp;lt;Course&amp;gt;&lt;/div&gt;&lt;div&gt;+ sort(field: String, order: String, page: int): List&amp;lt;Course&amp;gt;&lt;/div&gt;&lt;div&gt;+ findCourseById(id: int): Course&lt;/div&gt;&lt;div&gt;+ pagination(page: int): List&amp;lt;Course&amp;gt;&lt;/div&gt;&lt;div&gt;+ countCourses(): int&lt;/div&gt;&lt;div&gt;+ countCoursesByName(name: String): int&lt;/div&gt;&lt;div&gt;+ existsByName(name: String): boolean&lt;/div&gt;&lt;div&gt;+ existsByNameExceptId(name: String, courseId: int): boolean&lt;/div&gt;" style="text;strokeColor=none;fillColor=none;align=left;verticalAlign=top;spacingLeft=4;spacingRight=4;overflow=hidden;rotatable=0;points=[[0,0.5],[1,0.5]];portConstraint=eastwest;whiteSpace=wrap;html=1;" vertex="1" parent="M9w1dwyrhwupKzDS5G9y-85">
          <mxGeometry y="34" width="450" height="123" as="geometry" />
        </mxCell>
        <mxCell id="M9w1dwyrhwupKzDS5G9y-88" value="EnrollmentDaoImp" style="swimlane;fontStyle=1;align=center;verticalAlign=top;childLayout=stackLayout;horizontal=1;startSize=26;horizontalStack=0;resizeParent=1;resizeParentMax=0;resizeLast=0;collapsible=1;marginBottom=0;whiteSpace=wrap;html=1;" vertex="1" parent="1">
          <mxGeometry x="5101" y="2452" width="450" height="223" as="geometry" />
        </mxCell>
        <mxCell id="M9w1dwyrhwupKzDS5G9y-89" value="" style="line;strokeWidth=1;fillColor=none;align=left;verticalAlign=middle;spacingTop=-1;spacingLeft=3;spacingRight=3;rotatable=0;labelPosition=right;points=[];portConstraint=eastwest;strokeColor=inherit;" vertex="1" parent="M9w1dwyrhwupKzDS5G9y-88">
          <mxGeometry y="26" width="450" height="8" as="geometry" />
        </mxCell>
        <mxCell id="M9w1dwyrhwupKzDS5G9y-90" value="&lt;div&gt;+ findAll(): List&amp;lt;Enrollment&amp;gt;&lt;/div&gt;&lt;div&gt;+ save(enrollment: Enrollment): boolean&lt;/div&gt;&lt;div&gt;+ update(enrollment: Enrollment): boolean&lt;/div&gt;&lt;div&gt;+ delete(enrollment: Enrollment): boolean&lt;/div&gt;&lt;div&gt;+ getConfirmedEnrollmentsByCourse(courseId: int, page: int): List&amp;lt;Enrollment&amp;gt;&lt;/div&gt;&lt;div&gt;+ countConfirmedEnrollmentsByCourse(courseId: int): int&lt;/div&gt;&lt;div&gt;+ getDeniedCancelEnrollmentsByCourse(courseId: int, page: int): List&amp;lt;Enrollment&amp;gt;&lt;/div&gt;&lt;div&gt;+ countDeniedCancelEnrollmentsByCourse(courseId: int): int&lt;/div&gt;&lt;div&gt;+ getPendingEnrollments(): List&amp;lt;Enrollment&amp;gt;&lt;/div&gt;&lt;div&gt;+ approveEnrollment(enrollmentId: int, action: String): boolean&lt;/div&gt;&lt;div&gt;+ deleteEnrollment(courseId: int, studentId: int): boolean&lt;/div&gt;&lt;div&gt;&lt;br&gt;&lt;/div&gt;" style="text;strokeColor=none;fillColor=none;align=left;verticalAlign=top;spacingLeft=4;spacingRight=4;overflow=hidden;rotatable=0;points=[[0,0.5],[1,0.5]];portConstraint=eastwest;whiteSpace=wrap;html=1;" vertex="1" parent="M9w1dwyrhwupKzDS5G9y-88">
          <mxGeometry y="34" width="450" height="189" as="geometry" />
        </mxCell>
        <mxCell id="M9w1dwyrhwupKzDS5G9y-91" value="StudentDaoImp" style="swimlane;fontStyle=1;align=center;verticalAlign=top;childLayout=stackLayout;horizontal=1;startSize=26;horizontalStack=0;resizeParent=1;resizeParentMax=0;resizeLast=0;collapsible=1;marginBottom=0;whiteSpace=wrap;html=1;" vertex="1" parent="1">
          <mxGeometry x="5101" y="2817" width="450" height="158" as="geometry" />
        </mxCell>
        <mxCell id="M9w1dwyrhwupKzDS5G9y-92" value="" style="line;strokeWidth=1;fillColor=none;align=left;verticalAlign=middle;spacingTop=-1;spacingLeft=3;spacingRight=3;rotatable=0;labelPosition=right;points=[];portConstraint=eastwest;strokeColor=inherit;" vertex="1" parent="M9w1dwyrhwupKzDS5G9y-91">
          <mxGeometry y="26" width="450" height="8" as="geometry" />
        </mxCell>
        <mxCell id="M9w1dwyrhwupKzDS5G9y-93" value="&lt;div&gt;+ pagination(page: int): List&amp;lt;Student&amp;gt;&lt;/div&gt;&lt;div&gt;+ findStudentById(id: int): Student&lt;/div&gt;&lt;div&gt;+ updatePassword(studentId: int, newPassword: String): boolean&lt;/div&gt;&lt;div&gt;+ searchByNameEmailId(searchValue: String, page: int): List&amp;lt;Student&amp;gt;&lt;/div&gt;&lt;div&gt;+ sort(field: String, order: String, page: int): List&amp;lt;Student&amp;gt;&lt;/div&gt;&lt;div&gt;+ countStudents(): int&lt;/div&gt;&lt;div&gt;+ countStudentsByNameEmailId(searchValue: String): int&lt;/div&gt;&lt;div&gt;+ checkEmailExists(email: String, studentId: int): boolean&lt;/div&gt;&lt;div&gt;&lt;br&gt;&lt;/div&gt;" style="text;strokeColor=none;fillColor=none;align=left;verticalAlign=top;spacingLeft=4;spacingRight=4;overflow=hidden;rotatable=0;points=[[0,0.5],[1,0.5]];portConstraint=eastwest;whiteSpace=wrap;html=1;" vertex="1" parent="M9w1dwyrhwupKzDS5G9y-91">
          <mxGeometry y="34" width="450" height="124" as="geometry" />
        </mxCell>
        <mxCell id="M9w1dwyrhwupKzDS5G9y-94" value="StaticsDaoImp" style="swimlane;fontStyle=1;align=center;verticalAlign=top;childLayout=stackLayout;horizontal=1;startSize=26;horizontalStack=0;resizeParent=1;resizeParentMax=0;resizeLast=0;collapsible=1;marginBottom=0;whiteSpace=wrap;html=1;" vertex="1" parent="1">
          <mxGeometry x="5101" y="2687" width="450" height="111" as="geometry" />
        </mxCell>
        <mxCell id="M9w1dwyrhwupKzDS5G9y-95" value="" style="line;strokeWidth=1;fillColor=none;align=left;verticalAlign=middle;spacingTop=-1;spacingLeft=3;spacingRight=3;rotatable=0;labelPosition=right;points=[];portConstraint=eastwest;strokeColor=inherit;" vertex="1" parent="M9w1dwyrhwupKzDS5G9y-94">
          <mxGeometry y="26" width="450" height="8" as="geometry" />
        </mxCell>
        <mxCell id="M9w1dwyrhwupKzDS5G9y-96" value="&lt;div&gt;+ getTotalCoursesAndStudents(): Map&amp;lt;String, Integer&amp;gt;&lt;/div&gt;&lt;div&gt;+ getStudentsPerCourse(): List&amp;lt;Map&amp;lt;String, Object&amp;gt;&amp;gt;&lt;/div&gt;&lt;div&gt;+ getTop5CoursesByStudents(): List&amp;lt;Map&amp;lt;String, Object&amp;gt;&amp;gt;&lt;/div&gt;&lt;div&gt;+ getCoursesWithMoreThan10Students(): List&amp;lt;Map&amp;lt;String, Object&amp;gt;&amp;gt;&lt;/div&gt;&lt;div&gt;&lt;br&gt;&lt;/div&gt;" style="text;strokeColor=none;fillColor=none;align=left;verticalAlign=top;spacingLeft=4;spacingRight=4;overflow=hidden;rotatable=0;points=[[0,0.5],[1,0.5]];portConstraint=eastwest;whiteSpace=wrap;html=1;" vertex="1" parent="M9w1dwyrhwupKzDS5G9y-94">
          <mxGeometry y="34" width="450" height="77" as="geometry" />
        </mxCell>
        <mxCell id="M9w1dwyrhwupKzDS5G9y-97" value="CourseDaoImp" style="swimlane;fontStyle=1;align=center;verticalAlign=top;childLayout=stackLayout;horizontal=1;startSize=26;horizontalStack=0;resizeParent=1;resizeParentMax=0;resizeLast=0;collapsible=1;marginBottom=0;whiteSpace=wrap;html=1;" vertex="1" parent="1">
          <mxGeometry x="5099" y="2981" width="450" height="205" as="geometry" />
        </mxCell>
        <mxCell id="M9w1dwyrhwupKzDS5G9y-98" value="" style="line;strokeWidth=1;fillColor=none;align=left;verticalAlign=middle;spacingTop=-1;spacingLeft=3;spacingRight=3;rotatable=0;labelPosition=right;points=[];portConstraint=eastwest;strokeColor=inherit;" vertex="1" parent="M9w1dwyrhwupKzDS5G9y-97">
          <mxGeometry y="26" width="450" height="8" as="geometry" />
        </mxCell>
        <mxCell id="M9w1dwyrhwupKzDS5G9y-99" value="&lt;div&gt;&lt;span style=&quot;background-color: transparent;&quot;&gt;+ searchByName(name: String, page: int): List&amp;lt;Course&amp;gt;&lt;/span&gt;&lt;/div&gt;&lt;div&gt;+ sort(field: String, order: String, page: int): List&amp;lt;Course&amp;gt;&lt;/div&gt;&lt;div&gt;+ findCourseById(id: int): Course&lt;/div&gt;&lt;div&gt;+ countCourses(): int&lt;/div&gt;&lt;div&gt;&lt;div&gt;+ countCoursesByName(name: String): int&lt;/div&gt;&lt;/div&gt;&lt;div&gt;&lt;div&gt;+ existsByName(name: String): boolean&lt;/div&gt;&lt;/div&gt;&lt;div&gt;&lt;div&gt;+ existsByNameExceptId(name: String, courseId: int): boolean&lt;/div&gt;&lt;/div&gt;&lt;div&gt;&lt;div&gt;+ findAll(): List&lt;/div&gt;&lt;div&gt;+ save(o: Object): boolean&lt;/div&gt;&lt;div&gt;+ update(o: Object): boolean&lt;/div&gt;&lt;div&gt;+ delete(o: Object): boolean&lt;/div&gt;&lt;/div&gt;" style="text;strokeColor=none;fillColor=none;align=left;verticalAlign=top;spacingLeft=4;spacingRight=4;overflow=hidden;rotatable=0;points=[[0,0.5],[1,0.5]];portConstraint=eastwest;whiteSpace=wrap;html=1;" vertex="1" parent="M9w1dwyrhwupKzDS5G9y-97">
          <mxGeometry y="34" width="450" height="171" as="geometry" />
        </mxCell>
        <mxCell id="M9w1dwyrhwupKzDS5G9y-100" value="" style="endArrow=block;dashed=1;endFill=0;endSize=12;html=1;rounded=0;" edge="1" parent="1" source="M9w1dwyrhwupKzDS5G9y-88" target="M9w1dwyrhwupKzDS5G9y-76">
          <mxGeometry width="160" relative="1" as="geometry">
            <mxPoint x="4841" y="2749" as="sourcePoint" />
            <mxPoint x="5001" y="2749" as="targetPoint" />
          </mxGeometry>
        </mxCell>
        <mxCell id="M9w1dwyrhwupKzDS5G9y-101" value="" style="endArrow=block;dashed=1;endFill=0;endSize=12;html=1;rounded=0;entryX=1;entryY=0.25;entryDx=0;entryDy=0;" edge="1" parent="1" source="M9w1dwyrhwupKzDS5G9y-94" target="M9w1dwyrhwupKzDS5G9y-79">
          <mxGeometry width="160" relative="1" as="geometry">
            <mxPoint x="5031" y="2528" as="sourcePoint" />
            <mxPoint x="4951" y="2526" as="targetPoint" />
          </mxGeometry>
        </mxCell>
        <mxCell id="M9w1dwyrhwupKzDS5G9y-102" value="" style="endArrow=block;dashed=1;endFill=0;endSize=12;html=1;rounded=0;" edge="1" parent="1" source="M9w1dwyrhwupKzDS5G9y-91" target="M9w1dwyrhwupKzDS5G9y-82">
          <mxGeometry width="160" relative="1" as="geometry">
            <mxPoint x="5041" y="2538" as="sourcePoint" />
            <mxPoint x="4961" y="2536" as="targetPoint" />
          </mxGeometry>
        </mxCell>
        <mxCell id="M9w1dwyrhwupKzDS5G9y-103" value="" style="endArrow=block;dashed=1;endFill=0;endSize=12;html=1;rounded=0;" edge="1" parent="1" source="M9w1dwyrhwupKzDS5G9y-97" target="M9w1dwyrhwupKzDS5G9y-85">
          <mxGeometry width="160" relative="1" as="geometry">
            <mxPoint x="5051" y="2548" as="sourcePoint" />
            <mxPoint x="4971" y="2546" as="targetPoint" />
          </mxGeometry>
        </mxCell>
        <mxCell id="M9w1dwyrhwupKzDS5G9y-104" value="&lt;b&gt;config&lt;/b&gt;" style="html=1;whiteSpace=wrap;verticalAlign=top;" vertex="1" parent="1">
          <mxGeometry x="5607" y="2485" width="422" height="277" as="geometry" />
        </mxCell>
        <mxCell id="M9w1dwyrhwupKzDS5G9y-105" value="DBConnection" style="swimlane;fontStyle=1;align=center;verticalAlign=top;childLayout=stackLayout;horizontal=1;startSize=26;horizontalStack=0;resizeParent=1;resizeParentMax=0;resizeLast=0;collapsible=1;marginBottom=0;whiteSpace=wrap;html=1;" vertex="1" parent="1">
          <mxGeometry x="5714" y="2570" width="202" height="100" as="geometry" />
        </mxCell>
        <mxCell id="M9w1dwyrhwupKzDS5G9y-106" value="- connection: Connection" style="text;strokeColor=none;fillColor=none;align=left;verticalAlign=top;spacingLeft=4;spacingRight=4;overflow=hidden;rotatable=0;points=[[0,0.5],[1,0.5]];portConstraint=eastwest;whiteSpace=wrap;html=1;" vertex="1" parent="M9w1dwyrhwupKzDS5G9y-105">
          <mxGeometry y="26" width="202" height="26" as="geometry" />
        </mxCell>
        <mxCell id="M9w1dwyrhwupKzDS5G9y-107" value="" style="line;strokeWidth=1;fillColor=none;align=left;verticalAlign=middle;spacingTop=-1;spacingLeft=3;spacingRight=3;rotatable=0;labelPosition=right;points=[];portConstraint=eastwest;strokeColor=inherit;" vertex="1" parent="M9w1dwyrhwupKzDS5G9y-105">
          <mxGeometry y="52" width="202" height="8" as="geometry" />
        </mxCell>
        <mxCell id="M9w1dwyrhwupKzDS5G9y-108" value="&lt;div&gt;+ openConnection(): Connection&lt;/div&gt;&lt;div&gt;+ closeConnection(): void&lt;/div&gt;" style="text;strokeColor=none;fillColor=none;align=left;verticalAlign=top;spacingLeft=4;spacingRight=4;overflow=hidden;rotatable=0;points=[[0,0.5],[1,0.5]];portConstraint=eastwest;whiteSpace=wrap;html=1;" vertex="1" parent="M9w1dwyrhwupKzDS5G9y-105">
          <mxGeometry y="60" width="202" height="40" as="geometry" />
        </mxCell>
        <mxCell id="M9w1dwyrhwupKzDS5G9y-109" value="" style="endArrow=classic;html=1;rounded=0;" edge="1" parent="1" source="M9w1dwyrhwupKzDS5G9y-88" target="M9w1dwyrhwupKzDS5G9y-105">
          <mxGeometry width="50" height="50" relative="1" as="geometry">
            <mxPoint x="5581" y="2769" as="sourcePoint" />
            <mxPoint x="5631" y="2719" as="targetPoint" />
          </mxGeometry>
        </mxCell>
        <mxCell id="M9w1dwyrhwupKzDS5G9y-110" value="" style="endArrow=classic;html=1;rounded=0;" edge="1" parent="1" source="M9w1dwyrhwupKzDS5G9y-94" target="M9w1dwyrhwupKzDS5G9y-105">
          <mxGeometry width="50" height="50" relative="1" as="geometry">
            <mxPoint x="5481" y="2532" as="sourcePoint" />
            <mxPoint x="5725" y="2532" as="targetPoint" />
          </mxGeometry>
        </mxCell>
        <mxCell id="M9w1dwyrhwupKzDS5G9y-111" value="" style="endArrow=classic;html=1;rounded=0;" edge="1" parent="1" source="M9w1dwyrhwupKzDS5G9y-91" target="M9w1dwyrhwupKzDS5G9y-105">
          <mxGeometry width="50" height="50" relative="1" as="geometry">
            <mxPoint x="5491" y="2542" as="sourcePoint" />
            <mxPoint x="5735" y="2542" as="targetPoint" />
          </mxGeometry>
        </mxCell>
        <mxCell id="M9w1dwyrhwupKzDS5G9y-112" value="" style="endArrow=classic;html=1;rounded=0;" edge="1" parent="1" source="M9w1dwyrhwupKzDS5G9y-97" target="M9w1dwyrhwupKzDS5G9y-105">
          <mxGeometry width="50" height="50" relative="1" as="geometry">
            <mxPoint x="5501" y="2552" as="sourcePoint" />
            <mxPoint x="5745" y="2552" as="targetPoint" />
          </mxGeometry>
        </mxCell>
        <mxCell id="M9w1dwyrhwupKzDS5G9y-113" value="&lt;b&gt;validate&lt;/b&gt;" style="html=1;whiteSpace=wrap;verticalAlign=top;" vertex="1" parent="1">
          <mxGeometry x="2552" y="3460" width="946" height="480" as="geometry" />
        </mxCell>
        <mxCell id="M9w1dwyrhwupKzDS5G9y-114" value="Validator" style="swimlane;fontStyle=1;align=center;verticalAlign=top;childLayout=stackLayout;horizontal=1;startSize=26;horizontalStack=0;resizeParent=1;resizeParentMax=0;resizeLast=0;collapsible=1;marginBottom=0;whiteSpace=wrap;html=1;" vertex="1" parent="1">
          <mxGeometry x="2579" y="3514" width="360" height="163" as="geometry" />
        </mxCell>
        <mxCell id="M9w1dwyrhwupKzDS5G9y-115" value="" style="line;strokeWidth=1;fillColor=none;align=left;verticalAlign=middle;spacingTop=-1;spacingLeft=3;spacingRight=3;rotatable=0;labelPosition=right;points=[];portConstraint=eastwest;strokeColor=inherit;" vertex="1" parent="M9w1dwyrhwupKzDS5G9y-114">
          <mxGeometry y="26" width="360" height="8" as="geometry" />
        </mxCell>
        <mxCell id="M9w1dwyrhwupKzDS5G9y-116" value="&lt;div&gt;+&amp;nbsp;&lt;span style=&quot;background-color: transparent; color: light-dark(rgb(0, 0, 0), rgb(255, 255, 255));&quot;&gt;validateInteger(message, sc, min, max): int&lt;/span&gt;&lt;/div&gt;&lt;div&gt;+&amp;nbsp;&lt;span style=&quot;background-color: transparent; color: light-dark(rgb(0, 0, 0), rgb(255, 255, 255));&quot;&gt;validateSex(message, sc): boolean&lt;/span&gt;&lt;/div&gt;&lt;div&gt;+&amp;nbsp;&lt;span style=&quot;background-color: transparent; color: light-dark(rgb(0, 0, 0), rgb(255, 255, 255));&quot;&gt;validateString(message, sc, min, max, fieldName): String&lt;/span&gt;&lt;/div&gt;&lt;div&gt;+&amp;nbsp;&lt;span style=&quot;background-color: transparent; color: light-dark(rgb(0, 0, 0), rgb(255, 255, 255));&quot;&gt;validateEmail(message, sc): String&lt;/span&gt;&lt;/div&gt;&lt;div&gt;+&amp;nbsp;&lt;span style=&quot;background-color: transparent; color: light-dark(rgb(0, 0, 0), rgb(255, 255, 255));&quot;&gt;validatePhone(message, sc, allowEmpty): String&lt;/span&gt;&lt;/div&gt;&lt;div&gt;&lt;span style=&quot;background-color: transparent; color: light-dark(rgb(0, 0, 0), rgb(255, 255, 255));&quot;&gt;+&amp;nbsp;&lt;/span&gt;&lt;span style=&quot;background-color: transparent; color: light-dark(rgb(0, 0, 0), rgb(255, 255, 255));&quot;&gt;validateDate(message, sc, minAge, maxAge): LocalDate&lt;/span&gt;&lt;/div&gt;&lt;div&gt;&lt;span style=&quot;background-color: transparent; color: light-dark(rgb(0, 0, 0), rgb(255, 255, 255));&quot;&gt;+&amp;nbsp;&lt;/span&gt;&lt;span style=&quot;background-color: transparent; color: light-dark(rgb(0, 0, 0), rgb(255, 255, 255));&quot;&gt;validateUsername(message, sc, min, max): String&lt;/span&gt;&lt;/div&gt;&lt;div&gt;+&amp;nbsp;&lt;span style=&quot;background-color: transparent; color: light-dark(rgb(0, 0, 0), rgb(255, 255, 255));&quot;&gt;validatePassword(message, sc, minLength): String&lt;/span&gt;&lt;/div&gt;" style="text;strokeColor=none;fillColor=none;align=left;verticalAlign=top;spacingLeft=4;spacingRight=4;overflow=hidden;rotatable=0;points=[[0,0.5],[1,0.5]];portConstraint=eastwest;whiteSpace=wrap;html=1;" vertex="1" parent="M9w1dwyrhwupKzDS5G9y-114">
          <mxGeometry y="34" width="360" height="129" as="geometry" />
        </mxCell>
        <mxCell id="M9w1dwyrhwupKzDS5G9y-117" value="AuthDaoImp" style="swimlane;fontStyle=1;align=center;verticalAlign=top;childLayout=stackLayout;horizontal=1;startSize=26;horizontalStack=0;resizeParent=1;resizeParentMax=0;resizeLast=0;collapsible=1;marginBottom=0;whiteSpace=wrap;html=1;" vertex="1" parent="1">
          <mxGeometry x="5096" y="3212" width="450" height="114" as="geometry" />
        </mxCell>
        <mxCell id="M9w1dwyrhwupKzDS5G9y-118" value="" style="line;strokeWidth=1;fillColor=none;align=left;verticalAlign=middle;spacingTop=-1;spacingLeft=3;spacingRight=3;rotatable=0;labelPosition=right;points=[];portConstraint=eastwest;strokeColor=inherit;" vertex="1" parent="M9w1dwyrhwupKzDS5G9y-117">
          <mxGeometry y="26" width="450" height="8" as="geometry" />
        </mxCell>
        <mxCell id="M9w1dwyrhwupKzDS5G9y-119" value="&lt;div&gt;+ studentLogin(email: String, password: String): Student&lt;/div&gt;&lt;div&gt;+ adminLogin(username: String, password: String): Admin&lt;/div&gt;&lt;div&gt;+ registerStudent(student: Student): boolean&lt;/div&gt;&lt;div&gt;+ isStudentDeactivated(email: String): boolean&lt;/div&gt;&lt;div&gt;+ findAll(): List&lt;/div&gt;&lt;div&gt;+ save(o: Object): boolean&lt;/div&gt;&lt;div&gt;+ update(o: Object): boolean&lt;/div&gt;&lt;div&gt;+ delete(o: Object): boolean&lt;/div&gt;" style="text;strokeColor=none;fillColor=none;align=left;verticalAlign=top;spacingLeft=4;spacingRight=4;overflow=hidden;rotatable=0;points=[[0,0.5],[1,0.5]];portConstraint=eastwest;whiteSpace=wrap;html=1;" vertex="1" parent="M9w1dwyrhwupKzDS5G9y-117">
          <mxGeometry y="34" width="450" height="80" as="geometry" />
        </mxCell>
        <mxCell id="M9w1dwyrhwupKzDS5G9y-120" value="&lt;i&gt;IAuthDao&lt;/i&gt;" style="swimlane;fontStyle=1;align=center;verticalAlign=top;childLayout=stackLayout;horizontal=1;startSize=26;horizontalStack=0;resizeParent=1;resizeParentMax=0;resizeLast=0;collapsible=1;marginBottom=0;whiteSpace=wrap;html=1;" vertex="1" parent="1">
          <mxGeometry x="4603" y="3224" width="450" height="114" as="geometry" />
        </mxCell>
        <mxCell id="M9w1dwyrhwupKzDS5G9y-121" value="" style="line;strokeWidth=1;fillColor=none;align=left;verticalAlign=middle;spacingTop=-1;spacingLeft=3;spacingRight=3;rotatable=0;labelPosition=right;points=[];portConstraint=eastwest;strokeColor=inherit;" vertex="1" parent="M9w1dwyrhwupKzDS5G9y-120">
          <mxGeometry y="26" width="450" height="8" as="geometry" />
        </mxCell>
        <mxCell id="M9w1dwyrhwupKzDS5G9y-122" value="&lt;div&gt;&lt;div&gt;+ studentLogin(email: String, password: String): Student&lt;/div&gt;&lt;div&gt;+ adminLogin(username: String, password: String): Admin&lt;/div&gt;&lt;div&gt;+ registerStudent(student: Student): boolean&lt;/div&gt;&lt;div&gt;+ isStudentDeactivated(email: String): boolean&lt;/div&gt;&lt;/div&gt;" style="text;strokeColor=none;fillColor=none;align=left;verticalAlign=top;spacingLeft=4;spacingRight=4;overflow=hidden;rotatable=0;points=[[0,0.5],[1,0.5]];portConstraint=eastwest;whiteSpace=wrap;html=1;" vertex="1" parent="M9w1dwyrhwupKzDS5G9y-120">
          <mxGeometry y="34" width="450" height="80" as="geometry" />
        </mxCell>
        <mxCell id="M9w1dwyrhwupKzDS5G9y-123" value="" style="endArrow=block;dashed=1;endFill=0;endSize=12;html=1;rounded=0;entryX=0.998;entryY=0.349;entryDx=0;entryDy=0;entryPerimeter=0;exitX=0.004;exitY=0.402;exitDx=0;exitDy=0;exitPerimeter=0;" edge="1" parent="1" source="M9w1dwyrhwupKzDS5G9y-119" target="M9w1dwyrhwupKzDS5G9y-122">
          <mxGeometry width="160" relative="1" as="geometry">
            <mxPoint x="5099" y="3097" as="sourcePoint" />
            <mxPoint x="5049" y="3090" as="targetPoint" />
          </mxGeometry>
        </mxCell>
        <mxCell id="M9w1dwyrhwupKzDS5G9y-124" value="UCourseDaoImp" style="swimlane;fontStyle=1;align=center;verticalAlign=top;childLayout=stackLayout;horizontal=1;startSize=26;horizontalStack=0;resizeParent=1;resizeParentMax=0;resizeLast=0;collapsible=1;marginBottom=0;whiteSpace=wrap;html=1;" vertex="1" parent="1">
          <mxGeometry x="5096" y="3371" width="450" height="171" as="geometry" />
        </mxCell>
        <mxCell id="M9w1dwyrhwupKzDS5G9y-125" value="" style="line;strokeWidth=1;fillColor=none;align=left;verticalAlign=middle;spacingTop=-1;spacingLeft=3;spacingRight=3;rotatable=0;labelPosition=right;points=[];portConstraint=eastwest;strokeColor=inherit;" vertex="1" parent="M9w1dwyrhwupKzDS5G9y-124">
          <mxGeometry y="26" width="450" height="8" as="geometry" />
        </mxCell>
        <mxCell id="M9w1dwyrhwupKzDS5G9y-126" value="&lt;div&gt;+ findAll(): List&amp;lt;Course&amp;gt;&lt;/div&gt;&lt;div&gt;+ pagination(page: int): List&amp;lt;Course&amp;gt;&lt;/div&gt;&lt;div&gt;+ findCourseById(id: int): Course&lt;/div&gt;&lt;div&gt;+ searchByName(name: String, page: int): List&amp;lt;Course&amp;gt;&lt;/div&gt;&lt;div&gt;+ countCourses(): int&lt;/div&gt;&lt;div&gt;+ countCoursesByName(name: String): int&lt;/div&gt;&lt;div&gt;+ save(course: Course): boolean&lt;/div&gt;&lt;div&gt;+ update(course: Course): boolean&lt;/div&gt;&lt;div&gt;+ delete(course: Course): boolean&lt;/div&gt;&lt;div&gt;&lt;br&gt;&lt;/div&gt;" style="text;strokeColor=none;fillColor=none;align=left;verticalAlign=top;spacingLeft=4;spacingRight=4;overflow=hidden;rotatable=0;points=[[0,0.5],[1,0.5]];portConstraint=eastwest;whiteSpace=wrap;html=1;" vertex="1" parent="M9w1dwyrhwupKzDS5G9y-124">
          <mxGeometry y="34" width="450" height="137" as="geometry" />
        </mxCell>
        <mxCell id="M9w1dwyrhwupKzDS5G9y-127" value="&lt;i&gt;UCourseDao&lt;/i&gt;" style="swimlane;fontStyle=1;align=center;verticalAlign=top;childLayout=stackLayout;horizontal=1;startSize=26;horizontalStack=0;resizeParent=1;resizeParentMax=0;resizeLast=0;collapsible=1;marginBottom=0;whiteSpace=wrap;html=1;" vertex="1" parent="1">
          <mxGeometry x="4599" y="3389" width="450" height="114" as="geometry" />
        </mxCell>
        <mxCell id="M9w1dwyrhwupKzDS5G9y-128" value="" style="line;strokeWidth=1;fillColor=none;align=left;verticalAlign=middle;spacingTop=-1;spacingLeft=3;spacingRight=3;rotatable=0;labelPosition=right;points=[];portConstraint=eastwest;strokeColor=inherit;" vertex="1" parent="M9w1dwyrhwupKzDS5G9y-127">
          <mxGeometry y="26" width="450" height="8" as="geometry" />
        </mxCell>
        <mxCell id="M9w1dwyrhwupKzDS5G9y-129" value="&lt;div&gt;&lt;div&gt;+ pagination(page: int): List&amp;lt;Course&amp;gt;&lt;/div&gt;&lt;div&gt;+ findCourseById(id: int): Course&lt;/div&gt;&lt;div&gt;+ searchByName(name: String, page: int): List&amp;lt;Course&amp;gt;&lt;/div&gt;&lt;div&gt;+ countCourses(): int&lt;/div&gt;&lt;div&gt;+ countCoursesByName(name: String): int&lt;/div&gt;&lt;/div&gt;&lt;div&gt;&lt;br&gt;&lt;/div&gt;" style="text;strokeColor=none;fillColor=none;align=left;verticalAlign=top;spacingLeft=4;spacingRight=4;overflow=hidden;rotatable=0;points=[[0,0.5],[1,0.5]];portConstraint=eastwest;whiteSpace=wrap;html=1;" vertex="1" parent="M9w1dwyrhwupKzDS5G9y-127">
          <mxGeometry y="34" width="450" height="80" as="geometry" />
        </mxCell>
        <mxCell id="M9w1dwyrhwupKzDS5G9y-130" value="" style="endArrow=block;dashed=1;endFill=0;endSize=12;html=1;rounded=0;entryX=0.993;entryY=0.349;entryDx=0;entryDy=0;entryPerimeter=0;exitX=0;exitY=0.5;exitDx=0;exitDy=0;" edge="1" parent="1" source="M9w1dwyrhwupKzDS5G9y-126" target="M9w1dwyrhwupKzDS5G9y-129">
          <mxGeometry width="160" relative="1" as="geometry">
            <mxPoint x="5108" y="3288" as="sourcePoint" />
            <mxPoint x="5058" y="3279" as="targetPoint" />
          </mxGeometry>
        </mxCell>
        <mxCell id="M9w1dwyrhwupKzDS5G9y-131" value="UEnrollmentDaoImp" style="swimlane;fontStyle=1;align=center;verticalAlign=top;childLayout=stackLayout;horizontal=1;startSize=26;horizontalStack=0;resizeParent=1;resizeParentMax=0;resizeLast=0;collapsible=1;marginBottom=0;whiteSpace=wrap;html=1;" vertex="1" parent="1">
          <mxGeometry x="5096" y="3558" width="450" height="203" as="geometry" />
        </mxCell>
        <mxCell id="M9w1dwyrhwupKzDS5G9y-132" value="" style="line;strokeWidth=1;fillColor=none;align=left;verticalAlign=middle;spacingTop=-1;spacingLeft=3;spacingRight=3;rotatable=0;labelPosition=right;points=[];portConstraint=eastwest;strokeColor=inherit;" vertex="1" parent="M9w1dwyrhwupKzDS5G9y-131">
          <mxGeometry y="26" width="450" height="8" as="geometry" />
        </mxCell>
        <mxCell id="M9w1dwyrhwupKzDS5G9y-133" value="&lt;div&gt;+ findAll(): List&amp;lt;Enrollment&amp;gt;&lt;br/&gt;+ save(enrollment: Enrollment): boolean&amp;nbsp;&lt;/div&gt;&lt;div&gt;+ update(enrollment: Enrollment): boolean&lt;br/&gt;+ delete(enrollment: Enrollment): boolean&amp;nbsp;&lt;/div&gt;&lt;div&gt;+ getEnrollmentsByStudent(studentId: int, page: int): List&amp;lt;Enrollment&amp;gt;&amp;nbsp;&lt;/div&gt;&lt;div&gt;+ getWaitingEnrollmentsByStudent(studentId: int): List&amp;lt;Enrollment&amp;gt;&amp;nbsp;&lt;/div&gt;&lt;div&gt;+ countEnrollmentsByStudent(studentId: int): int&lt;br/&gt;+ registerCourse(studentId: int, courseId: int): boolean&amp;nbsp;&lt;/div&gt;&lt;div&gt;+ cancelEnrollment(enrollmentId: int, studentId: int): boolean&amp;nbsp;&lt;/div&gt;&lt;div&gt;+ getEnrollmentsByStudentSorted(studentId: int, field: String, order: String, page: int): List&amp;lt;Enrollment&amp;gt;&lt;/div&gt;" style="text;strokeColor=none;fillColor=none;align=left;verticalAlign=top;spacingLeft=4;spacingRight=4;overflow=hidden;rotatable=0;points=[[0,0.5],[1,0.5]];portConstraint=eastwest;whiteSpace=wrap;html=1;" vertex="1" parent="M9w1dwyrhwupKzDS5G9y-131">
          <mxGeometry y="34" width="450" height="169" as="geometry" />
        </mxCell>
        <mxCell id="M9w1dwyrhwupKzDS5G9y-134" value="&lt;i&gt;UEnrollmentDao&lt;/i&gt;" style="swimlane;fontStyle=1;align=center;verticalAlign=top;childLayout=stackLayout;horizontal=1;startSize=26;horizontalStack=0;resizeParent=1;resizeParentMax=0;resizeLast=0;collapsible=1;marginBottom=0;whiteSpace=wrap;html=1;" vertex="1" parent="1">
          <mxGeometry x="4599" y="3570" width="450" height="148" as="geometry" />
        </mxCell>
        <mxCell id="M9w1dwyrhwupKzDS5G9y-135" value="" style="line;strokeWidth=1;fillColor=none;align=left;verticalAlign=middle;spacingTop=-1;spacingLeft=3;spacingRight=3;rotatable=0;labelPosition=right;points=[];portConstraint=eastwest;strokeColor=inherit;" vertex="1" parent="M9w1dwyrhwupKzDS5G9y-134">
          <mxGeometry y="26" width="450" height="8" as="geometry" />
        </mxCell>
        <mxCell id="M9w1dwyrhwupKzDS5G9y-136" value="&lt;div&gt;&lt;div&gt;&lt;div&gt;+ registerCourse(studentId: int, courseId: int): boolean&lt;/div&gt;&lt;div&gt;+ getEnrollmentsByStudent(studentId: int, page: int): List&amp;lt;Enrollment&amp;gt;&lt;/div&gt;&lt;div&gt;+ countEnrollmentsByStudent(studentId: int): int&lt;/div&gt;&lt;div&gt;+ getWaitingEnrollmentsByStudent(studentId: int): List&amp;lt;Enrollment&amp;gt;&lt;/div&gt;&lt;div&gt;+ cancelEnrollment(enrollmentId: int, studentId: int): boolean&lt;/div&gt;&lt;div&gt;+ getEnrollmentsByStudentSorted(studentId: int, field: String, order: String, page: int): List&amp;lt;Enrollment&amp;gt;&lt;/div&gt;&lt;/div&gt;&lt;/div&gt;" style="text;strokeColor=none;fillColor=none;align=left;verticalAlign=top;spacingLeft=4;spacingRight=4;overflow=hidden;rotatable=0;points=[[0,0.5],[1,0.5]];portConstraint=eastwest;whiteSpace=wrap;html=1;" vertex="1" parent="M9w1dwyrhwupKzDS5G9y-134">
          <mxGeometry y="34" width="450" height="114" as="geometry" />
        </mxCell>
        <mxCell id="M9w1dwyrhwupKzDS5G9y-137" value="" style="endArrow=block;dashed=1;endFill=0;endSize=12;html=1;rounded=0;entryX=0.991;entryY=0.416;entryDx=0;entryDy=0;entryPerimeter=0;exitX=0;exitY=0.5;exitDx=0;exitDy=0;" edge="1" parent="1" source="M9w1dwyrhwupKzDS5G9y-133" target="M9w1dwyrhwupKzDS5G9y-136">
          <mxGeometry width="160" relative="1" as="geometry">
            <mxPoint x="5106" y="3484" as="sourcePoint" />
            <mxPoint x="5056" y="3461" as="targetPoint" />
          </mxGeometry>
        </mxCell>
        <mxCell id="M9w1dwyrhwupKzDS5G9y-138" value="&lt;i&gt;IUCourseService&lt;/i&gt;" style="swimlane;fontStyle=1;align=center;verticalAlign=top;childLayout=stackLayout;horizontal=1;startSize=26;horizontalStack=0;resizeParent=1;resizeParentMax=0;resizeLast=0;collapsible=1;marginBottom=0;whiteSpace=wrap;html=1;" vertex="1" parent="1">
          <mxGeometry x="3598" y="2984" width="350" height="124" as="geometry" />
        </mxCell>
        <mxCell id="M9w1dwyrhwupKzDS5G9y-139" value="" style="line;strokeWidth=1;fillColor=none;align=left;verticalAlign=middle;spacingTop=-1;spacingLeft=3;spacingRight=3;rotatable=0;labelPosition=right;points=[];portConstraint=eastwest;strokeColor=inherit;" vertex="1" parent="M9w1dwyrhwupKzDS5G9y-138">
          <mxGeometry y="26" width="350" height="8" as="geometry" />
        </mxCell>
        <mxCell id="M9w1dwyrhwupKzDS5G9y-140" value="&lt;div&gt;+ getCoursesByPage(page: int): List&amp;lt;Course&amp;gt;&lt;/div&gt;&lt;div&gt;+ findCourseById(id: int): Course&lt;/div&gt;&lt;div&gt;+ searchByName(name: String, page: int): List&amp;lt;Course&amp;gt;&lt;/div&gt;&lt;div&gt;+ countCourses(): int&lt;/div&gt;&lt;div&gt;+ countCoursesByName(name: String): int&lt;/div&gt;" style="text;strokeColor=none;fillColor=none;align=left;verticalAlign=top;spacingLeft=4;spacingRight=4;overflow=hidden;rotatable=0;points=[[0,0.5],[1,0.5]];portConstraint=eastwest;whiteSpace=wrap;html=1;" vertex="1" parent="M9w1dwyrhwupKzDS5G9y-138">
          <mxGeometry y="34" width="350" height="90" as="geometry" />
        </mxCell>
        <mxCell id="M9w1dwyrhwupKzDS5G9y-141" value="&lt;i&gt;IUEnrollmentService&lt;/i&gt;" style="swimlane;fontStyle=1;align=center;verticalAlign=top;childLayout=stackLayout;horizontal=1;startSize=26;horizontalStack=0;resizeParent=1;resizeParentMax=0;resizeLast=0;collapsible=1;marginBottom=0;whiteSpace=wrap;html=1;" vertex="1" parent="1">
          <mxGeometry x="3594" y="3262" width="350" height="168" as="geometry" />
        </mxCell>
        <mxCell id="M9w1dwyrhwupKzDS5G9y-142" value="" style="line;strokeWidth=1;fillColor=none;align=left;verticalAlign=middle;spacingTop=-1;spacingLeft=3;spacingRight=3;rotatable=0;labelPosition=right;points=[];portConstraint=eastwest;strokeColor=inherit;" vertex="1" parent="M9w1dwyrhwupKzDS5G9y-141">
          <mxGeometry y="26" width="350" height="8" as="geometry" />
        </mxCell>
        <mxCell id="M9w1dwyrhwupKzDS5G9y-143" value="&lt;div&gt;+&amp;nbsp;&lt;span style=&quot;background-color: transparent; color: light-dark(rgb(0, 0, 0), rgb(255, 255, 255));&quot;&gt;getEnrollmentsByStudent(studentId, page): List&amp;lt;Enrollment&amp;gt;&lt;/span&gt;&lt;/div&gt;&lt;div&gt;+&amp;nbsp;&lt;span style=&quot;background-color: transparent; color: light-dark(rgb(0, 0, 0), rgb(255, 255, 255));&quot;&gt;getWaitingEnrollmentsByStudent(studentId): List&amp;lt;Enrollment&amp;gt;&lt;/span&gt;&lt;/div&gt;&lt;div&gt;+&amp;nbsp;&lt;span style=&quot;background-color: transparent; color: light-dark(rgb(0, 0, 0), rgb(255, 255, 255));&quot;&gt;countEnrollmentsByStudent(studentId): int&lt;/span&gt;&lt;/div&gt;&lt;div&gt;+&amp;nbsp;&lt;span style=&quot;background-color: transparent; color: light-dark(rgb(0, 0, 0), rgb(255, 255, 255));&quot;&gt;registerCourse(studentId, courseId): boolean&lt;/span&gt;&lt;/div&gt;&lt;div&gt;+ cancelEnrollment(enrollmentId, studentId): boolean&amp;nbsp;List&amp;lt;Student&amp;gt;&lt;/div&gt;&lt;div&gt;+&amp;nbsp;&lt;span style=&quot;background-color: transparent; color: light-dark(rgb(0, 0, 0), rgb(255, 255, 255));&quot;&gt;getEnrollmentsByStudentSorted(studentId, field, order, page): List&amp;lt;Enrollment&amp;gt;&lt;/span&gt;&lt;/div&gt;&lt;div&gt;&lt;br&gt;&lt;/div&gt;" style="text;strokeColor=none;fillColor=none;align=left;verticalAlign=top;spacingLeft=4;spacingRight=4;overflow=hidden;rotatable=0;points=[[0,0.5],[1,0.5]];portConstraint=eastwest;whiteSpace=wrap;html=1;" vertex="1" parent="M9w1dwyrhwupKzDS5G9y-141">
          <mxGeometry y="34" width="350" height="134" as="geometry" />
        </mxCell>
        <mxCell id="M9w1dwyrhwupKzDS5G9y-144" value="UCourseServiceImp" style="swimlane;fontStyle=1;align=center;verticalAlign=top;childLayout=stackLayout;horizontal=1;startSize=26;horizontalStack=0;resizeParent=1;resizeParentMax=0;resizeLast=0;collapsible=1;marginBottom=0;whiteSpace=wrap;html=1;" vertex="1" parent="1">
          <mxGeometry x="4071" y="3032" width="317" height="195" as="geometry" />
        </mxCell>
        <mxCell id="M9w1dwyrhwupKzDS5G9y-145" value="- courseDao:&amp;nbsp;&lt;span style=&quot;font-family: &amp;quot;JetBrains Mono&amp;quot;, monospace; background-color: rgb(255, 255, 255);&quot;&gt;UCourseDao&lt;/span&gt;" style="text;strokeColor=none;fillColor=none;align=left;verticalAlign=top;spacingLeft=4;spacingRight=4;overflow=hidden;rotatable=0;points=[[0,0.5],[1,0.5]];portConstraint=eastwest;whiteSpace=wrap;html=1;" vertex="1" parent="M9w1dwyrhwupKzDS5G9y-144">
          <mxGeometry y="26" width="317" height="26" as="geometry" />
        </mxCell>
        <mxCell id="M9w1dwyrhwupKzDS5G9y-146" value="" style="line;strokeWidth=1;fillColor=none;align=left;verticalAlign=middle;spacingTop=-1;spacingLeft=3;spacingRight=3;rotatable=0;labelPosition=right;points=[];portConstraint=eastwest;strokeColor=inherit;" vertex="1" parent="M9w1dwyrhwupKzDS5G9y-144">
          <mxGeometry y="52" width="317" height="8" as="geometry" />
        </mxCell>
        <mxCell id="M9w1dwyrhwupKzDS5G9y-147" value="&lt;div&gt;+ findAll(): List&amp;lt;Course&amp;gt;&lt;/div&gt;&lt;div&gt;+ save(course: Course): boolean&lt;/div&gt;&lt;div&gt;+ update(course: Course): boolean&lt;/div&gt;&lt;div&gt;+ delete(course: Course): boolean&lt;/div&gt;&lt;div&gt;+ getCoursesByPage(page: int): List&amp;lt;Course&amp;gt;&lt;/div&gt;&lt;div&gt;+ findCourseById(id: int): Course&lt;/div&gt;&lt;div&gt;+ searchByName(name: String, page: int): List&amp;lt;Course&amp;gt;&lt;/div&gt;&lt;div&gt;+ countCourses(): int&lt;/div&gt;&lt;div&gt;+ countCoursesByName(name: String): int&lt;/div&gt;" style="text;strokeColor=none;fillColor=none;align=left;verticalAlign=top;spacingLeft=4;spacingRight=4;overflow=hidden;rotatable=0;points=[[0,0.5],[1,0.5]];portConstraint=eastwest;whiteSpace=wrap;html=1;" vertex="1" parent="M9w1dwyrhwupKzDS5G9y-144">
          <mxGeometry y="60" width="317" height="135" as="geometry" />
        </mxCell>
        <mxCell id="M9w1dwyrhwupKzDS5G9y-148" value="UEnrollmentImp" style="swimlane;fontStyle=1;align=center;verticalAlign=top;childLayout=stackLayout;horizontal=1;startSize=26;horizontalStack=0;resizeParent=1;resizeParentMax=0;resizeLast=0;collapsible=1;marginBottom=0;whiteSpace=wrap;html=1;" vertex="1" parent="1">
          <mxGeometry x="4071" y="3285" width="317" height="195" as="geometry" />
        </mxCell>
        <mxCell id="M9w1dwyrhwupKzDS5G9y-149" value="- courseDao:&amp;nbsp;&lt;span style=&quot;font-family: &amp;quot;JetBrains Mono&amp;quot;, monospace; background-color: rgb(255, 255, 255);&quot;&gt;UCourseDao&lt;/span&gt;" style="text;strokeColor=none;fillColor=none;align=left;verticalAlign=top;spacingLeft=4;spacingRight=4;overflow=hidden;rotatable=0;points=[[0,0.5],[1,0.5]];portConstraint=eastwest;whiteSpace=wrap;html=1;" vertex="1" parent="M9w1dwyrhwupKzDS5G9y-148">
          <mxGeometry y="26" width="317" height="26" as="geometry" />
        </mxCell>
        <mxCell id="M9w1dwyrhwupKzDS5G9y-150" value="" style="line;strokeWidth=1;fillColor=none;align=left;verticalAlign=middle;spacingTop=-1;spacingLeft=3;spacingRight=3;rotatable=0;labelPosition=right;points=[];portConstraint=eastwest;strokeColor=inherit;" vertex="1" parent="M9w1dwyrhwupKzDS5G9y-148">
          <mxGeometry y="52" width="317" height="8" as="geometry" />
        </mxCell>
        <mxCell id="M9w1dwyrhwupKzDS5G9y-151" value="&lt;div&gt;+ findAll(): List&amp;lt;Course&amp;gt;&lt;/div&gt;&lt;div&gt;+ save(course: Course): boolean&lt;/div&gt;&lt;div&gt;+ update(course: Course): boolean&lt;/div&gt;&lt;div&gt;+ delete(course: Course): boolean&lt;/div&gt;&lt;div&gt;+ getCoursesByPage(page: int): List&amp;lt;Course&amp;gt;&lt;/div&gt;&lt;div&gt;+ findCourseById(id: int): Course&lt;/div&gt;&lt;div&gt;+ searchByName(name: String, page: int): List&amp;lt;Course&amp;gt;&lt;/div&gt;&lt;div&gt;+ countCourses(): int&lt;/div&gt;&lt;div&gt;+ countCoursesByName(name: String): int&lt;/div&gt;" style="text;strokeColor=none;fillColor=none;align=left;verticalAlign=top;spacingLeft=4;spacingRight=4;overflow=hidden;rotatable=0;points=[[0,0.5],[1,0.5]];portConstraint=eastwest;whiteSpace=wrap;html=1;" vertex="1" parent="M9w1dwyrhwupKzDS5G9y-148">
          <mxGeometry y="60" width="317" height="135" as="geometry" />
        </mxCell>
        <mxCell id="M9w1dwyrhwupKzDS5G9y-152" value="" style="endArrow=block;dashed=1;endFill=0;endSize=12;html=1;rounded=0;entryX=0.999;entryY=0.39;entryDx=0;entryDy=0;entryPerimeter=0;exitX=0;exitY=0.5;exitDx=0;exitDy=0;" edge="1" parent="1" source="M9w1dwyrhwupKzDS5G9y-147" target="M9w1dwyrhwupKzDS5G9y-140">
          <mxGeometry width="160" relative="1" as="geometry">
            <mxPoint x="4081" y="2854" as="sourcePoint" />
            <mxPoint x="3954" y="2837" as="targetPoint" />
          </mxGeometry>
        </mxCell>
        <mxCell id="M9w1dwyrhwupKzDS5G9y-153" value="" style="endArrow=block;dashed=1;endFill=0;endSize=12;html=1;rounded=0;entryX=1;entryY=0.5;entryDx=0;entryDy=0;exitX=0;exitY=0.5;exitDx=0;exitDy=0;" edge="1" parent="1" source="M9w1dwyrhwupKzDS5G9y-151" target="M9w1dwyrhwupKzDS5G9y-143">
          <mxGeometry width="160" relative="1" as="geometry">
            <mxPoint x="4081" y="3170" as="sourcePoint" />
            <mxPoint x="3958" y="3063" as="targetPoint" />
          </mxGeometry>
        </mxCell>
        <mxCell id="M9w1dwyrhwupKzDS5G9y-154" style="edgeStyle=orthogonalEdgeStyle;rounded=0;orthogonalLoop=1;jettySize=auto;html=1;entryX=0;entryY=0.5;entryDx=0;entryDy=0;" edge="1" parent="1" source="M9w1dwyrhwupKzDS5G9y-29" target="M9w1dwyrhwupKzDS5G9y-122">
          <mxGeometry relative="1" as="geometry" />
        </mxCell>
        <mxCell id="M9w1dwyrhwupKzDS5G9y-155" style="edgeStyle=orthogonalEdgeStyle;rounded=0;orthogonalLoop=1;jettySize=auto;html=1;entryX=0;entryY=0.5;entryDx=0;entryDy=0;" edge="1" parent="1" source="M9w1dwyrhwupKzDS5G9y-33" target="M9w1dwyrhwupKzDS5G9y-87">
          <mxGeometry relative="1" as="geometry" />
        </mxCell>
        <mxCell id="M9w1dwyrhwupKzDS5G9y-156" style="edgeStyle=orthogonalEdgeStyle;rounded=0;orthogonalLoop=1;jettySize=auto;html=1;entryX=0;entryY=0.5;entryDx=0;entryDy=0;" edge="1" parent="1" source="M9w1dwyrhwupKzDS5G9y-41" target="M9w1dwyrhwupKzDS5G9y-78">
          <mxGeometry relative="1" as="geometry" />
        </mxCell>
        <mxCell id="M9w1dwyrhwupKzDS5G9y-157" style="edgeStyle=orthogonalEdgeStyle;rounded=0;orthogonalLoop=1;jettySize=auto;html=1;entryX=0;entryY=0.5;entryDx=0;entryDy=0;" edge="1" parent="1" source="M9w1dwyrhwupKzDS5G9y-45" target="M9w1dwyrhwupKzDS5G9y-81">
          <mxGeometry relative="1" as="geometry" />
        </mxCell>
        <mxCell id="M9w1dwyrhwupKzDS5G9y-158" style="edgeStyle=orthogonalEdgeStyle;rounded=0;orthogonalLoop=1;jettySize=auto;html=1;entryX=0;entryY=0.5;entryDx=0;entryDy=0;" edge="1" parent="1" source="M9w1dwyrhwupKzDS5G9y-37" target="M9w1dwyrhwupKzDS5G9y-84">
          <mxGeometry relative="1" as="geometry" />
        </mxCell>
        <mxCell id="M9w1dwyrhwupKzDS5G9y-159" style="edgeStyle=orthogonalEdgeStyle;rounded=0;orthogonalLoop=1;jettySize=auto;html=1;entryX=0;entryY=0.5;entryDx=0;entryDy=0;" edge="1" parent="1" source="M9w1dwyrhwupKzDS5G9y-147" target="M9w1dwyrhwupKzDS5G9y-129">
          <mxGeometry relative="1" as="geometry" />
        </mxCell>
        <mxCell id="M9w1dwyrhwupKzDS5G9y-160" style="edgeStyle=orthogonalEdgeStyle;rounded=0;orthogonalLoop=1;jettySize=auto;html=1;entryX=0;entryY=0.5;entryDx=0;entryDy=0;" edge="1" parent="1" source="M9w1dwyrhwupKzDS5G9y-151" target="M9w1dwyrhwupKzDS5G9y-136">
          <mxGeometry relative="1" as="geometry" />
        </mxCell>
        <mxCell id="M9w1dwyrhwupKzDS5G9y-161" style="edgeStyle=orthogonalEdgeStyle;rounded=0;orthogonalLoop=1;jettySize=auto;html=1;entryX=0.468;entryY=0.984;entryDx=0;entryDy=0;entryPerimeter=0;" edge="1" parent="1" source="M9w1dwyrhwupKzDS5G9y-119" target="M9w1dwyrhwupKzDS5G9y-108">
          <mxGeometry relative="1" as="geometry" />
        </mxCell>
        <mxCell id="M9w1dwyrhwupKzDS5G9y-162" style="edgeStyle=orthogonalEdgeStyle;rounded=0;orthogonalLoop=1;jettySize=auto;html=1;entryX=0.666;entryY=1.024;entryDx=0;entryDy=0;entryPerimeter=0;" edge="1" parent="1" source="M9w1dwyrhwupKzDS5G9y-126" target="M9w1dwyrhwupKzDS5G9y-108">
          <mxGeometry relative="1" as="geometry" />
        </mxCell>
        <mxCell id="M9w1dwyrhwupKzDS5G9y-163" style="edgeStyle=orthogonalEdgeStyle;rounded=0;orthogonalLoop=1;jettySize=auto;html=1;entryX=0.926;entryY=0.997;entryDx=0;entryDy=0;entryPerimeter=0;" edge="1" parent="1" source="M9w1dwyrhwupKzDS5G9y-133" target="M9w1dwyrhwupKzDS5G9y-108">
          <mxGeometry relative="1" as="geometry" />
        </mxCell>
        <mxCell id="M9w1dwyrhwupKzDS5G9y-164" value="StudentValidator" style="swimlane;fontStyle=1;align=center;verticalAlign=top;childLayout=stackLayout;horizontal=1;startSize=26;horizontalStack=0;resizeParent=1;resizeParentMax=0;resizeLast=0;collapsible=1;marginBottom=0;whiteSpace=wrap;html=1;" vertex="1" parent="1">
          <mxGeometry x="3121" y="3514" width="360" height="132" as="geometry" />
        </mxCell>
        <mxCell id="M9w1dwyrhwupKzDS5G9y-165" value="" style="line;strokeWidth=1;fillColor=none;align=left;verticalAlign=middle;spacingTop=-1;spacingLeft=3;spacingRight=3;rotatable=0;labelPosition=right;points=[];portConstraint=eastwest;strokeColor=inherit;" vertex="1" parent="M9w1dwyrhwupKzDS5G9y-164">
          <mxGeometry y="26" width="360" height="8" as="geometry" />
        </mxCell>
        <mxCell id="M9w1dwyrhwupKzDS5G9y-166" value="&lt;div&gt;+&amp;nbsp;&lt;span style=&quot;background-color: transparent; color: light-dark(rgb(0, 0, 0), rgb(255, 255, 255));&quot;&gt;validateStudentName(scanner): String&lt;/span&gt;&lt;/div&gt;&lt;div&gt;+&amp;nbsp;&lt;span style=&quot;background-color: transparent; color: light-dark(rgb(0, 0, 0), rgb(255, 255, 255));&quot;&gt;validateDob(scanner): LocalDate&lt;/span&gt;&lt;/div&gt;&lt;div&gt;+&amp;nbsp;&lt;span style=&quot;background-color: transparent; color: light-dark(rgb(0, 0, 0), rgb(255, 255, 255));&quot;&gt;validateEmail(scanner, studentId): String&lt;/span&gt;&lt;/div&gt;&lt;div&gt;+&amp;nbsp;&lt;span style=&quot;background-color: transparent; color: light-dark(rgb(0, 0, 0), rgb(255, 255, 255));&quot;&gt;validateSex(scanner): boolean&lt;/span&gt;&lt;/div&gt;&lt;div&gt;+&amp;nbsp;&lt;span style=&quot;background-color: transparent; color: light-dark(rgb(0, 0, 0), rgb(255, 255, 255));&quot;&gt;validatePhone(scanner): String&lt;/span&gt;&lt;/div&gt;&lt;div&gt;&lt;span style=&quot;background-color: transparent; color: light-dark(rgb(0, 0, 0), rgb(255, 255, 255));&quot;&gt;+&amp;nbsp;&lt;/span&gt;&lt;span style=&quot;background-color: transparent; color: light-dark(rgb(0, 0, 0), rgb(255, 255, 255));&quot;&gt;validatePassword(scanner): String&lt;/span&gt;&lt;/div&gt;&lt;div&gt;&lt;br&gt;&lt;/div&gt;" style="text;strokeColor=none;fillColor=none;align=left;verticalAlign=top;spacingLeft=4;spacingRight=4;overflow=hidden;rotatable=0;points=[[0,0.5],[1,0.5]];portConstraint=eastwest;whiteSpace=wrap;html=1;" vertex="1" parent="M9w1dwyrhwupKzDS5G9y-164">
          <mxGeometry y="34" width="360" height="98" as="geometry" />
        </mxCell>
        <mxCell id="M9w1dwyrhwupKzDS5G9y-167" value="CourseValidator" style="swimlane;fontStyle=1;align=center;verticalAlign=top;childLayout=stackLayout;horizontal=1;startSize=26;horizontalStack=0;resizeParent=1;resizeParentMax=0;resizeLast=0;collapsible=1;marginBottom=0;whiteSpace=wrap;html=1;" vertex="1" parent="1">
          <mxGeometry x="2842" y="3761" width="360" height="108" as="geometry" />
        </mxCell>
        <mxCell id="M9w1dwyrhwupKzDS5G9y-168" value="" style="line;strokeWidth=1;fillColor=none;align=left;verticalAlign=middle;spacingTop=-1;spacingLeft=3;spacingRight=3;rotatable=0;labelPosition=right;points=[];portConstraint=eastwest;strokeColor=inherit;" vertex="1" parent="M9w1dwyrhwupKzDS5G9y-167">
          <mxGeometry y="26" width="360" height="8" as="geometry" />
        </mxCell>
        <mxCell id="M9w1dwyrhwupKzDS5G9y-169" value="&lt;div&gt;+&amp;nbsp;&lt;span style=&quot;background-color: transparent; color: light-dark(rgb(0, 0, 0), rgb(255, 255, 255));&quot;&gt;validateCourseName(scanner): String&lt;/span&gt;&lt;/div&gt;&lt;div&gt;&lt;span style=&quot;background-color: transparent; color: light-dark(rgb(0, 0, 0), rgb(255, 255, 255));&quot;&gt;+&amp;nbsp;&lt;/span&gt;&lt;span style=&quot;background-color: transparent; color: light-dark(rgb(0, 0, 0), rgb(255, 255, 255));&quot;&gt;validateCourseNameForUpdate(scanner, courseId): String&lt;/span&gt;&lt;/div&gt;&lt;div&gt;+&amp;nbsp;&lt;span style=&quot;background-color: transparent; color: light-dark(rgb(0, 0, 0), rgb(255, 255, 255));&quot;&gt;validateDuration(scanner): int&lt;/span&gt;&lt;/div&gt;&lt;div&gt;+&amp;nbsp;&lt;span style=&quot;background-color: transparent; color: light-dark(rgb(0, 0, 0), rgb(255, 255, 255));&quot;&gt;validateInstructor(scanner): String&lt;/span&gt;&lt;/div&gt;&lt;div&gt;&lt;br&gt;&lt;/div&gt;" style="text;strokeColor=none;fillColor=none;align=left;verticalAlign=top;spacingLeft=4;spacingRight=4;overflow=hidden;rotatable=0;points=[[0,0.5],[1,0.5]];portConstraint=eastwest;whiteSpace=wrap;html=1;" vertex="1" parent="M9w1dwyrhwupKzDS5G9y-167">
          <mxGeometry y="34" width="360" height="74" as="geometry" />
        </mxCell>
        <mxCell id="M9w1dwyrhwupKzDS5G9y-170" style="edgeStyle=orthogonalEdgeStyle;rounded=0;orthogonalLoop=1;jettySize=auto;html=1;entryX=0;entryY=0.5;entryDx=0;entryDy=0;" edge="1" parent="1" source="M9w1dwyrhwupKzDS5G9y-171" target="M9w1dwyrhwupKzDS5G9y-116">
          <mxGeometry relative="1" as="geometry">
            <Array as="points">
              <mxPoint x="2419" y="2428" />
              <mxPoint x="2419" y="3613" />
            </Array>
          </mxGeometry>
        </mxCell>
        <mxCell id="M9w1dwyrhwupKzDS5G9y-171" value="CourseUI" style="swimlane;fontStyle=1;align=center;verticalAlign=top;childLayout=stackLayout;horizontal=1;startSize=26;horizontalStack=0;resizeParent=1;resizeParentMax=0;resizeLast=0;collapsible=1;marginBottom=0;whiteSpace=wrap;html=1;" vertex="1" parent="1">
          <mxGeometry x="2730" y="2328" width="274" height="200" as="geometry" />
        </mxCell>
        <mxCell id="M9w1dwyrhwupKzDS5G9y-172" value="" style="line;strokeWidth=1;fillColor=none;align=left;verticalAlign=middle;spacingTop=-1;spacingLeft=3;spacingRight=3;rotatable=0;labelPosition=right;points=[];portConstraint=eastwest;strokeColor=inherit;" vertex="1" parent="M9w1dwyrhwupKzDS5G9y-171">
          <mxGeometry y="26" width="274" height="8" as="geometry" />
        </mxCell>
        <mxCell id="M9w1dwyrhwupKzDS5G9y-173" value="+ displayCourseUI()&lt;div&gt;+&amp;nbsp;&lt;span style=&quot;background-color: transparent; color: light-dark(rgb(0, 0, 0), rgb(255, 255, 255));&quot;&gt;displayCoursesWithPagination()&lt;/span&gt;&lt;/div&gt;&lt;div&gt;&lt;span style=&quot;background-color: transparent; color: light-dark(rgb(0, 0, 0), rgb(255, 255, 255));&quot;&gt;+&amp;nbsp;&lt;/span&gt;&lt;span style=&quot;background-color: transparent; color: light-dark(rgb(0, 0, 0), rgb(255, 255, 255));&quot;&gt;addNewCourse()&lt;/span&gt;&lt;/div&gt;&lt;div&gt;&lt;span style=&quot;background-color: transparent; color: light-dark(rgb(0, 0, 0), rgb(255, 255, 255));&quot;&gt;+&amp;nbsp;&lt;/span&gt;&lt;span style=&quot;background-color: transparent; color: light-dark(rgb(0, 0, 0), rgb(255, 255, 255));&quot;&gt;editCourse()&lt;/span&gt;&lt;/div&gt;&lt;div&gt;&lt;span style=&quot;background-color: transparent; color: light-dark(rgb(0, 0, 0), rgb(255, 255, 255));&quot;&gt;+&amp;nbsp;&lt;/span&gt;&lt;span style=&quot;background-color: transparent; color: light-dark(rgb(0, 0, 0), rgb(255, 255, 255));&quot;&gt;deleteCourse()&lt;/span&gt;&lt;/div&gt;&lt;div&gt;&lt;span style=&quot;background-color: transparent; color: light-dark(rgb(0, 0, 0), rgb(255, 255, 255));&quot;&gt;+&amp;nbsp;&lt;/span&gt;&lt;span style=&quot;background-color: transparent; color: light-dark(rgb(0, 0, 0), rgb(255, 255, 255));&quot;&gt;searchCoursesByName()&lt;/span&gt;&lt;/div&gt;&lt;div&gt;&lt;span style=&quot;background-color: transparent; color: light-dark(rgb(0, 0, 0), rgb(255, 255, 255));&quot;&gt;+&amp;nbsp;&lt;/span&gt;&lt;span style=&quot;background-color: transparent; color: light-dark(rgb(0, 0, 0), rgb(255, 255, 255));&quot;&gt;sortCourses()&lt;/span&gt;&lt;/div&gt;&lt;div&gt;&lt;span style=&quot;background-color: transparent; color: light-dark(rgb(0, 0, 0), rgb(255, 255, 255));&quot;&gt;+&amp;nbsp;&lt;/span&gt;&lt;span style=&quot;background-color: transparent; color: light-dark(rgb(0, 0, 0), rgb(255, 255, 255));&quot;&gt;displayCourseList(List&amp;lt;Course&amp;gt; courses, int page, int totalPages, String title)&lt;/span&gt;&lt;/div&gt;&lt;div&gt;&lt;span style=&quot;background-color: transparent; color: light-dark(rgb(0, 0, 0), rgb(255, 255, 255));&quot;&gt;+&amp;nbsp;&lt;/span&gt;&lt;span style=&quot;background-color: transparent; color: light-dark(rgb(0, 0, 0), rgb(255, 255, 255));&quot;&gt;handlePaginationInput(int page, int totalPages)&lt;/span&gt;&lt;/div&gt;" style="text;strokeColor=none;fillColor=none;align=left;verticalAlign=top;spacingLeft=4;spacingRight=4;overflow=hidden;rotatable=0;points=[[0,0.5],[1,0.5]];portConstraint=eastwest;whiteSpace=wrap;html=1;" vertex="1" parent="M9w1dwyrhwupKzDS5G9y-171">
          <mxGeometry y="34" width="274" height="166" as="geometry" />
        </mxCell>
        <mxCell id="M9w1dwyrhwupKzDS5G9y-174" value="EnrollmentUI" style="swimlane;fontStyle=1;align=center;verticalAlign=top;childLayout=stackLayout;horizontal=1;startSize=26;horizontalStack=0;resizeParent=1;resizeParentMax=0;resizeLast=0;collapsible=1;marginBottom=0;whiteSpace=wrap;html=1;" vertex="1" parent="1">
          <mxGeometry x="3021" y="2328" width="274" height="137" as="geometry" />
        </mxCell>
        <mxCell id="M9w1dwyrhwupKzDS5G9y-175" value="" style="line;strokeWidth=1;fillColor=none;align=left;verticalAlign=middle;spacingTop=-1;spacingLeft=3;spacingRight=3;rotatable=0;labelPosition=right;points=[];portConstraint=eastwest;strokeColor=inherit;" vertex="1" parent="M9w1dwyrhwupKzDS5G9y-174">
          <mxGeometry y="26" width="274" height="8" as="geometry" />
        </mxCell>
        <mxCell id="M9w1dwyrhwupKzDS5G9y-176" value="+ displayEnrollmentMenu()&lt;div&gt;+&amp;nbsp;&lt;span style=&quot;background-color: transparent; color: light-dark(rgb(0, 0, 0), rgb(255, 255, 255));&quot;&gt;displayConfirmedEnrollmentsByCourse()&lt;/span&gt;&lt;/div&gt;&lt;div&gt;&lt;span style=&quot;background-color: transparent; color: light-dark(rgb(0, 0, 0), rgb(255, 255, 255));&quot;&gt;+&amp;nbsp;&lt;/span&gt;&lt;span style=&quot;background-color: transparent; color: light-dark(rgb(0, 0, 0), rgb(255, 255, 255));&quot;&gt;displayDeniedCancelEnrollmentsByCourse(int courseId, int page, int totalPages)&lt;/span&gt;&lt;/div&gt;&lt;div&gt;&lt;span style=&quot;background-color: transparent; color: light-dark(rgb(0, 0, 0), rgb(255, 255, 255));&quot;&gt;+&amp;nbsp;&lt;/span&gt;&lt;span style=&quot;background-color: transparent; color: light-dark(rgb(0, 0, 0), rgb(255, 255, 255));&quot;&gt;approveEnrollment()&lt;/span&gt;&lt;/div&gt;&lt;div&gt;&lt;span style=&quot;background-color: transparent; color: light-dark(rgb(0, 0, 0), rgb(255, 255, 255));&quot;&gt;+&amp;nbsp;&lt;/span&gt;&lt;span style=&quot;background-color: transparent; color: light-dark(rgb(0, 0, 0), rgb(255, 255, 255));&quot;&gt;deleteEnrollment()&lt;/span&gt;&lt;/div&gt;&lt;div&gt;&lt;br&gt;&lt;/div&gt;" style="text;strokeColor=none;fillColor=none;align=left;verticalAlign=top;spacingLeft=4;spacingRight=4;overflow=hidden;rotatable=0;points=[[0,0.5],[1,0.5]];portConstraint=eastwest;whiteSpace=wrap;html=1;" vertex="1" parent="M9w1dwyrhwupKzDS5G9y-174">
          <mxGeometry y="34" width="274" height="103" as="geometry" />
        </mxCell>
        <mxCell id="M9w1dwyrhwupKzDS5G9y-177" value="StatisticUI" style="swimlane;fontStyle=1;align=center;verticalAlign=top;childLayout=stackLayout;horizontal=1;startSize=26;horizontalStack=0;resizeParent=1;resizeParentMax=0;resizeLast=0;collapsible=1;marginBottom=0;whiteSpace=wrap;html=1;" vertex="1" parent="1">
          <mxGeometry x="2726" y="2541" width="274" height="140" as="geometry" />
        </mxCell>
        <mxCell id="M9w1dwyrhwupKzDS5G9y-178" value="" style="line;strokeWidth=1;fillColor=none;align=left;verticalAlign=middle;spacingTop=-1;spacingLeft=3;spacingRight=3;rotatable=0;labelPosition=right;points=[];portConstraint=eastwest;strokeColor=inherit;" vertex="1" parent="M9w1dwyrhwupKzDS5G9y-177">
          <mxGeometry y="26" width="274" height="8" as="geometry" />
        </mxCell>
        <mxCell id="M9w1dwyrhwupKzDS5G9y-179" value="+ displayStatisticMenu(): void&lt;div&gt;+&amp;nbsp;&lt;span style=&quot;background-color: transparent; color: light-dark(rgb(0, 0, 0), rgb(255, 255, 255));&quot;&gt;displayTotalCoursesAndStudents(): void&lt;/span&gt;&lt;/div&gt;&lt;div&gt;&lt;span style=&quot;background-color: transparent; color: light-dark(rgb(0, 0, 0), rgb(255, 255, 255));&quot;&gt;+&amp;nbsp;&lt;/span&gt;&lt;span style=&quot;background-color: transparent; color: light-dark(rgb(0, 0, 0), rgb(255, 255, 255));&quot;&gt;displayStudentsPerCourse(): void&lt;/span&gt;&lt;/div&gt;&lt;div&gt;&lt;span style=&quot;background-color: transparent; color: light-dark(rgb(0, 0, 0), rgb(255, 255, 255));&quot;&gt;+&amp;nbsp;&lt;/span&gt;&lt;span style=&quot;background-color: transparent; color: light-dark(rgb(0, 0, 0), rgb(255, 255, 255));&quot;&gt;displayTop5CoursesByStudents(): void&lt;/span&gt;&lt;/div&gt;&lt;div&gt;&lt;span style=&quot;background-color: transparent; color: light-dark(rgb(0, 0, 0), rgb(255, 255, 255));&quot;&gt;+&amp;nbsp;&lt;/span&gt;&lt;span style=&quot;background-color: transparent; color: light-dark(rgb(0, 0, 0), rgb(255, 255, 255));&quot;&gt;displayCoursesWithMoreThan10Students(): void&lt;/span&gt;&lt;/div&gt;" style="text;strokeColor=none;fillColor=none;align=left;verticalAlign=top;spacingLeft=4;spacingRight=4;overflow=hidden;rotatable=0;points=[[0,0.5],[1,0.5]];portConstraint=eastwest;whiteSpace=wrap;html=1;" vertex="1" parent="M9w1dwyrhwupKzDS5G9y-177">
          <mxGeometry y="34" width="274" height="106" as="geometry" />
        </mxCell>
        <mxCell id="M9w1dwyrhwupKzDS5G9y-180" value="ManagementUI" style="swimlane;fontStyle=1;align=center;verticalAlign=top;childLayout=stackLayout;horizontal=1;startSize=26;horizontalStack=0;resizeParent=1;resizeParentMax=0;resizeLast=0;collapsible=1;marginBottom=0;whiteSpace=wrap;html=1;" vertex="1" parent="1">
          <mxGeometry x="3021" y="2511" width="274" height="226" as="geometry" />
        </mxCell>
        <mxCell id="M9w1dwyrhwupKzDS5G9y-181" value="" style="line;strokeWidth=1;fillColor=none;align=left;verticalAlign=middle;spacingTop=-1;spacingLeft=3;spacingRight=3;rotatable=0;labelPosition=right;points=[];portConstraint=eastwest;strokeColor=inherit;" vertex="1" parent="M9w1dwyrhwupKzDS5G9y-180">
          <mxGeometry y="26" width="274" height="8" as="geometry" />
        </mxCell>
        <mxCell id="M9w1dwyrhwupKzDS5G9y-182" value="&lt;span style=&quot;background-color: transparent;&quot;&gt;+ displayStudentList(students: List&amp;lt;Student&amp;gt;, page: int, totalPages: int, header: String): void&lt;/span&gt;&lt;br&gt;&lt;div&gt;+&amp;nbsp;displayStudentDetails(student: Student): void&lt;/div&gt;&lt;div&gt;&lt;span style=&quot;background-color: transparent; color: light-dark(rgb(0, 0, 0), rgb(255, 255, 255));&quot;&gt;+&amp;nbsp;&lt;/span&gt;&lt;span style=&quot;background-color: transparent;&quot;&gt;addStudent(scanner: Scanner): void&lt;/span&gt;&lt;/div&gt;&lt;div&gt;&lt;span style=&quot;background-color: transparent; color: light-dark(rgb(0, 0, 0), rgb(255, 255, 255));&quot;&gt;+&amp;nbsp;&lt;/span&gt;&lt;span style=&quot;background-color: transparent;&quot;&gt;updateStudent(scanner: Scanner): void&lt;/span&gt;&lt;/div&gt;&lt;div&gt;&lt;span style=&quot;background-color: transparent; color: light-dark(rgb(0, 0, 0), rgb(255, 255, 255));&quot;&gt;+&amp;nbsp;&lt;/span&gt;&lt;span style=&quot;background-color: transparent;&quot;&gt;deleteStudent(scanner: Scanner): void&lt;/span&gt;&lt;/div&gt;&lt;div&gt;&lt;span style=&quot;background-color: transparent; color: light-dark(rgb(0, 0, 0), rgb(255, 255, 255));&quot;&gt;+&amp;nbsp;&lt;/span&gt;&lt;span style=&quot;background-color: transparent;&quot;&gt;searchStudentByName(scanner: Scanner): void&lt;/span&gt;&lt;/div&gt;&lt;div&gt;&lt;span style=&quot;background-color: transparent; color: light-dark(rgb(0, 0, 0), rgb(255, 255, 255));&quot;&gt;+&amp;nbsp;&lt;/span&gt;&lt;span style=&quot;background-color: transparent;&quot;&gt;sortStudentsByName(students: List&amp;lt;Student&amp;gt;): List&amp;lt;Student&amp;gt;&lt;/span&gt;&lt;/div&gt;&lt;div&gt;&lt;span style=&quot;background-color: transparent; color: light-dark(rgb(0, 0, 0), rgb(255, 255, 255));&quot;&gt;+&amp;nbsp;&lt;/span&gt;&lt;span style=&quot;background-color: transparent;&quot;&gt;paginateStudents(students: List&amp;lt;Student&amp;gt;, page: int, pageSize: int): List&amp;lt;Student&amp;gt;&lt;/span&gt;&lt;/div&gt;&lt;div&gt;&lt;br&gt;&lt;/div&gt;" style="text;strokeColor=none;fillColor=none;align=left;verticalAlign=top;spacingLeft=4;spacingRight=4;overflow=hidden;rotatable=0;points=[[0,0.5],[1,0.5]];portConstraint=eastwest;whiteSpace=wrap;html=1;" vertex="1" parent="M9w1dwyrhwupKzDS5G9y-180">
          <mxGeometry y="34" width="274" height="192" as="geometry" />
        </mxCell>
        <mxCell id="M9w1dwyrhwupKzDS5G9y-183" value="StudentUI" style="swimlane;fontStyle=1;align=center;verticalAlign=top;childLayout=stackLayout;horizontal=1;startSize=26;horizontalStack=0;resizeParent=1;resizeParentMax=0;resizeLast=0;collapsible=1;marginBottom=0;whiteSpace=wrap;html=1;" vertex="1" parent="1">
          <mxGeometry x="2726" y="2718" width="274" height="270" as="geometry" />
        </mxCell>
        <mxCell id="M9w1dwyrhwupKzDS5G9y-184" value="" style="line;strokeWidth=1;fillColor=none;align=left;verticalAlign=middle;spacingTop=-1;spacingLeft=3;spacingRight=3;rotatable=0;labelPosition=right;points=[];portConstraint=eastwest;strokeColor=inherit;" vertex="1" parent="M9w1dwyrhwupKzDS5G9y-183">
          <mxGeometry y="26" width="274" height="8" as="geometry" />
        </mxCell>
        <mxCell id="M9w1dwyrhwupKzDS5G9y-185" value="&lt;span style=&quot;background-color: transparent;&quot;&gt;+&amp;nbsp;&lt;/span&gt;&lt;span style=&quot;background-color: transparent; font-family: &amp;quot;Helvetica Neue&amp;quot;, sans-serif; white-space-collapse: preserve; color: light-dark(rgb(0, 0, 0), rgb(255, 255, 255));&quot;&gt;displayStudentMenu(Student): void&lt;/span&gt;&lt;div&gt;+&amp;nbsp;&lt;span style=&quot;background-color: transparent; font-family: &amp;quot;Helvetica Neue&amp;quot;, sans-serif; white-space-collapse: preserve; color: light-dark(rgb(0, 0, 0), rgb(255, 255, 255));&quot;&gt;&lt;font style=&quot;font-size: 12px;&quot;&gt;viewCourses(Student): void&lt;/font&gt;&lt;/span&gt;&lt;/div&gt;&lt;div&gt;&lt;font style=&quot;font-size: 12px;&quot;&gt;&lt;span style=&quot;background-color: transparent; color: light-dark(rgb(0, 0, 0), rgb(255, 255, 255));&quot;&gt;+&amp;nbsp;&lt;/span&gt;&lt;span style=&quot;background-color: transparent; font-family: &amp;quot;Helvetica Neue&amp;quot;, sans-serif; white-space-collapse: preserve; color: light-dark(rgb(0, 0, 0), rgb(255, 255, 255));&quot;&gt;displayCoursesWithPagination(): void&lt;/span&gt;&lt;/font&gt;&lt;/div&gt;&lt;div&gt;&lt;font style=&quot;font-size: 12px;&quot;&gt;&lt;span style=&quot;background-color: transparent; color: light-dark(rgb(0, 0, 0), rgb(255, 255, 255));&quot;&gt;+&amp;nbsp;&lt;/span&gt;&lt;span style=&quot;background-color: transparent; font-family: &amp;quot;Helvetica Neue&amp;quot;, sans-serif; white-space-collapse: preserve; color: light-dark(rgb(0, 0, 0), rgb(255, 255, 255));&quot;&gt;searchCoursesByName(): void&lt;/span&gt;&lt;/font&gt;&lt;/div&gt;&lt;div&gt;&lt;font style=&quot;font-size: 12px;&quot;&gt;&lt;span style=&quot;background-color: transparent; color: light-dark(rgb(0, 0, 0), rgb(255, 255, 255));&quot;&gt;+&amp;nbsp;&lt;/span&gt;&lt;span style=&quot;background-color: transparent; font-family: &amp;quot;Helvetica Neue&amp;quot;, sans-serif; white-space-collapse: preserve; color: light-dark(rgb(0, 0, 0), rgb(255, 255, 255));&quot;&gt;displayCourseList(List&amp;lt;Course&amp;gt;, int, int, String): void&lt;/span&gt;&lt;/font&gt;&lt;/div&gt;&lt;div&gt;&lt;font style=&quot;font-size: 12px;&quot;&gt;&lt;span style=&quot;background-color: transparent; color: light-dark(rgb(0, 0, 0), rgb(255, 255, 255));&quot;&gt;+&amp;nbsp;&lt;/span&gt;&lt;span style=&quot;background-color: transparent; font-family: &amp;quot;Helvetica Neue&amp;quot;, sans-serif; white-space-collapse: preserve; color: light-dark(rgb(0, 0, 0), rgb(255, 255, 255));&quot;&gt;registerCourse(Student): void&lt;/span&gt;&lt;/font&gt;&lt;/div&gt;&lt;div&gt;&lt;font style=&quot;font-size: 12px;&quot;&gt;&lt;span style=&quot;background-color: transparent; color: light-dark(rgb(0, 0, 0), rgb(255, 255, 255));&quot;&gt;+&amp;nbsp;&lt;/span&gt;&lt;span style=&quot;background-color: transparent; font-family: &amp;quot;Helvetica Neue&amp;quot;, sans-serif; white-space-collapse: preserve; color: light-dark(rgb(0, 0, 0), rgb(255, 255, 255));&quot;&gt;viewRegisteredCourses(Student): void&lt;/span&gt;&lt;/font&gt;&lt;/div&gt;&lt;div&gt;&lt;font style=&quot;font-size: 12px;&quot;&gt;&lt;span style=&quot;background-color: transparent; color: light-dark(rgb(0, 0, 0), rgb(255, 255, 255));&quot;&gt;+&amp;nbsp;&lt;/span&gt;&lt;span style=&quot;background-color: transparent; font-family: &amp;quot;Helvetica Neue&amp;quot;, sans-serif; white-space-collapse: preserve; color: light-dark(rgb(0, 0, 0), rgb(255, 255, 255));&quot;&gt;displayRegisteredCourses(Student): void&lt;/span&gt;&lt;/font&gt;&lt;/div&gt;&lt;div&gt;&lt;font style=&quot;font-size: 12px;&quot;&gt;&lt;font style=&quot;&quot; face=&quot;Helvetica Neue, sans-serif&quot;&gt;&lt;span style=&quot;white-space-collapse: preserve;&quot;&gt;+ &lt;/span&gt;&lt;/font&gt;&lt;span style=&quot;background-color: transparent; font-family: &amp;quot;Helvetica Neue&amp;quot;, sans-serif; white-space-collapse: preserve; color: light-dark(rgb(0, 0, 0), rgb(255, 255, 255));&quot;&gt;sortRegisteredCourses(Student): void&lt;/span&gt;&lt;/font&gt;&lt;/div&gt;&lt;div&gt;&lt;font style=&quot;font-size: 12px;&quot;&gt;&lt;font face=&quot;Helvetica Neue, sans-serif&quot;&gt;&lt;span style=&quot;white-space-collapse: preserve;&quot;&gt;+&lt;/span&gt;&lt;/font&gt;&lt;span style=&quot;background-color: transparent; font-family: &amp;quot;Helvetica Neue&amp;quot;, sans-serif; white-space-collapse: preserve; color: light-dark(rgb(0, 0, 0), rgb(255, 255, 255));&quot;&gt;displayEnrollmentList(List&amp;lt;Enrollment&amp;gt;, int, int, String): void&lt;/span&gt;&lt;/font&gt;&lt;/div&gt;&lt;div&gt;&lt;font style=&quot;font-size: 12px;&quot;&gt;&lt;font face=&quot;Helvetica Neue, sans-serif&quot;&gt;&lt;span style=&quot;white-space-collapse: preserve;&quot;&gt;+ &lt;/span&gt;&lt;/font&gt;&lt;span style=&quot;background-color: transparent; font-family: &amp;quot;Helvetica Neue&amp;quot;, sans-serif; white-space-collapse: preserve; color: light-dark(rgb(0, 0, 0), rgb(255, 255, 255));&quot;&gt;cancelRegistration(Student): void&lt;/span&gt;&lt;/font&gt;&lt;/div&gt;&lt;div&gt;&lt;font style=&quot;font-size: 12px;&quot;&gt;&lt;span style=&quot;background-color: transparent; font-family: &amp;quot;Helvetica Neue&amp;quot;, sans-serif; white-space-collapse: preserve; color: light-dark(rgb(0, 0, 0), rgb(255, 255, 255));&quot;&gt;+ &lt;/span&gt;&lt;span style=&quot;background-color: transparent; font-family: &amp;quot;Helvetica Neue&amp;quot;, sans-serif; white-space-collapse: preserve; color: light-dark(rgb(0, 0, 0), rgb(255, 255, 255));&quot;&gt;changePassword(Student): void&lt;/span&gt;&lt;/font&gt;&lt;/div&gt;&lt;div&gt;&lt;font style=&quot;font-size: 12px;&quot;&gt;&lt;span style=&quot;background-color: transparent; font-family: &amp;quot;Helvetica Neue&amp;quot;, sans-serif; white-space-collapse: preserve; color: light-dark(rgb(0, 0, 0), rgb(255, 255, 255));&quot;&gt;+ &lt;/span&gt;&lt;span style=&quot;background-color: transparent; font-family: &amp;quot;Helvetica Neue&amp;quot;, sans-serif; white-space-collapse: preserve; color: light-dark(rgb(0, 0, 0), rgb(255, 255, 255));&quot;&gt;handlePaginationInput(int, int): int&lt;/span&gt;&lt;/font&gt;&lt;/div&gt;&lt;div&gt;&lt;span style=&quot;background-color: transparent; font-family: &amp;quot;Helvetica Neue&amp;quot;, sans-serif; font-size: 12pt; white-space-collapse: preserve; color: light-dark(rgb(0, 0, 0), rgb(255, 255, 255));&quot;&gt;&lt;br&gt;&lt;/span&gt;&lt;/div&gt;&lt;div&gt;&lt;span style=&quot;background-color: transparent; font-family: &amp;quot;Helvetica Neue&amp;quot;, sans-serif; font-size: 12pt; white-space-collapse: preserve; color: light-dark(rgb(0, 0, 0), rgb(255, 255, 255));&quot;&gt;&lt;br&gt;&lt;/span&gt;&lt;/div&gt;&lt;div&gt;&lt;br&gt;&lt;/div&gt;" style="text;strokeColor=none;fillColor=none;align=left;verticalAlign=top;spacingLeft=4;spacingRight=4;overflow=hidden;rotatable=0;points=[[0,0.5],[1,0.5]];portConstraint=eastwest;whiteSpace=wrap;html=1;" vertex="1" parent="M9w1dwyrhwupKzDS5G9y-183">
          <mxGeometry y="34" width="274" height="236" as="geometry" />
        </mxCell>
        <mxCell id="M9w1dwyrhwupKzDS5G9y-186" style="edgeStyle=orthogonalEdgeStyle;rounded=0;orthogonalLoop=1;jettySize=auto;html=1;entryX=0.5;entryY=0;entryDx=0;entryDy=0;" edge="1" parent="1" source="M9w1dwyrhwupKzDS5G9y-176" target="M9w1dwyrhwupKzDS5G9y-114">
          <mxGeometry relative="1" as="geometry">
            <Array as="points">
              <mxPoint x="3373" y="2414" />
              <mxPoint x="3373" y="3207" />
              <mxPoint x="2759" y="3207" />
            </Array>
          </mxGeometry>
        </mxCell>
        <mxCell id="M9w1dwyrhwupKzDS5G9y-187" style="edgeStyle=orthogonalEdgeStyle;rounded=0;orthogonalLoop=1;jettySize=auto;html=1;entryX=0.75;entryY=0;entryDx=0;entryDy=0;" edge="1" parent="1" source="M9w1dwyrhwupKzDS5G9y-182" target="M9w1dwyrhwupKzDS5G9y-114">
          <mxGeometry relative="1" as="geometry">
            <Array as="points">
              <mxPoint x="3443" y="2641" />
              <mxPoint x="3443" y="3317" />
              <mxPoint x="2849" y="3317" />
            </Array>
          </mxGeometry>
        </mxCell>
        <mxCell id="M9w1dwyrhwupKzDS5G9y-188" style="edgeStyle=orthogonalEdgeStyle;rounded=0;orthogonalLoop=1;jettySize=auto;html=1;entryX=0.5;entryY=0;entryDx=0;entryDy=0;" edge="1" parent="1" source="M9w1dwyrhwupKzDS5G9y-182" target="M9w1dwyrhwupKzDS5G9y-164">
          <mxGeometry relative="1" as="geometry">
            <Array as="points">
              <mxPoint x="3489" y="2641" />
              <mxPoint x="3489" y="3385" />
              <mxPoint x="3301" y="3385" />
            </Array>
          </mxGeometry>
        </mxCell>
        <mxCell id="M9w1dwyrhwupKzDS5G9y-189" style="edgeStyle=orthogonalEdgeStyle;rounded=0;orthogonalLoop=1;jettySize=auto;html=1;entryX=0;entryY=0.5;entryDx=0;entryDy=0;" edge="1" parent="1" source="M9w1dwyrhwupKzDS5G9y-173" target="M9w1dwyrhwupKzDS5G9y-169">
          <mxGeometry relative="1" as="geometry">
            <Array as="points">
              <mxPoint x="2481" y="2445" />
              <mxPoint x="2481" y="3832" />
            </Array>
          </mxGeometry>
        </mxCell>
        <mxCell id="M9w1dwyrhwupKzDS5G9y-190" style="edgeStyle=orthogonalEdgeStyle;rounded=0;orthogonalLoop=1;jettySize=auto;html=1;entryX=0.25;entryY=0;entryDx=0;entryDy=0;" edge="1" parent="1" source="M9w1dwyrhwupKzDS5G9y-185" target="M9w1dwyrhwupKzDS5G9y-114">
          <mxGeometry relative="1" as="geometry" />
        </mxCell>
        <mxCell id="M9w1dwyrhwupKzDS5G9y-192" value="" style="endArrow=none;html=1;rounded=0;entryX=1;entryY=1;entryDx=0;entryDy=0;" edge="1" parent="1" target="M9w1dwyrhwupKzDS5G9y-191">
          <mxGeometry width="50" height="50" relative="1" as="geometry">
            <mxPoint x="4004" y="577" as="sourcePoint" />
            <mxPoint x="4129" y="415" as="targetPoint" />
          </mxGeometry>
        </mxCell>
        <mxCell id="M9w1dwyrhwupKzDS5G9y-193" value="username" style="ellipse;whiteSpace=wrap;html=1;" vertex="1" parent="1">
          <mxGeometry x="4272" y="233.00000000000006" width="120" height="80" as="geometry" />
        </mxCell>
        <mxCell id="M9w1dwyrhwupKzDS5G9y-194" value="password" style="ellipse;whiteSpace=wrap;html=1;" vertex="1" parent="1">
          <mxGeometry x="4424" y="233.00000000000006" width="120" height="80" as="geometry" />
        </mxCell>
        <mxCell id="M9w1dwyrhwupKzDS5G9y-195" value="" style="endArrow=none;html=1;rounded=0;entryX=0.5;entryY=1;entryDx=0;entryDy=0;exitX=0.5;exitY=0;exitDx=0;exitDy=0;" edge="1" parent="1" source="O2yFdtKVDfJv69alRwpb-280" target="M9w1dwyrhwupKzDS5G9y-193">
          <mxGeometry width="50" height="50" relative="1" as="geometry">
            <mxPoint x="4393" y="383" as="sourcePoint" />
            <mxPoint x="4443" y="333" as="targetPoint" />
          </mxGeometry>
        </mxCell>
        <mxCell id="M9w1dwyrhwupKzDS5G9y-196" value="" style="endArrow=none;html=1;rounded=0;entryX=0.5;entryY=1;entryDx=0;entryDy=0;exitX=0.5;exitY=0;exitDx=0;exitDy=0;" edge="1" parent="1" source="O2yFdtKVDfJv69alRwpb-280" target="M9w1dwyrhwupKzDS5G9y-194">
          <mxGeometry width="50" height="50" relative="1" as="geometry">
            <mxPoint x="4462" y="395" as="sourcePoint" />
            <mxPoint x="4342" y="323" as="targetPoint" />
          </mxGeometry>
        </mxCell>
        <mxCell id="M9w1dwyrhwupKzDS5G9y-197" value="name" style="ellipse;whiteSpace=wrap;html=1;" vertex="1" parent="1">
          <mxGeometry x="4736" y="245.00000000000006" width="120" height="80" as="geometry" />
        </mxCell>
        <mxCell id="M9w1dwyrhwupKzDS5G9y-198" value="duration" style="ellipse;whiteSpace=wrap;html=1;" vertex="1" parent="1">
          <mxGeometry x="4832" y="309.00000000000006" width="120" height="80" as="geometry" />
        </mxCell>
        <mxCell id="M9w1dwyrhwupKzDS5G9y-199" value="" style="endArrow=none;html=1;rounded=0;entryX=0.5;entryY=1;entryDx=0;entryDy=0;exitX=0.75;exitY=0;exitDx=0;exitDy=0;" edge="1" parent="1" source="O2yFdtKVDfJv69alRwpb-282" target="M9w1dwyrhwupKzDS5G9y-197">
          <mxGeometry width="50" height="50" relative="1" as="geometry">
            <mxPoint x="4462" y="395" as="sourcePoint" />
            <mxPoint x="4494" y="323" as="targetPoint" />
          </mxGeometry>
        </mxCell>
        <mxCell id="M9w1dwyrhwupKzDS5G9y-200" value="" style="endArrow=none;html=1;rounded=0;entryX=1;entryY=0;entryDx=0;entryDy=0;" edge="1" parent="1" source="M9w1dwyrhwupKzDS5G9y-198" target="O2yFdtKVDfJv69alRwpb-282">
          <mxGeometry width="50" height="50" relative="1" as="geometry">
            <mxPoint x="4892" y="439.00000000000006" as="sourcePoint" />
            <mxPoint x="4892" y="459.7106781186548" as="targetPoint" />
          </mxGeometry>
        </mxCell>
        <mxCell id="M9w1dwyrhwupKzDS5G9y-201" value="instructor" style="ellipse;whiteSpace=wrap;html=1;" vertex="1" parent="1">
          <mxGeometry x="4843" y="403.00000000000006" width="120" height="80" as="geometry" />
        </mxCell>
        <mxCell id="M9w1dwyrhwupKzDS5G9y-202" value="" style="endArrow=none;html=1;rounded=0;entryX=1;entryY=1;entryDx=0;entryDy=0;" edge="1" parent="1" source="M9w1dwyrhwupKzDS5G9y-201" target="O2yFdtKVDfJv69alRwpb-282">
          <mxGeometry width="50" height="50" relative="1" as="geometry">
            <mxPoint x="4903" y="533" as="sourcePoint" />
            <mxPoint x="4903" y="553.7106781186549" as="targetPoint" />
          </mxGeometry>
        </mxCell>
        <mxCell id="M9w1dwyrhwupKzDS5G9y-203" value="create_at" style="ellipse;whiteSpace=wrap;html=1;" vertex="1" parent="1">
          <mxGeometry x="4702" y="495.00000000000006" width="120" height="80" as="geometry" />
        </mxCell>
        <mxCell id="M9w1dwyrhwupKzDS5G9y-204" value="" style="endArrow=none;html=1;rounded=0;" edge="1" parent="1" source="M9w1dwyrhwupKzDS5G9y-203">
          <mxGeometry width="50" height="50" relative="1" as="geometry">
            <mxPoint x="4765" y="441.2893218813453" as="sourcePoint" />
            <mxPoint x="4762" y="445" as="targetPoint" />
          </mxGeometry>
        </mxCell>
        <mxCell id="M9w1dwyrhwupKzDS5G9y-206" value="name" style="ellipse;whiteSpace=wrap;html=1;" vertex="1" parent="1">
          <mxGeometry x="4963" y="520" width="120" height="80" as="geometry" />
        </mxCell>
        <mxCell id="M9w1dwyrhwupKzDS5G9y-207" value="dob" style="ellipse;whiteSpace=wrap;html=1;" vertex="1" parent="1">
          <mxGeometry x="5069" y="582" width="120" height="80" as="geometry" />
        </mxCell>
        <mxCell id="M9w1dwyrhwupKzDS5G9y-208" value="email&lt;span style=&quot;color: rgba(0, 0, 0, 0); font-family: monospace; font-size: 0px; text-align: start; text-wrap-mode: nowrap;&quot;&gt;%3CmxGraphModel%3E%3Croot%3E%3CmxCell%20id%3D%220%22%2F%3E%3CmxCell%20id%3D%221%22%20parent%3D%220%22%2F%3E%3CmxCell%20id%3D%222%22%20value%3D%22instructor%22%20style%3D%22ellipse%3BwhiteSpace%3Dwrap%3Bhtml%3D1%3B%22%20vertex%3D%221%22%20parent%3D%221%22%3E%3CmxGeometry%20x%3D%224843%22%20y%3D%22403.00000000000006%22%20width%3D%22120%22%20height%3D%2280%22%20as%3D%22geometry%22%2F%3E%3C%2FmxCell%3E%3C%2Froot%3E%3C%2FmxGraphModel%3E&lt;/span&gt;" style="ellipse;whiteSpace=wrap;html=1;" vertex="1" parent="1">
          <mxGeometry x="5090" y="681" width="120" height="80" as="geometry" />
        </mxCell>
        <mxCell id="M9w1dwyrhwupKzDS5G9y-209" value="sex" style="ellipse;whiteSpace=wrap;html=1;" vertex="1" parent="1">
          <mxGeometry x="5090" y="773" width="120" height="80" as="geometry" />
        </mxCell>
        <mxCell id="M9w1dwyrhwupKzDS5G9y-210" value="phone" style="ellipse;whiteSpace=wrap;html=1;" vertex="1" parent="1">
          <mxGeometry x="5073" y="879" width="120" height="80" as="geometry" />
        </mxCell>
        <mxCell id="M9w1dwyrhwupKzDS5G9y-211" value="password" style="ellipse;whiteSpace=wrap;html=1;" vertex="1" parent="1">
          <mxGeometry x="4929" y="936" width="120" height="80" as="geometry" />
        </mxCell>
        <mxCell id="M9w1dwyrhwupKzDS5G9y-212" value="create_at&lt;span style=&quot;color: rgba(0, 0, 0, 0); font-family: monospace; font-size: 0px; text-align: start; text-wrap-mode: nowrap;&quot;&gt;%3CmxGraphModel%3E%3Croot%3E%3CmxCell%20id%3D%220%22%2F%3E%3CmxCell%20id%3D%221%22%20parent%3D%220%22%2F%3E%3CmxCell%20id%3D%222%22%20value%3D%22sex%22%20style%3D%22ellipse%3BwhiteSpace%3Dwrap%3Bhtml%3D1%3B%22%20vertex%3D%221%22%20parent%3D%221%22%3E%3CmxGeometry%20x%3D%225090%22%20y%3D%22773%22%20width%3D%22120%22%20height%3D%2280%22%20as%3D%22geometry%22%2F%3E%3C%2FmxCell%3E%3C%2Froot%3E%3C%2FmxGraphModel%3E&lt;/span&gt;" style="ellipse;whiteSpace=wrap;html=1;" vertex="1" parent="1">
          <mxGeometry x="4797" y="968" width="120" height="80" as="geometry" />
        </mxCell>
        <mxCell id="M9w1dwyrhwupKzDS5G9y-213" value="isActived" style="ellipse;whiteSpace=wrap;html=1;" vertex="1" parent="1">
          <mxGeometry x="4693" y="875" width="120" height="80" as="geometry" />
        </mxCell>
        <mxCell id="M9w1dwyrhwupKzDS5G9y-214" value="" style="endArrow=none;html=1;rounded=0;entryX=0.75;entryY=1;entryDx=0;entryDy=0;" edge="1" parent="1" source="M9w1dwyrhwupKzDS5G9y-213" target="O2yFdtKVDfJv69alRwpb-281">
          <mxGeometry width="50" height="50" relative="1" as="geometry">
            <mxPoint x="4753" y="854.2893218813452" as="sourcePoint" />
            <mxPoint x="4753" y="804.2893218813452" as="targetPoint" />
          </mxGeometry>
        </mxCell>
        <mxCell id="M9w1dwyrhwupKzDS5G9y-215" value="" style="endArrow=none;html=1;rounded=0;entryX=0.75;entryY=1;entryDx=0;entryDy=0;" edge="1" parent="1" source="M9w1dwyrhwupKzDS5G9y-212" target="O2yFdtKVDfJv69alRwpb-281">
          <mxGeometry width="50" height="50" relative="1" as="geometry">
            <mxPoint x="4857" y="947.2893218813452" as="sourcePoint" />
            <mxPoint x="4857" y="897.2893218813452" as="targetPoint" />
          </mxGeometry>
        </mxCell>
        <mxCell id="M9w1dwyrhwupKzDS5G9y-216" value="" style="endArrow=none;html=1;rounded=0;entryX=0.75;entryY=1;entryDx=0;entryDy=0;" edge="1" parent="1" source="M9w1dwyrhwupKzDS5G9y-211" target="O2yFdtKVDfJv69alRwpb-281">
          <mxGeometry width="50" height="50" relative="1" as="geometry">
            <mxPoint x="4989" y="915.2893218813452" as="sourcePoint" />
            <mxPoint x="4989" y="865.2893218813452" as="targetPoint" />
          </mxGeometry>
        </mxCell>
        <mxCell id="M9w1dwyrhwupKzDS5G9y-217" value="" style="endArrow=none;html=1;rounded=0;entryX=0.897;entryY=0.968;entryDx=0;entryDy=0;entryPerimeter=0;" edge="1" parent="1" source="M9w1dwyrhwupKzDS5G9y-210" target="O2yFdtKVDfJv69alRwpb-281">
          <mxGeometry width="50" height="50" relative="1" as="geometry">
            <mxPoint x="5002.289321881345" y="969" as="sourcePoint" />
            <mxPoint x="5002.289321881345" y="919" as="targetPoint" />
          </mxGeometry>
        </mxCell>
        <mxCell id="M9w1dwyrhwupKzDS5G9y-219" value="" style="endArrow=none;html=1;rounded=0;entryX=1;entryY=1;entryDx=0;entryDy=0;" edge="1" parent="1" source="M9w1dwyrhwupKzDS5G9y-209" target="O2yFdtKVDfJv69alRwpb-281">
          <mxGeometry width="50" height="50" relative="1" as="geometry">
            <mxPoint x="5019.289321881345" y="863" as="sourcePoint" />
            <mxPoint x="5019.289321881345" y="813" as="targetPoint" />
          </mxGeometry>
        </mxCell>
        <mxCell id="M9w1dwyrhwupKzDS5G9y-220" value="" style="endArrow=none;html=1;rounded=0;entryX=1;entryY=0.75;entryDx=0;entryDy=0;" edge="1" parent="1" source="M9w1dwyrhwupKzDS5G9y-208" target="O2yFdtKVDfJv69alRwpb-281">
          <mxGeometry width="50" height="50" relative="1" as="geometry">
            <mxPoint x="5019.289321881345" y="771" as="sourcePoint" />
            <mxPoint x="5019.289321881345" y="721" as="targetPoint" />
          </mxGeometry>
        </mxCell>
        <mxCell id="M9w1dwyrhwupKzDS5G9y-221" value="" style="endArrow=none;html=1;rounded=0;entryX=1;entryY=0.5;entryDx=0;entryDy=0;" edge="1" parent="1" source="M9w1dwyrhwupKzDS5G9y-207" target="O2yFdtKVDfJv69alRwpb-281">
          <mxGeometry width="50" height="50" relative="1" as="geometry">
            <mxPoint x="4998.289321881345" y="672" as="sourcePoint" />
            <mxPoint x="4998.289321881345" y="622" as="targetPoint" />
          </mxGeometry>
        </mxCell>
        <mxCell id="M9w1dwyrhwupKzDS5G9y-222" value="" style="endArrow=none;html=1;rounded=0;entryX=1;entryY=0;entryDx=0;entryDy=0;" edge="1" parent="1" source="M9w1dwyrhwupKzDS5G9y-206" target="O2yFdtKVDfJv69alRwpb-281">
          <mxGeometry width="50" height="50" relative="1" as="geometry">
            <mxPoint x="5023" y="650" as="sourcePoint" />
            <mxPoint x="5023" y="670.7106781186548" as="targetPoint" />
          </mxGeometry>
        </mxCell>
        <mxCell id="M9w1dwyrhwupKzDS5G9y-223" value="register_at" style="ellipse;whiteSpace=wrap;html=1;" vertex="1" parent="1">
          <mxGeometry x="4178" y="764" width="120" height="80" as="geometry" />
        </mxCell>
        <mxCell id="M9w1dwyrhwupKzDS5G9y-224" value="" style="endArrow=none;html=1;rounded=0;entryX=0;entryY=0.75;entryDx=0;entryDy=0;" edge="1" parent="1" source="M9w1dwyrhwupKzDS5G9y-223" target="O2yFdtKVDfJv69alRwpb-324">
          <mxGeometry width="50" height="50" relative="1" as="geometry">
            <mxPoint x="4298" y="854" as="sourcePoint" />
            <mxPoint x="4368.710678118655" y="804" as="targetPoint" />
          </mxGeometry>
        </mxCell>
      </root>
    </mxGraphModel>
  </diagram>
</mxfile>
